<svg xmlns="http://www.w3.org/2000/svg" width="68.642" height="75.849" viewBox="-22.802 -28.931 68.642 75.849" overflow="visible"><circle cx="11.381" cy="-20.558" r="8.373" fill="#c3a575"/><circle cx="-14.429" cy="-3.811" r="8.373" fill="#c3a575"/><circle cx="37.466" cy="-3.811" r="8.374" fill="#c3a575"/><path d="M-17.091 6.861s-18.335 25.626 27.812 40.057c0 0-29.734-24.341-.777-42.357 0 0-4.701-6.539-13.561-5.535 0 0-3.139 8.639-13.474 7.835zM40.254 6.861S58.59 32.487 12.442 46.918c0 0 29.734-24.341.777-42.357 0 0 4.701-6.539 13.562-5.535 0 0 3.137 8.639 13.473 7.835zM3.009-11.807S-.973-9.082-2.562-3.812c0 0 6.67-1.882 14.004 6.23 0 0 5.867-7.833 13.738-5.583 0 0-1.125-4.584-5.426-8.643 0 0-5.161 2.892-8.312 2.892s-8.433-2.891-8.433-2.891z" fill="#c3a575"/><path d="M18.929 20.871c-.278.318-.688.291-1.334.701a.392.392 0 0 0 .061-.055c.197-.223-.764-.084-1.235.388-.382.404-.928.553-1.513.627-.587.079-1.207.088-1.767.241-.278.075-.586.084-.927.129-.882.191-1.761.225-2.652.173a19.817 19.817 0 0 1-2.776-.375c-.519-.114-.924-.415-1.302-.658-.149-.069-.304-.145-.459-.199-.079-.03-.155-.058-.226-.088a2.016 2.016 0 0 1-.193-.106 2.195 2.195 0 0 1-.479-.384c-.134-.143-.262-.272-.354-.437.121.164.253.272.378.403.064.062.126.131.203.19.076.058.155.118.246.185.05.033.079.041.087.03.036-.042-.174-.347-.267-.461-.038-.08-.254-.014-.296-.098a.874.874 0 0 1-.171-.198c-.044-.082-.085-.168-.131-.253-.028-.082-.146.034-.161-.006a.626.626 0 0 1-.085-.172c-.018-.06-.027-.126-.036-.183-.016-.114-.034-.21-.099-.262-.044-.045-.093-.084-.133-.126-.036-.042-.077-.081-.114-.122-.039-.054-.08-.11-.11-.176-.009-.043-.015-.094-.021-.142a5.683 5.683 0 0 1-.064-.473.488.488 0 0 0 .051-.008.245.245 0 0 0-.063-.177c-.001-.017-.003-.034-.003-.052.002-.003.003-.004.003-.007.007-.006.01-.015.012-.026l-.018-.006a3.807 3.807 0 0 1 .006-.339l.015.002a.77.77 0 0 0 .22.526c-.027-.02-.044-.021-.055-.01-.011.014-.014.042-.002.086l.102.043c-.007-.091-.011-.178-.037-.257a.407.407 0 0 0-.133-.224s.017-.08.03-.119c-.027-.049-.079-.04-.125-.046v-.119a.961.961 0 0 1 .147.183l.095.116c.101.46.315.865.569 1.216-.008.046-.026.086.017.109a.408.408 0 0 1 .109.05c.039.05.076.1.116.147l.037.059-.008-.032c.103.097.208.194.311.295.019.027.042.05.058.067.064.084.132.168.233.145.021.017.043.031.062.045l-.019.004.03.004c.085.067.187.11.28.165.04.063.081.137.131.194-.051-.058-.091-.131-.131-.194.093.049.184.104.28.149.1.04.198.082.3.125.656.25 1.322.402 2 .504.683.097 1.383.138 2.128.104.807-.04 1.58-.156 2.325-.324.745-.168 1.463-.259 2.175-.403.713-.141 1.425-.331 2.122-.702.542-.271 1.61-.461 2.151-.604.789.051.633.833.605.885-.057.144-.123.25-.196.333m-13.848.262c.01.009.024.011.045.008.058.001.139-.028.216-.045.078.075.217.108.345.085-.089-.125-.214-.111-.345-.085-.077.017-.158.046-.216.045-.021.002-.035 0-.045-.008m-.171-.139c.044-.025.072-.021.094-.006-.022-.014-.049-.019-.094.006m-.716-.721c.044.065.098.116.171.105-.089-.083-.177-.166-.266-.246-.005-.006-.007-.013-.011-.018v.001c.005.016.003.026-.002.034-.01.011-.028.013-.048.013a.325.325 0 0 0-.093-.011c.018 0 .06.011.093.011a.339.339 0 0 1 .107.043c.016.024.032.048.049.068m-1.147-1.314l-.006.056h.006c.004-.019.01-.035.016-.057zm14.548 2.613a.557.557 0 0 1-.08.051c.027-.017.051-.034.08-.051M4.156 20.213c-.003 0-.006-.003-.011-.007l-.045-.073.053.073c0 .004.002.007.003.007m-.915-1.309M7.511 14.911a.318.318 0 0 1-.077.062c-.072.038-.072-.053-.177.075-.003.005-.14-.081-.144-.075.04-.067.074.014-.008.088-.062-.008-.163.023-.236.113-.032.04-.138-.101-.156-.04-.025.092-.138-.03-.181.021a.488.488 0 0 1-.3.163c-.174.038-.374.048-.514.165-.067.062-.162.076-.251.127-.212.18-.502.352-.732.455-.226.103-.357.314-.547.487-.049.044-.147.088-.147.088-.071.013.014.405-.053.423-.015.009-.104-.17-.115-.157-.02.024-.228.132-.239.161-.013.028.052.247.036.266 0 .003-.002.005-.005.007a.02.02 0 0 0-.006.011c-.062.072.122.223.04.266.064-.069-.132-.216-.056-.285l.002-.006c.039-.047-.157-.056-.213-.034-.003 0-.006.002-.006.003-.006.007.004.027.016.051.012.021.022.043.016.051l-.006.001-.002.002c-.027.034.181.151.123.174-.003 0-.005.001-.006.004-.004.005.013.018.03.031l.034.029-.004.001c-.051.033-.18.02-.205.052a.022.022 0 0 0-.005.017c.002.038.005.07.012.104 0 .02-.001.038-.012.052a.226.226 0 0 1-.043.024c-.03-.024-.073-.042-.116-.062 0 .021.017.055.017.074 0-.02-.017-.054-.017-.074.043.021.086.038.116.062a.59.59 0 0 0-.164.122c-.007-.004-.01-.01-.017-.014a.1.1 0 0 1 .009.018c-.032.032-.067.065-.097.102l-.01-.003c.026-.055.03-.109-.018-.188.018.023.042.026.056.01l.004-.006-.05-.041c-.014.012-.028.023-.04.037-.029.034-.038.074.014.123l-.049.026c.012.021.05.029.082.038l-.018.033a.4.4 0 0 1-.11-.135c.021-.078.042-.155.07-.229a1.99 1.99 0 0 1 .083-.215c.021 0 .043.004.048-.004.002-.003.002-.006.002-.011a.134.134 0 0 1-.025-.052l.025-.06.022-.018-.016.004.068-.139a.138.138 0 0 1 .026-.022c.013-.01.028-.018.038-.028.012-.016.014-.033-.005-.062l.014-.025.006.011-.002-.015.059-.102c.038-.067.085-.132.129-.195.034-.05.071-.096.107-.14.285-.348.491-.974.867-1.244.232-.17.447-.436.667-.607.236-.185.326-.335.635-.466.24-.102.466-.157.775-.247.178-.166.578-.204.796-.234 1.065.335.459.818.459.847-.024.149-.263.103-.303.154m-4.35 3.027c.007.012.018.039.03.057a.195.195 0 0 0-.03-.057m.126-.206a.038.038 0 0 0-.008.024.215.215 0 0 1 .017.082l.021-.067.027-.062c-.024.008-.044.01-.057.023m.6-.882l.087-.021c.019-.039-.008-.068-.023-.1a.742.742 0 0 0-.145.134l-.012.013a.586.586 0 0 0-.097.178c.009-.046-.019-.055-.067-.015l.006.083c.057-.034.032-.257.079-.298l.036-.037c.027-.033.124.115.136.063m.061-.128l.004.009a.66.66 0 0 0 .07-.047v-.004l-.074.042m-.757.7c.02-.003.035.01.045.024a.221.221 0 0 0 .028.04c-.007-.008-.016-.025-.028-.04a.091.091 0 0 1-.01-.047.236.236 0 0 0-.035.023m.335-.446c.016.041.034.079.041.108.005.009.005.014.002.017.003-.003.003-.008-.002-.017-.007-.028-.026-.067-.041-.108m-.024.163c.002.001.002.005.003.006-.001-.002-.001-.005-.003-.006m.03-.038h0m-.031.034l.001.004-.001-.004M3.489 17.101c.006-.005.022-.003.041 0h.001-.001c-.019-.002-.035-.004-.041 0m.008.034H3.5h-.003m-.25.242c.005-.003.009-.005.012-.011.012-.015.015-.034-.007-.064l-.054.115c.01-.008.014-.017.024-.021.001-.003.003-.003.003-.003v.006c.008-.007.016-.012.022-.022m.279-.401a.038.038 0 0 0 .027-.019c.019-.022.022-.061.011-.11-.023 0-.034.004-.045.014-.018.025-.008.07.007.115M-.78 28.884a.331.331 0 0 0-.119.019c-.049 0-.057-.041-.075-.087.064.026.129.048.194.068M-.54 28.976a.543.543 0 0 0-.057-.035l.033.011zM-.276 29.104a.506.506 0 0 1-.168-.07.395.395 0 0 1 .168.07" fill="#c3a575"/><path d="M-.444 29.034a.319.319 0 0 0-.116.011.159.159 0 0 0 .027-.021c.011-.014.011-.029-.003-.047l-.004-.001.096.058M-.56 29.045c-.027.014-.065.022-.082.028a.494.494 0 0 1 .082-.028m-.082.028l-.002.003.002-.003M.489 30.168c-.009.01-.036.01-.083-.011a12.254 12.254 0 0 1-.922-.407l-.723-.493a.8.8 0 0 0-.222-.076c.103.014.208.03.322.051.155.018.245.271.452.391.009.01.019.001.032-.015a.175.175 0 0 0 .016-.019c.006-.006.01-.013.016-.021.022-.024.047-.041.073-.015.145.103.256.229.412.272.059.06.23-.079.289-.021.118.078.374.319.338.364M-1.867 28.576l-.103.041c-.05-.029-.066-.059-.05-.074.005-.011.021-.015.042-.017-.208 0-.375-.067-.533-.161h.002a.072.072 0 0 1 .018-.021.095.095 0 0 1 .015-.02.094.094 0 0 1 .079-.039c.022.032.071.096.071.096.198-.035.326.079.459.195M-2.511 28.365l-.01.011c-.031-.022-.061-.047-.091-.068l.006-.001.095.058M17.535 30.037c-.305.344-.714.267-1.413.647a.482.482 0 0 0 .074-.06c.172-.195-.772-.124-1.264.307-.41.376-.96.484-1.545.517-.582.038-1.197.004-1.757.124-.281.055-.581.05-.922.075-.875.15-1.729.143-2.589.093-.861-.048-1.729-.153-2.657-.221-.492-.046-.9-.26-1.296-.394-.292-.071-.624-.046-.865-.086a4.267 4.267 0 0 1-.989-.325c.341.097.585.193.97.289.047.01.071.009.082-.001.039-.046-.252-.252-.381-.318-.067-.05-.218.106-.282.056-.159-.035-.291-.129-.448-.216-.022-.019-.04-.01-.057.009-.009.009-.018.023-.027.035-.006.014-.015.025-.021.034-.006.009-.012.011-.02.005-.224-.09-.347-.336-.504-.327a50.879 50.879 0 0 0-.327-.007.681.681 0 0 1-.189-.042l-.114-.074c-.272-.168-.585-.362-.875-.529l.009-.013c-.033-.017-.069-.031-.104-.047.104-.055.376-.079.376-.079l.338.109c.113.03.225.06.335.092.223.055.438.114.656.156.024.039.041.081.089.073a.298.298 0 0 1 .117-.034c.064.013.126.025.19.036.021.008.04.02.062.027l.001.002c.021.02.021.037.006.05-.002.007-.011.011-.019.018a.378.378 0 0 0-.082.043c.018-.011.055-.024.082-.043a.292.292 0 0 1 .113-.021l-.102-.048-.026-.021c.143.024.286.054.433.072.032.011.063.021.088.031.1.044.199.086.28.019l.079.011-.016.01.03-.009.331.043.66.064c1.439.118 2.765.23 4.262.186.81-.038 1.589-.115 2.343-.251.753-.131 1.473-.175 2.193-.269.719-.093 1.438-.232 2.159-.553.556-.229 1.627-.34 2.168-.448.39.056.524.271.569.482a.794.794 0 0 1-.027.442 1.269 1.269 0 0 1-.177.279m-13.755.229a.43.43 0 0 0 .361-.025c-.122-.089-.248-.041-.361.025m-.19.11c.059-.026.123-.07.189-.109-.066.039-.13.082-.189.109M3.342 30.32l-.003.004.003-.004m0 0zm-.77-.302c-.125-.016-.247-.039-.368-.06.032.012.063.021.085.033l.01.005h-.013a.471.471 0 0 0 .077.027c.073.032.145.045.209-.005m-1.553.114zM.991 30.157l.002-.002-.002.002m.101-.145v0m-.214-.011c.061.009.156-.004.217.004-.061-.008-.156.005-.217-.004m-.238-.283c-.016.021.002.049.061.072l.097-.059c-.151-.09-.297-.19-.488-.126l-.084-.086a.091.091 0 0 0-.057.031c-.018.018-.028.044-.043.064.172.071.348.112.556.083-.022.007-.033.015-.042.021m15.481.966c-.024.013-.051.029-.083.045.027-.015.055-.032.083-.045M.707 29.696l-.026.002a.184.184 0 0 1 .026-.002" fill="#c3a575"/><path d="M2.462 30.044a.378.378 0 0 1-.1-.02c-.021-.009-.044-.017-.064-.027a.364.364 0 0 1 .164.047" fill="#c3a575"/><path d="M2.572 30.018c-.064.05-.136.036-.209.006a.37.37 0 0 0 .1.02.375.375 0 0 0-.164-.047l-.01-.005c-.022-.012-.053-.021-.085-.033.121.02.243.044.368.059M9.691 27.548a.24.24 0 0 0-.044.037l-.019.025c-.026.021-.042-.017-.064-.047zM9.829 27.53l-.023.004.043.012zM10.03 27.566a.178.178 0 0 1-.112-.002c.03-.014.066-.014.112.002M9.918 27.564a.183.183 0 0 0-.056.042c-.003.003-.004.007-.007.009.015-.025.019-.052-.005-.068v-.001a.45.45 0 0 0 .068.018" fill="#c3a575"/><path d="M9.817 27.677v-.003.003m0-.003a.497.497 0 0 1 .038-.059c-.011.022-.029.043-.038.059M10.723 28.298a.065.065 0 0 1-.042.013c-.242-.008-.401-.039-.62-.062-.179-.058-.349-.128-.528-.18-.049-.007-.096.01-.144.021a3.02 3.02 0 0 1 .193-.083c.091-.052.205.154.353.186.001.004.005.004.006 0 .005-.005.008-.028.011-.052.005-.023.009-.049.019-.06.006-.007.012-.007.02 0 .108.042.203.111.301.107.015.01.03 0 .046-.019.011-.012.021-.028.033-.042.009-.016.021-.03.03-.044.016-.019.032-.026.047-.019.091.036.313.189.275.234M8.956 27.783c-.05-.008-.062-.04-.034-.071a.433.433 0 0 1-.334.08c.009-.038.009-.084.033-.109.004-.004.006-.008.01-.01l.063.055c.001-.001.003-.001.003-.004.103-.114.202-.068.305-.021zM8.586 27.806a.484.484 0 0 0-.067-.023l.003-.004.068.014zM20.939 26.444c-.164.187-.406.143-.754.437a.04.04 0 0 1 .012-.015c.092-.104.004-.16-.143-.151a.804.804 0 0 0-.58.363c-.035.06-.074.111-.113.156-.452.515-1.236.242-1.824.499-.162.068-.344.072-.547.119-1.011.391-2.023.287-3.126.486-.294.038-.57-.077-.827-.131-.185-.006-.369.097-.517.116a1.71 1.71 0 0 1-.637-.062c.218.005.379.037.619.032.023-.002.036-.007.042-.015.04-.044-.19-.187-.285-.217-.013-.009-.027-.002-.039.014a.264.264 0 0 0-.034.049c-.012.018-.022.034-.033.047-.015.017-.028.022-.044.017-.097.009-.194-.057-.302-.092-.01-.005-.017-.005-.021 0-.009.012-.013.038-.015.062-.002.023-.004.047-.01.052 0 .003-.002.004-.006.003-.147-.023-.274-.223-.361-.168-.067.034-.128.062-.188.094a.355.355 0 0 1-.117.02c-.026-.014-.053-.024-.081-.036a5.082 5.082 0 0 0-.625-.207l.003-.016c-.024 0-.047-.004-.071-.007a.312.312 0 0 1 .052-.071c.059-.067.139-.135.139-.135a8.06 8.06 0 0 0 .841-.084c.023.03.042.065.068.044a.21.21 0 0 1 .058-.066l.119-.021.042.009-.022-.012.268-.053c.022.004.042.005.059.008.054.014.108.026.146-.016.006-.009.016-.021.022-.037l.046-.011-.006.016.015-.017.202-.045c.13-.029.263-.06.397-.092.87-.209 1.681-.313 2.58-.531.485-.127.946-.271 1.396-.449.886-.347 1.765-.288 2.617-.878.326-.212 1-.269 1.344-.321.508.171.42.911.404.955-.046.177-.097.283-.163.358m-8.31 1.02c.057.019.123-.008.176-.067.011-.011.02-.026.03-.038-.063-.04-.111-.019-.153.028a.519.519 0 0 0-.053.077m-.157.134c.022.025.046.047.062.028-.016.018-.04-.003-.062-.028m.07.017l-.005.01.005-.01m.087-.151c-.03.053-.059.112-.085.149l-.001.002.001-.002c.027-.037.055-.097.085-.149M12.404 27.576a.093.093 0 0 1 0 0m.003-.001zm-.651.015c.037.004.071.002.097-.026a.106.106 0 0 0 .02-.037l-.224.045c.019.004.041.005.056.008l.006.001-.01.005c.02 0 .039.004.055.004m-.121-.022l.002.001c.022.016.021.041.008.067a.475.475 0 0 0-.037.063c.006-.015.025-.039.037-.063.004-.005.008-.011.012-.014a.15.15 0 0 1 .044-.038.629.629 0 0 1-.066-.016m-.731.442c.036-.011.088-.054.124-.065-.036.011-.088.054-.124.065m-.187-.223c-.03.037-.018.072.036.076l.041-.085c-.102-.035-.202-.072-.289.027l-.019.023s-.046-.036-.07-.051c-.003.001-.004.004-.006.005-.024.029-.021.076-.024.116a.428.428 0 0 0 .333-.113c.001.002-.001.002-.002.002m9.468-.906c-.016.013-.031.024-.049.04.018-.016.029-.028.049-.04m-9.453.893l-.012.012c.003-.004.006-.008.012-.012M9.786 24.405a.293.293 0 0 0-.078.062c-.036.021-.055-.016-.08-.049zM9.988 24.401c-.018-.004-.037-.009-.053-.011l.029-.002zM10.212 24.419a.277.277 0 0 1-.14 0 .222.222 0 0 1 .14 0M10.072 24.419a.24.24 0 0 0-.078.051c.015-.023.022-.051-.006-.068.026.005.055.014.084.017" fill="#c3a575"/><path d="M9.942 24.532l.002-.001-.002.001m.002-.001a.191.191 0 0 1 .033-.041c.006-.009.01-.013.018-.021l-.024.031c-.004.001-.006.006-.006.008l-.008.006a.054.054 0 0 0-.013.017M11.063 25.152c-.008.008-.024.014-.056.014-.302-.004-.499-.043-.771-.062-.223-.058-.432-.125-.658-.179-.062-.007-.12.006-.178.017l.242-.077c.112-.051.255.156.437.186.004.001.007.001.008-.002.008-.006.011-.029.016-.053.004-.021.01-.045.02-.055.008-.008.019-.011.03-.005.133.043.25.11.374.106.057.034.139-.152.195-.118.113.038.384.181.341.228M8.861 24.635c-.058-.009-.075-.039-.049-.065.005-.008.01-.011.016-.015a.635.635 0 0 1-.425.086c.007-.036.009-.079.033-.104.005-.007.011-.01.02-.016.026.02.083.058.083.058.125-.12.253-.075.383-.026zM8.399 24.655c-.031-.008-.059-.017-.085-.025l.003-.004c.027.004.055.012.086.015zM23.861 22.585c-.205.23-.51.203-.957.55.012-.008.02-.018.027-.025.098-.113-.025-.155-.219-.121a1.197 1.197 0 0 0-.637.356c-.018.021-.037.043-.055.068a1.126 1.126 0 0 1-.088.115c-.559.633-1.57.414-2.332.729-.203.084-.432.102-.681.167-1.271.473-2.541.431-3.923.689-.37.047-.714-.061-1.036-.101-.229.005-.462.112-.649.133a2.69 2.69 0 0 1-.793-.047c.271 0 .469.024.772.016.031-.001.047-.008.055-.016.042-.047-.236-.185-.352-.211-.023-.013-.045.008-.069.036l-.025.029a.225.225 0 0 0-.024.03c-.025.027-.05.047-.071.034-.122.014-.243-.048-.379-.079-.012-.005-.021-.004-.027.003a.13.13 0 0 0-.018.061c-.004.024-.006.045-.013.054-.002.001-.006.004-.009.001-.184-.019-.339-.221-.45-.165-.085.03-.162.062-.236.093a.484.484 0 0 1-.147.021 2.94 2.94 0 0 1-.101-.033c-.242-.079-.52-.139-.775-.203l.002-.016c-.028-.001-.057-.005-.087-.009a1.173 1.173 0 0 1 .246-.198c.37-.018.719-.057 1.057-.1.029.031.052.065.083.045.004-.006.007-.011.01-.013a.26.26 0 0 1 .064-.054l.149-.02.053.01-.024-.014.336-.061c.025.001.05.003.071.006.074.011.144.021.19-.029.006-.007.013-.019.019-.029l.06-.011-.01.017.02-.021c.084-.015.169-.032.253-.049.165-.033.333-.061.501-.1 1.091-.251 2.108-.38 3.233-.665.606-.15 1.181-.342 1.738-.549 1.111-.424 2.205-.444 3.256-1.128.406-.248 1.234-.381 1.656-.478.629.11.531.869.516.917a.944.944 0 0 1-.18.365m-10.387 1.697c.08.021.175-.018.248-.101l.009-.012c-.091-.046-.162 0-.22.067-.014.017-.028.032-.037.046M13.369 24.426zm.029-.035l-.028.033.028-.033m-.036.044l.001-.004-.001.004m.068-.09a.515.515 0 0 0-.029.041c.009-.014.018-.028.029-.041m.042-.061c-.009.015-.022.029-.031.045.009-.016.022-.03.031-.045m-.286.117c.024-.029.056-.004.087.018-.031-.022-.063-.047-.087-.018m.183-.189c.009.014.019.023.032.035a.207.207 0 0 1-.032-.035m-.203.228l-.001.006c-.001-.002.001-.003.001-.006m.013-.03l-.013.029c.004-.009.008-.021.013-.029m.005-.005l-.004.002.004-.002m0-.003zm-.809.03c.05.004.097 0 .129-.039a.086.086 0 0 0 .021-.028l-.283.054-.016-.002h.002c.028.016.021.041.007.069-.001.001-.004.001-.007.005a.476.476 0 0 0-.039.057c.008-.015.031-.038.046-.062a.173.173 0 0 1 .075-.056c-.022-.006-.045-.009-.066-.012.026 0 .048.001.07.005l.006.001c-.003 0-.006.002-.01.006a.716.716 0 0 0 .065.002m-1.077.43c.047-.014.111-.055.157-.067-.046.012-.11.054-.157.067m-.236-.211c-.03.034-.012.065.05.067l.052-.085c-.133-.038-.265-.07-.383.051l-.088-.05a.037.037 0 0 0-.015.013c-.024.027-.024.069-.029.105a.58.58 0 0 0 .42-.11c-.001.005-.007.007-.007.009m11.842-1.516c-.016.015-.035.029-.057.047.018-.017.039-.033.057-.047M11.09 24.629a.072.072 0 0 1-.02.014l.02-.014" fill="#c3a575"/></svg>