<svg xmlns="http://www.w3.org/2000/svg" width="51.45" height="63.704" viewBox="-22.802 -28.931 51.45 63.704" overflow="visible"><path fill="#b3d143" d="M-13.898-11.768l-7.282-2.188-1.622-14.975 7.316 3.625zM-7-9.603l-6.084-1.805-1.588-13.559 6.113 2.908zM-1.212-7.96l-5.084-1.636-1.552-12.187 5.101 2.402zM3.764-6.44L-.57-7.683-2.102-19.1l4.357 2.175zM-11.684 3.287l-7.203-.764-1.974-14.7 7.272 2.202zM-4.863 4.103l-6.018-.618-1.901-13.281 6.068 1.716zM.857 4.615l-5.03-.641L-6.01-7.94l5.068 1.409zM5.779 5.167L1.497 4.77-.3-6.376l4.327 1.325zM-9.184 18.34l-7.119.962-2.38-14.265 7.233.46zM-2.439 17.519l-5.947.829-2.265-12.867 6.032.262zM3.214 16.659l-4.977.562-2.158-11.504 5.033.193zM8.082 16.03l-4.236.628L1.747 5.911l4.307.293zM-6.573 31.548l-6.627 3.225-2.702-13.833 7.111-.94zM.027 29.415l-5.815 1.984-2.222-11.572 5.931-.909zM5.553 27.452L.686 28.988l-2.082-10.234 4.948-.782zM10.316 25.879l-4.14 1.454-2.002-9.484 4.236-.545zM23.298 8.044l5.35-3.428-5.35-3.429 3.637-5.211-6.256-1.112 1.359-6.207-6.207 1.361-1.111-6.257-5.211 3.636-3.428-5.35-2.333 3.641.606 3.222c.567-.06 1.143-.097 1.728-.097 8.652 0 15.666 6.765 15.666 15.109 0 7.061-5.027 12.972-11.812 14.631l.777 4.119 4.008 2.798 1.111-6.258 6.207 1.361-1.361-6.208 6.258-1.112z"/><path d="M5.489-9.106c7.629 0 13.815 6.105 13.815 13.636 0 6.065-4.018 11.201-9.566 12.971l.197 1.053c6.785-1.659 11.812-7.57 11.812-14.631 0-8.344-7.014-15.109-15.666-15.109-.585 0-1.16.037-1.728.097l.38 2.021c.253-.014.501-.038.756-.038z" fill="#fff"/><path d="M19.304 4.53c0-7.531-6.186-13.636-13.815-13.636-.255 0-.503.024-.755.038l5.003 26.569c5.55-1.77 9.567-6.906 9.567-12.971z" fill="#b3d143"/></svg>