<svg xmlns="http://www.w3.org/2000/svg" width="70.258" height="66.29" viewBox="-22.802 -28.931 70.258 66.29" overflow="visible"><path d="M44.252-5.372l3.204-.645-6.702-1.106 1.37 1.475-4.294.503 1.616 1.676-.917.193c-8.237-15.438-27.996-13.637-32.863-12.49-8.477 1.997-14.875 5.125-14.875 5.125-5.125-2.875-6.875-1.5-6.875-1.5-1.125 4 1.25 8.375 1.25 8.375-4.375 4.75-3.75 11.292-3.75 11.292-2.375.417-5 3.708-4 8.833s7.625 5.125 7.625 5.125c2.125 4.25 4.875 6 4.875 6l.375 7 3.875.25.125-4.375 1.125.5.5 6.5h5.5l-.5-4.249s-13.625-.126 12.625-.001c1.127.005 2.21-.026 3.25-.09.505-.031 1-.07 1.486-.116.298-.028.58-.07.87-.104l.456 1.654h4.375l-.329-2.446c1.228-.3 2.382-.649 3.453-1.048l.563 4.963s4.5.125 4.5.078c0-.028-.347-5.796-.618-7.178 9.466-5.706 10.618-15.088 10.618-15.088.021-5.756-.874-10.426-2.378-14.242l3.964-.913-1.765-1.904 3.401-.774zM-13.022-.141c.587 0 1.062.868 1.062 1.938 0 1.07-.476 1.938-1.062 1.938-.586 0-1.062-.868-1.062-1.938 0-1.07.475-1.938 1.062-1.938zm-5.437 14.75c-.587 0-1.062-.434-1.062-.969 0-.535.476-.969 1.062-.969.586 0 1.062.434 1.062.969 0 .535-.475.969-1.062.969zm4.375.968c-.587 0-1.062-.434-1.062-.969 0-.535.476-.969 1.062-.969.586 0 1.062.434 1.062.969 0 .535-.475.969-1.062.969zm1.062 4.782c9.438-8.625-1.062-13.625-1.062-13.625s6.625-2.5 8.375 4.125-7.313 9.5-7.313 9.5zm7.313-14.135c-.587 0-1.062-.868-1.062-1.938 0-1.07.476-1.938 1.062-1.938.586 0 1.062.868 1.062 1.938 0 1.07-.475 1.938-1.062 1.938zm10.75-19.74c10.991-3.274 16.5 0 16.5 0v2.125c-7.625-3-16.5 0-16.5 0zm-6.125 11.5s-3-5.125-1.875-7.375 7.75 2.125 8.5 2.5-4-.75-6.625 4.875zm26.226 16.107L7.215 27.987l5.696-9.31-5.696-.104 5.83-10.09H4.377L13.34-7.123h11.654l-5.827 9.711 7.77-.149-8.517 11.652z" fill="#00afec"/><circle stroke-miterlimit="10" cx="13.308" cy="-21.061" r="7.37" fill="#00afec" stroke="#fff"/><path d="M15.656-17.488c-.408.229-1.104.456-1.87.456-1.189 0-2.256-.479-2.927-1.367a3.377 3.377 0 0 1-.672-1.56h-.779v-.852h.66v-.203c0-.12.012-.24.012-.36h-.67v-.852h.802a3.637 3.637 0 0 1 .828-1.631c.672-.779 1.631-1.235 2.771-1.235.72 0 1.367.168 1.8.36l-.337 1.367a3.604 3.604 0 0 0-1.343-.288c-.564 0-1.09.204-1.463.647-.18.192-.3.468-.384.779h2.986v.852h-3.166c-.012.12-.012.24-.012.372v.191h3.178v.852h-3.01c.084.36.216.636.396.84.384.432.947.611 1.547.611.552 0 1.116-.18 1.367-.312z" fill="#fff"/></svg>