<svg xmlns="http://www.w3.org/2000/svg" width="65" height="66" viewBox="-0.963 -0.637 65 66" overflow="visible"><ellipse fill="#FFF" cx="32.217" cy="31.998" rx="30.342" ry="30.586"/><g fill="#6E7072"><path d="M52.83 8.508a.123.123 0 0 0 .07-.024c-.041-.002-.061.008-.07.024zM39.344 1.031l.185.013c-.118-.024-.165-.023-.185-.013zM58.592 15.693c-.012-.009-.015-.006-.025-.011l.321.562-.296-.551zM8.565 10.263l.143-.158c-.065.07-.113.111-.143.158zM25.792.716c-.055.04-.155.072-.252.103.126-.023.225-.051.252-.103zM59.486 20.568l-.007-.268c-.036.02-.04.118.007.268zM61.996 29.166c.006-.008.012-.01.02-.025-.011-.013-.016.002-.02.025zM61.842 25.596l-.095-.242c.025.106.055.241.095.242zM61.698 25.24l.049.114c-.018-.066-.033-.12-.049-.114zM63.723 33.489c.014-.274-.047-.51-.102-.757l.102.757zM.875 38.851L.824 38.8c.025.053.04.058.051.051zM62.907 33.119l.027-.188a.843.843 0 0 0-.027.188zM57.128 16.494c-.211-.17-.398-.67-.476-.616.164.216.302.58.476.616zM6.096 43.618l.071.149a1.287 1.287 0 0 0-.071-.149zM62.907 33.119l-.03.218c.019-.018.033-.042.049-.063a.664.664 0 0 1-.019-.155zM20.848 62.259l-.01-.004-.066-.007zM22.409 62.969l-.357-.086c.181.07.282.086.357.086zM63.621 32.732l-.068-.43c.009.155.037.295.068.43zM40.565 63.257l-.159.056a.824.824 0 0 0 .159-.056zM27.057.538l.148-.004c.012-.024 0-.037-.148.004zM16.774 7.059l-.003.001.001.002zM17.237 6.637c-.178.078-.375.284-.463.422a1.67 1.67 0 0 0 .463-.422zM15.647 7.749l.065-.032a.328.328 0 0 0-.065.032zM27.029 3.203l-.002-.01-.006.01zM24.657 3.757a.734.734 0 0 0-.173.004.57.57 0 0 0 .173-.004zM11.22 11.915l-.002-.004-.007.009z"/><path d="M3.978 32.797c-.142-2.244-.037-5.205.551-7.38-.075-.519.094-1.219.265-1.919l.266.001.104-.593c.148-.207-.095.452.128.074l-.081-.264c.096-.019.574-1.42.405-.42a29.66 29.66 0 0 1 .865-2.134c.224-.458-.074-.364.233-.845.118-.069-.044.206.059.204.925-1.415.459-1.981 1.411-3.282l-.044.131c.091-.265.383-.693.359-.717-.332.026-.043.316-.438.641-.159-.153.236-.575.082-.64.28-.267.299-.523.485-.799.432-.381.854-1.075 1.252-1.298.122-.253.15-.632.539-1.083.409-.206.053.18.487-.207l-.03-.153c.336-.335.311-.256.342-.203.355-.359.164-.429.673-.819l-.165.336c.299-.364.447-.487.932-.923.039.063-.154.238-.309.353.386-.104.384-.475.544-.586-.079-.007-.428.286-.349.042.254-.202.402-.594.677-.634l-.187.326c.446-.521.169-.361.798-.824-.026.034.009.045.012.076.281-.439.881-.726 1.478-1.142l-.092.108c.209-.209.282-.39.417-.475-.384.18-.312.084-.413.007.573-.146.556-.689 1.397-1.075.025.07-.114.257-.364.33-.141.352-.077.515-.467.909.247-.237.569-.477.546-.357l-.021-.224c.168-.12.313-.195.446-.279.009-.153-.465.051-.102-.275.428-.345.351.019.377-.102.603-.446.153-.35.814-.646-.055.049-.16.148-.224.163.486-.188 1.098-.644 1.342-.499-.044.082-.024.152-.204.225l-.01-.035c-.417.417.394-.262.337.013-.093-.096.561-.396.866-.507l-.155-.088c.799-.853.066.28 1.013-.203.583-.355-.251.061.089-.195.434-.151.637-.099 1.239-.393.194-.012.577-.062.659.081.357-.2 1.18-.309 1.354-.523-.701.066-.604.359-1.432.417l.162-.227c.533-.17 1.196-.46 1.586-.503-.083-.01-.129-.04-.09-.086.757-.269.946-.48 1.725-.601.131.123-.323.191-.643.282.517.003.513-.117 1.29-.218.064.119-.517.09-.579.236l.836-.207c-.002.008.003.017.004.026.087-.229.65-.1 1.162-.23 1.237-.159 1.401-.451 2.091-.672.192.045.25.097.174.155-.316-.075-.256-.004-.36.058.425-.053.938.156.707.253.667-.087-.247-.103.16-.185.307-.009.614-.014.921-.01-.109-.108-.438-.128.042-.217.405-.038.601-.007 1.13.008-.078.052.161.168-.234.154.253.043.649.069.808-.033-.573-.13.953-.041.533-.232l.572.143c-.133-.013-.152.055-.346.021.151.176.477-.005.681-.004.202.047.726.128.762.195.188-.027.626.077.696.171.273.005.037-.104.124-.146l.912.169c.031.1.06.365-.082.373.356-.017.172-.244.688-.133-.33.109.649.284.179.397.266.188 1.09.379 1.553.465.318-.059-.469-.211-.404-.343 1.29.297 1.488-.044 2.403.335l-.225-.127c.608.13.538.119.918.133-.221.11.486.687 1.413 1.059.116-.048-.446-.385-.24-.45l.628.248c.039.032-.041.03-.13.016.579.191.911.688 1.158.58l.42.514-.16-.213c.114-.04.723.252.859.295.651.251.826.456 1.087.748-.062-.125-.229-.43.247-.163-.155.237.899.711.801.83.183.122.446.418.537.334l-.135.126c.188-.18.829.3 1.338.644-.32.181.543.399.549.815.241-.108.878.637 1.088.566.354.312.17.441.206.575l.219.086c.097.241.709.871 1.005 1.306l.48.218.051.198c.09.022.38.307.271.067l.165.207c.187-.132.288.241.699.59.049.119-.014.127-.108.056.163.208.003.191.033.35-.069-.188.905.5.545-.125.044-.097.353.197.479.431l-.065.249.355.128c.268.316.26.536.429.823-.204-.275-.743-.396-.248.314-.279-.361-.498-.48-.671-.644.098.149.134.232-.099.058.444.508.231.11.633.643-.169.07-.11.256.149.773l-.124-.434a.203.203 0 0 1 .086.042c-.074-.149-.076-.203-.038-.271.068.111.615.526.577.683-.115-.729.803.893.721.438.084.041.336.444.278.533-.396-.425.029.472-.128.453.146.158-.097-.451.1-.237.175.287.194.558.229.75l-.095-.108.167.494c.119.035-.097-.514.166-.113.024.129.276.538.205.555-.212-.148-.287.072-.491-.275.164.289.632 1.243.603.783l.163.366c-.035-.258-.209-.96.153-.236l-.036.009.353.459.012.263c.04-.025.115.04.189.236-.029.071.024.262-.049.273.234.558.293.482.373.537.132.314.141.445-.015.334.138.442.414 1.202.412 1.532.253.57.001-.133.221.179-.14.599.423 2 .64 2.993.219-.322.086.264.361.405-.12-.2-.055.985-.274.123l.115.529c-.09.385-.255-.86-.37-.279.104.587.456.939.434 1.66-.217-.217.119.538-.113.382-.082-.14-.081-.336-.12-.533l-.023.126c.066 1.312.269.356.458 1.037.076.807-.114.645-.204.696-.034.127.013.528.07.739-.137-.485.089-.912.221-.692-.203.364.017 1.199.104 1.422.219-1.166.006-.801.203-1.908-.084-.147-.268-.108-.245-.766.135.401.108-.038.131-.158-.102.137-.089-.449-.163-.643.072-.193.309.364.279-.308l-.283-.092c.005-.263.212.085.071-.458.179.279.209-.122.347.626.115-.932-.313-1.365-.54-2.03.03.067.067.068.098.135-.099-.135-.142-.402-.2-.601-.036-.466.195.333.241.202l-.162-.735c.005-.017.009-.021.015-.022-.076-.187-.148-.361-.099-.445.137.198.247.264.348.397l-.367-.731c.111.062-.018-.672.19-.142-.114-.377-.224-.754-.351-1.127l.146-.148c-.111-.263-.147-.26-.073.072-.063-.409-.856-1.6-.451-1.516-.46-.821-.518-1.157-1.052-2.147.505.723-.211-.991.236-.187-.155-.522-.376-.544-.592-.908-.104-.39.132-.313.384.047l-.299-.418.036-.008-.292-.346c-.131-.458.118-.174-.089-.612l-.192-.015-.076-.332c-.006.144-.169-.092-.359-.387l.035-.012-.241-.352c.3.312-.171-.351.025-.244-.188-.313-.186-.324-.572-.859l-.029.157c-.551-.664.122-.123-.262-.705l-.08.107c-.395-.95-1.086-1.311-1.439-1.967.287.313.337.139.303.154-.426-.478-1.081-1.293-1.643-1.674-.029-.301-.022-.386-.44-.934-.354-.349-.425-.383-.613-.422-.29-.391-1.029-.918-.96-1.031-.152.004-.308-.304-.569-.406l-.008-.079-.051.124c-.469-.771-1.206-.789-1.746-1.492l.14.06-.321-.174c-.015-.079.125-.02.182-.068-.45-.339-.912-.662-1.379-.978l.225.264c-.306-.186-.576-.206-.876-.488.673.194-.472-.302-.494-.477l.338.144c-.433-.245-.433-.245-.462-.113-.579-.279-.262-.432-.849-.598l.367.209c.07.127-.241.064-.488-.068-.049-.048-.198-.192-.002-.105-.465-.199-1.115-.595-1.34-.641-.23-.153-.111-.197.037-.164-1.029-.354-.433-.234-1.475-.561l.045-.06-.377-.063-.441-.335.146.156c-.337-.117-.562-.148-.94-.324l.193-.044c-.967-.277-1.05-.548-2.014-.675-.059-.036.095-.03.174-.025-.901-.073-.601-.367-1.521-.381.062-.022-.023-.089.018-.11l-.415-.02.062-.134-.37.137-.217-.196-.17.038c-.377-.357-1.023-.261-1.587-.547l.077.195c-1.529.151-3.418-.572-5.26-.354l.03-.145-.748.196c-.41-.099.237-.134.108-.203-.804.119-.327.226-1.257.333-.485-.052.157-.126.379-.188-.874.126-2.147.365-2.772.389-.011.022-.045.053-.012.056-.567.154-1.334.237-1.962.389 0-.068.155-.113.309-.161-.228.041-.55.063-.727.179l.208-.179c-.492.087-1.387.447-1.533.338.073.037.078.148-.334.265-.295-.148-1.087.436-1.77.56.06-.077.532-.257.397-.211-.346.058-.604.263-.861.437l.055-.116c-.486.228-.966.468-1.437.723-.313-.115-1.355.668-1.325.479-.516.25.473-.127-.164.219-.216 0-.558.341-.599.199l.061-.051-.442.249.215-.275c-.375.23-.58.519-.546.621-.399.132-.867.492-1.094.48l.111-.11c-.954.653-1.838.727-2.44 1.47-.067.024-.082-.009.035-.093l-.582.428.072-.19c-.285.285-.562.578-.834.872l-.034-.065c-.63.478-1.53 1.329-2.231 2.063l.084-.13c-.704.862-.801.716-1.295 1.366a.19.19 0 0 1 .035-.083l-.482.549.054-.167c-.243.503-1.151 1.061-.839.885-.141.282-.401.748-.382.875-.474.638-.195.097-.535.458-.346.464-.302.617-.793 1.228l-.052-.053-.53.969.051-.147c-.305.783-.724.782-.765 1.506-.226.273-.484.883-.601.788a54.897 54.897 0 0 0-1.016 2.685c-.279.064-.074.206-.418.74l.135.002c-.497 1.351-1.285 2.863-1.574 4.454l-.133.015.069.344C.335 27.075.035 29.309 0 30.691c.048.457.184 1.142.153 1.856l-.019-.076.343 3.904c-.065-.076-.084.062-.139-.084.182.302.117.791.164 1.08l.039-.353c.18.363.159.927.108 1.138l.254.573c-.003.043-.01.108-.028.12l.088.092-.095.354c.069.141.299.919.525 1.119-.039.07.067.634-.077.215.183.723.385 1.44.619 2.149l-.059-.35c.109-.081.397.524.468.866-.256-.389-.183.026-.202.243.171.261.012-.287.134-.161.209.329.552 1.055.58 1.262l-.136-.19c.247.457.134.767.362 1.227.283.375.354.718.506.536.332.572-.02.295.056.497.232.232.611 1.076.578 1.234.446.16.812 1.6 1.123 1.566l.17.539c.069-.024.264-.025.538.32.17.386.014.375.026.522l.381.068c1.156 2.128 3.46 4.338 5.349 6.176.948.707 2.207 1.492 3.346 2.249l-.147-.052c.37.266.746.522 1.126.774-.262-.207-.528-.405-.784-.618.267.134.495.204.738.355 1.219.858 2.966 1.886 4.747 2.409 1.223.121.652.538 1.812.685-.102-.004-.148.027-.242.029 1.209.272 1.875.393 3.111.482-.202.275.784.155.646.289l.123-.104c.252.132.885.258.78.333l.56-.071.028.133c.713.124 2.259.163 2.624.431 1.8-.064 4.614-.084 6.846-.4.296-.153.939-.27 1.438-.383l.565.035c.502-.157.99-.476 1.481-.51 0 .018-.016.035-.045.053.501-.166 1.008-.234 1.434-.521.553-.166 1.108-.287.989-.093-.03-.249 1.165-.396 1.166-.401-.01-.016 1.783-.6 4.331-2.043 2.543-1.43 5.786-3.84 8.481-7.085 2.725-3.213 4.817-7.222 5.858-10.9 1.074-3.681 1.163-6.942.897-8.725-.114-.246-.173-.904-.329-.657-.039-.505.183-.735.06-.835-.092.685-.32-.211-.483.453l-.025-.425c-.088-.088.093.579-.066.473l.231.124c-.039.345-.102.533-.184.651.08.325.386.553.19 1.321l.004-.215c-.046.632-.184.374-.233.501l.015-.138-.166.517c.118-.393-.017-1.068-.032-.721-.13.738.074-.188.053.372-.018.349-.134.239-.204.217l-.062.619c-.104-.034.053-.408-.087-.171l.015.791c-.287.104.003.866-.317 1.176.035-.564-.098.033-.171-.07-.076.45-.162.898-.257 1.345-.064.118-.007-.369-.037-.163-.126.234-.03.426-.063.562-.096.099-.251.99-.419.906-.373.853.122.44-.236 1.235-.138.075.182-.661-.041-.33l-.239.861c-.023-.094-.11-.221.013-.53-.91 2.244-1.971 3.162-2.858 5.115-.262.2.029-.233.057-.463-.603 1.448-1.341 1.74-2.064 2.821l.075.082c-1.316 1.298-2.589 3.089-4.2 4.387l.23-.112c-.132.272-.466.589-.688.85-.077-.009.034-.331-.39.089.118-.05.337-.184.314-.095-.76.477-1.855 1.301-3.133 2.105-1.27.814-2.729 1.591-4.066 2.124-3.517 1.712-7.763 2.405-11.563 2.462.582-.016.34.255-.104.198-1.191-.457-2.095.022-3.291-.42-2.239-.116-4.07-.952-6.118-1.3l.005-.134c-.27-.159-.379-.1-.686-.206l.021-.03c-.696-.312-1.595-.563-1.965-.812l-.086.118c-.418-.183-.167-.198-.621-.334l.044-.058-.546-.127c.162-.194-1.124-.628-1.373-.928-.528-.26-1.532-.779-2.223-1.355-.062-.198-.934-.861-1.42-1.364-1.063-.839-2.489-2.173-3.554-3.537l-.105.129-.297-.343c.032-.019.009-.078.065-.035-.075-.387-.691-.784-.812-1.149.013.273.17.268.322.476.164.343-.179.158-.417-.294l.035-.014-.271-.228c.081-.106-.053-.393.03-.499-.864-1.2-1.579-1.962-2.235-3.36.196.079-.52-.977-.16-.807-.471-.795-.117.224-.453-.085-.107-.236-.279-.459-.212-.539.103.087.055-.253.159-.069l-.259-.561c-.004-.062.079.051.119.107-.612-1.111-.64-2.131-1.092-3.163-.109-.055.103.436-.007.383-.491-1.044-.122-1.006-.492-2.003l.169.186c-.156-.312-.298-.437-.308-1.008.123-.123.208.443.335.691-.083-.374-.295-1.32-.371-1.006-.13-.447-.023-.636-.026-.886-.037-.003-.026.439-.137.183-.018-.633-.139-1.595-.182-2.362.036.005.087-.053.109.013-.224-.596.096-.551.026-1.389z"/><path d="M27.344 3.171l-.315.031c.006.032-.001.071-.138.133l.453-.164zM13.845 9.257c-.022.034-.046.066-.062.102.055-.053.064-.082.062-.102zM11.365 11.917c.158-.207-.032-.071-.146-.002.018.024.048.043.146.002zM35.832 2.597c-.057.007-.094.022-.088.054.078-.018.096-.035.088-.054zM55.666 14.324l-.039-.088c.001.02.017.051.039.088zM55.038 13.146a1.426 1.426 0 0 0-.187-.194c.07.095.133.152.187.194zM30.094 2.504a.72.72 0 0 0-.245.064.637.637 0 0 0 .245-.064zM54.65 12.763l-.203-.263c-.008.005-.016.006-.024.014l.227.249zM55.896 14.672c-.072-.107-.174-.25-.229-.348a.949.949 0 0 0 .229.348zM44.261 4.766l-.034-.011c-.263-.047-.104-.006.034.011zM53.506 11.847l-.027-.037-.094-.043zM56.652 15.877a.591.591 0 0 0-.111-.123l.088.166c.006-.025.014-.036.023-.043zM48.496 7.382c.107.007.158-.004.177-.025-.094-.06-.166-.078-.177.025z"/></g><path fill="#6E7072" d="M53.858 23.15l2.095-.42-4.381-.724.895.965-2.806.328 1.056 1.097-.599.126c-5.384-10.09-18.298-8.914-21.479-8.165-5.541 1.308-9.723 3.35-9.723 3.35-3.35-1.878-4.494-.98-4.494-.98-.735 2.615.817 5.476.817 5.476-2.86 3.104-2.451 7.38-2.451 7.38-1.552.273-3.268 2.422-2.614 5.772.654 3.352 4.983 3.352 4.983 3.352 1.39 2.777 3.187 3.92 3.187 3.92l.246 4.576 2.532.164.082-2.859.736.326.327 4.248h3.595l-.327-2.777s-8.906-.082 8.251 0a32.386 32.386 0 0 0 3.096-.135c.195-.018.379-.047.568-.068l.299 1.08h2.859l-.215-1.598a19.787 19.787 0 0 0 2.257-.686l.368 3.244s2.941.082 2.941.051c0-.018-.227-3.787-.404-4.691 6.188-3.729 6.939-9.861 6.939-9.861.015-3.762-.57-6.814-1.553-9.307l2.59-.598-1.152-1.245 2.223-.506-.744-.835zm-37.434 3.42c.383 0 .695.567.695 1.267 0 .698-.312 1.266-.695 1.266s-.694-.567-.694-1.266c-.001-.7.311-1.267.694-1.267zm-3.554 9.641c-.383 0-.694-.283-.694-.635 0-.348.311-.631.694-.631.384 0 .694.283.694.631 0 .352-.31.635-.694.635zm2.859.635c-.383 0-.694-.285-.694-.635s.311-.635.694-.635c.384 0 .694.285.694.635s-.309.635-.694.635zm.695 3.123c6.169-5.637-.694-8.905-.694-8.905s4.33-1.635 5.474 2.696c1.143 4.33-4.78 6.209-4.78 6.209zm4.779-9.239c-.383 0-.694-.567-.694-1.266 0-.699.311-1.267.694-1.267.384 0 .695.567.695 1.267 0 .699-.311 1.266-.695 1.266zm7.026-12.901c7.185-2.141 10.785 0 10.785 0v1.389c-4.983-1.961-10.785 0-10.785 0v-1.389zm-4.002 7.516s-1.961-3.351-1.226-4.82c.735-1.472 5.065 1.388 5.556 1.633.49.246-2.615-.49-4.33 3.187zm17.142 10.528l-11.718 9.082 3.724-6.084-3.724-.068 3.81-6.594h-5.666l5.859-10.202h7.617l-3.809 6.348 5.077-.097-5.565 7.616h4.395z"/><circle fill="#6E7072" stroke="#6E7072" stroke-miterlimit="10" cx="33.633" cy="12.897" r="4.817"/><path fill="#FFF" d="M35.168 15.233a2.647 2.647 0 0 1-1.223.297c-.777 0-1.474-.313-1.913-.893a2.21 2.21 0 0 1-.439-1.021h-.509v-.556h.431v-.133c0-.078.007-.157.007-.235h-.438v-.556h.524c.095-.425.29-.783.541-1.065.439-.51 1.066-.811 1.811-.811.471 0 .893.111 1.176.237l-.219.894a2.35 2.35 0 0 0-.879-.188c-.369 0-.713.133-.957.423-.117.124-.195.306-.25.51h1.951v.556h-2.068c-.008.078-.008.157-.008.242v.126h2.077v.556h-1.967c.056.236.141.417.258.55.252.282.621.399 1.012.399.36 0 .729-.117.895-.204l.187.872z"/></svg>