<svg xmlns="http://www.w3.org/2000/svg" width="64" height="65" viewBox="-0.075 -0.456 64 65" overflow="visible"><ellipse fill="#FFF" cx="32.216" cy="31.998" rx="30.342" ry="30.586"/><g fill="#6E7072"><path d="M52.829 8.508a.12.12 0 0 0 .07-.025c-.04-.001-.06.009-.07.025zM39.344 1.031l.185.013c-.118-.024-.166-.023-.185-.013zM58.591 15.693c-.012-.008-.015-.006-.024-.011l.321.562-.297-.551zM8.566 10.263l.143-.158c-.066.07-.113.111-.143.158zM25.792.717a.98.98 0 0 1-.252.102c.126-.023.225-.051.252-.102zM59.485 20.568l-.007-.268c-.036.02-.04.118.007.268zM61.995 29.166c.006-.008.012-.01.02-.025-.01-.013-.016.002-.02.025zM61.841 25.596l-.095-.242c.025.106.055.241.095.242zM61.697 25.24l.049.114c-.017-.066-.033-.119-.049-.114zM63.722 33.49c.014-.274-.047-.511-.102-.758l.102.758zM.875 38.85l-.051-.051c.025.053.04.059.051.051zM62.906 33.119l.027-.188a.843.843 0 0 0-.027.188zM57.127 16.494c-.21-.17-.398-.67-.476-.617.164.217.302.581.476.617zM6.096 43.617l.07.149a1.32 1.32 0 0 0-.07-.149zM62.906 33.119l-.03.218c.019-.018.033-.041.049-.063a.664.664 0 0 1-.019-.155zM20.847 62.258l-.009-.004-.066-.006zM22.408 62.967l-.357-.085c.181.07.283.086.357.085zM63.62 32.732l-.068-.429c.009.154.037.294.068.429zM40.564 63.256l-.159.056a.761.761 0 0 0 .159-.056zM27.057.538l.148-.004c.012-.024 0-.037-.148.004zM16.774 7.059l-.003.002.001.001zM17.238 6.637c-.178.079-.376.285-.463.422.164-.103.305-.219.463-.422zM15.647 7.749l.066-.032a.311.311 0 0 0-.066.032zM27.029 3.203l-.002-.01-.006.01zM24.657 3.757a.684.684 0 0 0-.173.004.57.57 0 0 0 .173-.004zM11.22 11.915l-.001-.004-.008.009z"/><path d="M3.978 32.796c-.142-2.244-.037-5.205.552-7.38-.075-.519.094-1.219.264-1.919l.266.001.104-.593c.148-.206-.095.452.128.074l-.081-.265c.096-.019.574-1.42.405-.42.261-.722.55-1.434.865-2.134.225-.458-.074-.364.234-.845.117-.07-.044.206.059.203.925-1.415.459-1.981 1.412-3.282l-.045.134c.09-.265.382-.693.358-.717-.332.025-.043.316-.438.641-.158-.153.237-.575.082-.64.28-.267.299-.523.485-.799.433-.381.854-1.075 1.253-1.298.122-.253.149-.632.539-1.083.409-.206.053.18.487-.207l-.03-.153c.336-.335.311-.257.343-.203.355-.359.164-.429.672-.819l-.164.336c.299-.364.447-.487.932-.923.039.063-.155.238-.309.354.386-.104.384-.475.544-.587-.079-.007-.428.286-.349.042.254-.202.402-.594.676-.634l-.187.326c.446-.521.169-.361.799-.824-.026.034.009.045.012.076.281-.439.88-.726 1.477-1.142l-.091.109c.209-.21.282-.39.416-.476-.383.18-.312.085-.413.008.573-.146.556-.69 1.397-1.075.025.07-.114.258-.364.33-.141.351-.078.514-.468.908.247-.237.569-.477.546-.357l-.021-.224c.168-.12.314-.195.446-.278.009-.153-.465.05-.102-.275.428-.345.351.019.377-.102.603-.446.153-.349.814-.646-.055.05-.16.148-.224.163.486-.188 1.098-.644 1.342-.499-.044.082-.023.152-.204.225l-.01-.036c-.416.417.394-.262.337.013-.093-.096.561-.396.866-.507l-.155-.088c.8-.853.066.28 1.013-.203.583-.355-.251.062.09-.195.434-.151.636-.098 1.238-.393.194-.012.577-.062.659.081.357-.2 1.18-.309 1.354-.523-.701.066-.604.359-1.432.417l.162-.227c.533-.17 1.196-.46 1.586-.503-.083-.01-.129-.04-.09-.085.757-.269.946-.481 1.725-.601.131.123-.323.191-.643.282.517.003.513-.117 1.29-.218.064.119-.517.09-.579.236l.836-.208c-.002.008.003.017.004.026.087-.229.65-.1 1.162-.23 1.237-.159 1.401-.45 2.091-.672.192.045.25.097.174.155-.316-.075-.256-.004-.36.058.425-.053.938.156.707.253.666-.087-.248-.103.16-.185.307-.009.614-.014.921-.01-.109-.108-.438-.128.042-.217.405-.038.601-.007 1.13.008-.078.052.161.168-.234.154.254.043.649.069.808-.033-.572-.13.954-.041.534-.232l.572.143c-.133-.013-.152.055-.346.021.151.176.477-.005.681-.004.201.047.726.128.762.195.187-.027.625.077.695.171.274.005.038-.104.125-.146l.912.169c.031.1.06.365-.082.373.356-.017.172-.244.688-.133-.33.109.649.284.179.397.266.188 1.09.379 1.552.465.318-.059-.468-.211-.403-.343 1.29.297 1.488-.044 2.402.335l-.225-.127c.608.13.538.119.918.133-.221.11.486.687 1.413 1.059.115-.048-.446-.385-.24-.45l.628.248c.038.032-.042.03-.13.016.578.191.91.688 1.158.58l.42.514-.161-.213c.115-.04.724.252.86.296.651.251.826.456 1.086.748-.062-.125-.229-.43.247-.163-.155.237.9.711.801.83.183.122.446.418.537.334l-.135.126c.189-.18.83.3 1.339.645-.32.181.543.399.548.815.241-.108.878.637 1.088.566.355.312.171.441.206.575l.219.086c.097.242.709.871 1.006 1.306l.479.218.051.198c.09.022.38.307.272.067l.165.207c.186-.132.287.241.699.59.048.119-.014.127-.109.056.163.208.003.192.033.35-.069-.188.905.501.545-.125.044-.098.353.197.479.431l-.064.248.355.128c.269.316.261.536.429.822-.204-.275-.743-.396-.248.315-.279-.362-.498-.481-.671-.644.099.149.134.232-.098.058.443.508.23.11.632.643-.169.07-.11.256.15.774l-.125-.435a.194.194 0 0 1 .086.043c-.074-.149-.075-.204-.037-.272.067.111.614.526.576.683-.115-.728.803.893.722.439.083.041.335.444.277.533-.396-.425.029.472-.128.453.146.159-.097-.451.1-.237.175.287.194.558.229.75l-.095-.108.167.494c.119.035-.096-.514.167-.113.023.129.275.538.204.555-.211-.148-.287.072-.491-.275.164.289.633 1.244.603.783l.163.366c-.035-.258-.209-.96.153-.236l-.036.008.353.46.012.262c.04-.025.115.04.19.236-.03.071.023.262-.05.273.234.558.293.483.373.537.132.314.141.445-.015.334.138.442.414 1.203.412 1.532.253.57.001-.133.221.179-.14.6.423 2 .64 2.993.219-.321.086.264.361.405-.12-.2-.055.985-.274.122l.115.529c-.09.385-.255-.86-.37-.279.104.587.456.939.434 1.66-.217-.217.119.538-.113.382-.082-.14-.081-.336-.12-.533l-.023.126c.066 1.312.269.355.458 1.036.076.807-.114.645-.204.696-.034.127.013.528.07.739-.137-.485.089-.912.221-.691-.203.363.017 1.198.104 1.422.219-1.166.006-.801.203-1.908-.084-.147-.268-.108-.245-.766.135.401.108-.038.131-.158-.102.137-.089-.449-.163-.643.072-.193.309.364.279-.308l-.283-.092c.005-.263.212.085.071-.458.179.279.209-.122.347.626.115-.932-.313-1.365-.54-2.03.03.067.067.068.098.135-.099-.135-.141-.402-.2-.601-.036-.466.195.333.241.202l-.162-.735c.005-.017.009-.021.015-.022-.076-.186-.148-.361-.099-.445.137.198.247.264.348.397l-.367-.73c.111.062-.018-.673.19-.142-.113-.377-.224-.754-.351-1.127l.146-.148c-.111-.263-.147-.259-.073.072-.063-.409-.856-1.6-.451-1.516-.46-.821-.518-1.157-1.052-2.147.505.723-.211-.992.236-.187-.155-.522-.375-.544-.592-.908-.104-.39.133-.313.384.046l-.299-.418.037-.008-.293-.345c-.131-.458.118-.174-.089-.612l-.192-.015-.076-.332c-.006.144-.169-.093-.359-.387l.035-.012-.241-.351c.301.312-.171-.351.026-.245-.188-.313-.187-.324-.573-.859l-.029.157c-.55-.664.122-.123-.262-.705l-.08.107c-.395-.95-1.086-1.311-1.439-1.967.288.313.338.139.303.153-.425-.478-1.081-1.292-1.643-1.674-.029-.301-.021-.386-.44-.934-.354-.348-.425-.383-.613-.422-.29-.391-1.029-.918-.96-1.031-.152.004-.308-.305-.569-.407l-.008-.078-.051.124c-.468-.771-1.205-.789-1.746-1.492l.141.06-.321-.174c-.015-.079.124-.02.181-.068a32.027 32.027 0 0 0-1.379-.978l.225.264c-.307-.186-.576-.206-.876-.488.673.194-.473-.302-.494-.478l.338.144c-.434-.245-.433-.245-.463-.113-.578-.279-.261-.432-.849-.598l.368.209c.069.127-.241.064-.489-.068-.049-.048-.198-.192-.001-.105-.466-.199-1.116-.595-1.341-.641-.229-.153-.111-.197.038-.164-1.029-.354-.433-.234-1.476-.561l.046-.059-.378-.062-.44-.335.145.156c-.336-.117-.562-.147-.939-.324l.193-.044c-.967-.277-1.05-.548-2.014-.675-.059-.036.095-.03.173-.025-.901-.073-.6-.367-1.521-.381.062-.022-.022-.089.019-.11l-.415-.02.062-.134-.37.137-.217-.196-.17.038c-.377-.357-1.023-.261-1.587-.547l.077.195c-1.529.151-3.418-.572-5.26-.354l.03-.145-.748.196c-.41-.1.237-.135.107-.204-.804.12-.326.226-1.256.333-.485-.052.157-.125.379-.188-.874.126-2.147.365-2.772.389-.011.022-.045.053-.013.056-.566.154-1.334.237-1.962.389 0-.068.155-.113.309-.161-.228.041-.55.063-.727.179l.208-.179c-.492.087-1.387.447-1.533.338.073.037.078.148-.334.265-.295-.148-1.087.436-1.77.56.06-.077.532-.256.397-.211-.346.058-.604.263-.861.437l.055-.116c-.486.228-.966.468-1.436.723-.314-.115-1.356.668-1.326.479-.516.25.473-.127-.163.219-.217 0-.559.341-.599.199l.06-.051-.442.249.215-.275c-.375.23-.58.519-.547.621-.399.132-.867.491-1.093.48l.111-.111c-.954.654-1.839.727-2.44 1.47-.066.024-.082-.009.036-.093l-.582.428.072-.189c-.285.285-.562.578-.834.872l-.034-.065c-.63.478-1.531 1.329-2.231 2.063l.084-.13c-.704.862-.8.716-1.294 1.367a.185.185 0 0 1 .035-.083l-.482.549.054-.167c-.242.503-1.151 1.061-.839.885-.141.282-.401.748-.382.875-.474.638-.195.096-.535.458-.346.464-.302.617-.792 1.228l-.052-.053-.53.969.051-.147c-.305.783-.724.781-.765 1.506-.226.273-.484.883-.6.788a53.89 53.89 0 0 0-1.016 2.685c-.279.064-.074.207-.418.74l.135.002c-.497 1.351-1.285 2.863-1.574 4.454l-.135.014.069.344c-.42 1.68-.72 3.914-.755 5.296.048.457.184 1.142.153 1.857l-.019-.076.343 3.904c-.065-.076-.084.062-.139-.084.182.302.117.791.164 1.08l.039-.353c.18.363.159.927.108 1.138l.254.573c-.004.043-.01.108-.028.12l.088.092-.095.354c.069.142.298.92.525 1.12-.039.07.067.634-.077.215.183.723.385 1.44.619 2.149l-.059-.35c.109-.081.397.524.468.866-.256-.389-.183.026-.202.242.171.262.012-.286.134-.16.209.329.552 1.055.58 1.262l-.136-.19c.247.457.134.767.362 1.227.283.375.354.718.506.536.332.572-.021.295.056.497.232.231.611 1.076.578 1.233.446.161.812 1.601 1.123 1.566l.17.54c.069-.025.264-.026.538.319.169.387.014.376.026.522l.381.069c1.156 2.127 3.459 4.337 5.349 6.176.948.707 2.207 1.491 3.346 2.249l-.147-.053c.37.267.746.523 1.126.774-.263-.206-.529-.404-.784-.617.267.134.495.204.738.355 1.219.858 2.967 1.886 4.747 2.409 1.223.121.652.538 1.812.684-.102-.003-.148.027-.242.029 1.209.272 1.875.394 3.111.483-.202.275.784.155.646.289l.123-.104c.252.132.885.258.78.332l.56-.07.028.133c.713.124 2.259.163 2.624.431 1.8-.063 4.614-.084 6.845-.4.296-.153.939-.27 1.438-.383l.566.035c.502-.157.99-.475 1.48-.51.001.018-.015.035-.045.053.502-.166 1.009-.234 1.435-.52.553-.167 1.107-.288.988-.093-.03-.25 1.166-.396 1.167-.402-.01-.016 1.782-.6 4.331-2.043 2.542-1.43 5.785-3.84 8.48-7.085 2.725-3.213 4.817-7.221 5.858-10.9 1.074-3.681 1.163-6.941.897-8.724-.114-.246-.173-.905-.329-.657-.039-.505.183-.735.06-.835-.092.686-.32-.211-.483.453l-.025-.425c-.088-.088.093.58-.066.473l.231.124c-.039.346-.102.533-.184.651.08.326.386.554.19 1.322l.004-.216c-.046.633-.184.374-.233.502l.015-.139-.166.517c.118-.393-.017-1.067-.032-.721-.13.739.074-.188.053.373-.018.349-.134.238-.204.216l-.062.62c-.104-.035.053-.408-.087-.171l.015.791c-.287.104.003.866-.317 1.175.035-.564-.098.033-.171-.07-.076.45-.162.898-.257 1.346-.064.118-.007-.37-.037-.164-.126.234-.03.427-.063.562-.096.099-.251.991-.419.906-.373.853.122.44-.236 1.236-.138.075.182-.662-.041-.33l-.239.86c-.023-.093-.11-.221.013-.53-.91 2.245-1.971 3.162-2.858 5.115-.262.201.029-.233.057-.463-.603 1.448-1.341 1.741-2.064 2.822l.075.081c-1.316 1.298-2.589 3.089-4.2 4.388l.23-.113c-.131.272-.466.589-.688.85-.077-.009.034-.331-.39.089.118-.05.338-.184.314-.095-.76.477-1.855 1.301-3.133 2.105-1.27.814-2.729 1.591-4.065 2.124-3.517 1.712-7.764 2.405-11.564 2.462.582-.016.34.255-.104.198-1.191-.457-2.095.022-3.291-.42-2.239-.116-4.07-.953-6.118-1.3l.005-.135c-.27-.158-.379-.1-.686-.205l.021-.03c-.696-.312-1.595-.563-1.965-.812l-.086.118c-.418-.184-.167-.198-.621-.334l.045-.059-.547-.126c.163-.194-1.124-.628-1.373-.928-.527-.261-1.532-.78-2.223-1.355-.062-.198-.933-.862-1.419-1.365-1.063-.838-2.489-2.172-3.554-3.536l-.106.129-.297-.344c.032-.018.009-.077.065-.034-.075-.387-.691-.785-.812-1.149.013.273.17.268.322.476.164.343-.18.158-.417-.295l.035-.014-.271-.228c.081-.105-.053-.393.03-.499-.864-1.199-1.579-1.962-2.235-3.359.196.079-.52-.977-.16-.807-.471-.796-.117.224-.453-.086-.107-.235-.279-.459-.212-.538.103.087.055-.253.159-.07l-.259-.56c-.004-.062.078.051.119.107-.612-1.111-.64-2.131-1.092-3.163-.109-.055.103.436-.007.383-.491-1.044-.122-1.006-.492-2.003l.169.186c-.156-.312-.298-.437-.308-1.008.123-.123.208.443.335.691-.083-.374-.295-1.32-.371-1.006-.13-.447-.023-.636-.025-.886-.037-.003-.026.439-.137.183-.018-.633-.139-1.595-.182-2.362.036.005.087-.053.109.013-.224-.599.096-.553.026-1.392z"/><path d="M27.344 3.171l-.315.031c.006.032-.001.071-.138.134l.453-.165zM13.845 9.257c-.023.034-.046.066-.063.102.056-.053.065-.082.063-.102zM11.365 11.917c.158-.207-.032-.071-.145-.002.017.024.047.043.145.002zM35.832 2.597c-.058.007-.094.022-.088.054.077-.018.096-.035.088-.054zM55.665 14.325l-.039-.088a.273.273 0 0 0 .039.088zM55.037 13.146a1.426 1.426 0 0 0-.187-.194.92.92 0 0 0 .187.194zM30.094 2.504a.72.72 0 0 0-.245.064.637.637 0 0 0 .245-.064zM54.649 12.763l-.202-.263c-.009.005-.017.007-.025.014l.227.249zM55.895 14.672c-.072-.107-.174-.249-.229-.347a.953.953 0 0 0 .229.347zM44.261 4.766l-.034-.011c-.263-.047-.105-.006.034.011zM53.505 11.847l-.026-.036-.094-.044zM56.651 15.877a.589.589 0 0 0-.111-.123l.088.166c.006-.024.014-.036.023-.043zM48.495 7.382c.108.007.158-.004.177-.025-.094-.06-.165-.078-.177.025z"/></g><ellipse fill="#6E7072" cx="32.637" cy="14.366" rx="4.254" ry="4.304"/><path fill="#6E7072" d="M27.592 20.353h9.299s.926.13 1.223 1.121c0 0 1.154 2.935 3.396 4.518 2.244 1.582 5.178 3.135 5.178 3.135s.76 1.517-.164 2.045c-.924.527-1.748.791-4.551-1.122-2.803-1.914-3.895-2.968-3.895-2.968l.035 7.19-.035 19.229s-.229 1.846-2.373 1.88c-2.145.032-2.506-1.715-2.506-1.715l.131-16.559-1.121-.099.032 16.458s0 1.816-2.375 1.914c-2.374.099-2.507-1.781-2.507-1.781V24.74s-1.945 2.11-2.011 5.442c-.068 3.33.264 7.188.264 7.188s-.298 1.188-1.387 1.288c-1.089.099-1.714-.789-1.714-.789s-.957-6.138 0-9.997 2.839-6.398 5.081-7.519z"/><path fill="#6E7072" d="M17.664 32.359s-6.911 2.505-2.559 10.488c0 0 .778.792 1.636.33.856-.463.526-1.518.526-1.518s-2.522-5.227.66-6.729c0 0 1.767-.54 3.893 1.056 3.232 2.426 12.666 4.486 17.152.989 4.486-3.495 8.84-10.555 8.84-10.555s2.979.503 4.43-2.335l.387.225 1.715-3.232-1.123-.725 1.781-3.102s.221-.508-.109-.706c-.33-.197-.633.166-.633.166l-1.83 3.18-3.496-1.914 1.848-3.034s.189-.345-.197-.577c-.293-.175-.604.118-.604.118l-1.904 2.967-1.092-.595-1.877 3.166.463.331s-2.215 2.701.195 4.814c0 0-5.773 8.239-7.652 9.5-3.365 2.26-8.162 2.461-16.292-1.584-.002 0-1.961-1.406-4.158-.724z"/></svg>