<svg xmlns="http://www.w3.org/2000/svg" width="66" height="66" viewBox="-0.694 -0.769 66 66" overflow="visible"><ellipse fill="#FFF" cx="32.48" cy="32.264" rx="30.606" ry="30.852"/><g fill="#6E7072"><path d="M53.269 8.575a.115.115 0 0 0 .07-.025c-.041-.001-.062.009-.07.025zM39.667 1.038l.187.013c-.119-.024-.166-.024-.187-.013zM59.08 15.819c-.011-.008-.015-.006-.024-.011l.324.567-.3-.556zM8.635 10.349l.144-.159c-.067.07-.114.112-.144.159zM26.002.722c-.056.04-.156.072-.255.103.128-.024.228-.052.255-.103zM59.994 20.732l-.009-.271c-.036.021-.039.12.009.271zM62.521 29.407c.007-.008.013-.01.02-.026-.01-.012-.015.003-.02.026zM62.363 25.806l-.095-.244c.026.107.055.243.095.244zM62.219 25.447l.05.115c-.018-.066-.035-.12-.05-.115zM64.249 33.769c.014-.276-.047-.516-.102-.764l.102.764zM.881 39.172L.83 39.12c.024.054.04.061.051.052zM63.435 33.395l.026-.189a.778.778 0 0 0-.026.189zM57.616 16.62c-.212-.172-.402-.676-.479-.622.165.219.305.585.479.622zM6.117 43.99l.071.151a1.197 1.197 0 0 0-.071-.151zM63.435 33.395l-.03.22c.018-.018.032-.042.049-.063a.637.637 0 0 1-.019-.157zM21.017 62.772l-.009-.002-.067-.008zM22.592 63.487l-.36-.087a.993.993 0 0 0 .36.087zM64.147 33.004l-.067-.433c.009.156.037.297.067.433zM40.897 63.779l-.161.056a.809.809 0 0 0 .161-.056zM27.278.541l.149-.004c.012-.024 0-.037-.149.004zM16.898 7.098l-.002.002v.002zM17.366 6.674c-.179.079-.379.287-.468.424.166-.103.309-.22.468-.424zM15.761 7.795l.066-.032a.311.311 0 0 0-.066.032zM27.246 3.206l-.002-.01-.006.011zM24.852 3.766a.742.742 0 0 0-.174.004.65.65 0 0 0 .174-.004zM11.292 11.997l-.001-.004-.008.01z"/><path d="M3.978 33.07c-.142-2.265-.035-5.254.559-7.449-.074-.523.097-1.229.269-1.937l.267.001.105-.599c.148-.208-.096.456.128.074l-.08-.266c.096-.02.579-1.434.407-.425.264-.729.555-1.448.874-2.154.227-.462-.073-.366.237-.852.118-.071-.045.207.058.205.932-1.429.467-1.998 1.427-3.311l-.046.133c.092-.267.386-.699.363-.723-.333.027-.045.318-.442.647-.158-.154.239-.58.085-.645.282-.27.302-.528.489-.806.436-.385.862-1.085 1.263-1.311.124-.255.153-.636.546-1.092.412-.208.053.18.49-.21l-.03-.154c.339-.338.313-.259.345-.205.358-.363.167-.432.68-.826l-.167.338c.302-.367.451-.491.94-.932.039.063-.156.24-.312.356.388-.106.388-.479.549-.592-.08-.006-.432.289-.351.044.256-.204.407-.598.683-.64l-.189.328c.451-.525.171-.363.807-.831-.027.034.009.045.012.077.285-.442.889-.732 1.491-1.152l-.092.11c.211-.211.285-.392.421-.479-.387.182-.314.086-.416.009.577-.148.562-.694 1.411-1.083.025.07-.116.258-.368.332-.143.354-.08.518-.474.914.25-.239.575-.48.551-.36l-.02-.225c.169-.121.316-.197.45-.281.009-.153-.469.053-.101-.275.432-.348.354.018.38-.104.608-.45.155-.351.822-.651-.055.05-.162.149-.226.164.49-.19 1.107-.649 1.353-.504-.045.082-.024.152-.207.226l-.01-.036c-.421.419.397-.264.34.012-.093-.096.566-.399.875-.511l-.156-.088c.808-.856.066.28 1.021-.207.588-.357-.253.062.091-.196.438-.152.642-.101 1.25-.397.195-.012.582-.063.665.08.361-.201 1.19-.313 1.366-.528-.707.068-.61.361-1.445.421l.164-.228c.538-.171 1.207-.463 1.602-.508-.084-.009-.13-.04-.091-.085.764-.271.955-.483 1.74-.604.132.123-.326.191-.649.283.521.002.518-.118 1.301-.22.064.118-.522.09-.584.237l.844-.208c-.002.008.003.016.004.025.088-.229.656-.101 1.173-.232 1.248-.16 1.414-.452 2.11-.674.194.045.253.097.176.155-.318-.075-.258-.004-.363.058.429-.053.947.155.713.253.672-.087-.25-.104.162-.186.31-.009.62-.014.93-.01-.11-.108-.442-.128.042-.217.409-.038.606-.007 1.141.008-.079.052.163.168-.236.154.256.043.655.069.815-.032-.578-.13.962-.041.538-.232l.577.143c-.134-.013-.153.055-.349.021.153.175.48-.005.687-.004.204.047.732.129.769.196.189-.026.632.078.703.172.275.006.037-.104.125-.146l.92.17c.032.1.062.365-.082.373.359-.017.174-.243.694-.132-.333.108.656.285.181.397.265.189 1.097.383 1.563.469.32-.058-.474-.211-.408-.344 1.302.3 1.501-.041 2.424.342l-.231-.125c.613.132.542.121.926.136-.223.109.492.689 1.427 1.064.117-.047-.45-.387-.243-.451l.633.25c.039.032-.041.03-.131.016.584.193.92.692 1.169.585l.425.516-.162-.213c.115-.039.729.255.867.299.656.254.833.46 1.096.754-.062-.126-.231-.432.248-.163-.155.237.909.716.81.835.184.124.451.421.542.338l-.138.127c.189-.18.836.304 1.349.652-.321.18.548.403.556.821.242-.108.885.644 1.096.573.358.315.173.443.21.578l.22.088c.099.243.716.878 1.016 1.316l.483.222.052.199c.09.023.383.31.273.069l.166.208c.187-.131.29.244.705.597.049.12-.014.127-.109.056.165.209.004.193.035.353-.071-.189.91.507.546-.124.043-.098.354.2.482.436l-.064.249.357.13c.271.319.264.54.434.83-.206-.277-.747-.401-.248.315-.281-.365-.501-.486-.676-.65.1.15.136.234-.098.057.447.514.232.112.638.65-.17.07-.11.257.153.779l-.128-.438c.03.005.06.021.087.043-.074-.15-.076-.205-.039-.273.069.112.619.532.582.689-.119-.733.808.902.725.444.083.042.338.448.28.537-.399-.429.031.475-.127.456.147.16-.099-.455.099-.239.177.29.197.562.232.757l-.096-.109.169.498c.12.036-.098-.518.167-.113.024.13.278.542.207.56-.213-.15-.287.072-.494-.278.166.291.639 1.254.607.791l.164.369c-.036-.26-.212-.968.153-.237l-.036.009.354.464.013.264c.04-.025.114.041.19.239-.03.071.024.263-.049.275.236.562.295.487.376.542.133.317.142.449-.015.336.14.446.418 1.213.417 1.545.255.575 0-.134.221.181-.138.604.429 2.018.647 3.019.218-.324.085.267.361.409-.12-.202-.053.993-.274.123l.116.534c-.09.388-.257-.868-.371-.282.105.593.458.949.437 1.675-.218-.219.119.543-.114.385-.081-.141-.08-.339-.119-.538l-.024.127c.067 1.324.269.359.459 1.046.077.814-.114.65-.203.702-.034.128.013.533.07.745-.137-.489.089-.919.221-.697-.203.367.016 1.209.104 1.435.219-1.176.006-.809.203-1.924-.084-.148-.269-.109-.246-.773.135.405.108-.039.13-.159-.101.138-.088-.454-.162-.648.071-.195.309.368.278-.31l-.283-.093c.004-.266.212.086.07-.462.18.282.209-.123.348.632.114-.939-.314-1.376-.542-2.048.029.067.066.069.098.136-.1-.136-.143-.405-.202-.606-.037-.47.196.336.241.204l-.163-.741c.006-.017.01-.022.015-.023-.076-.188-.149-.365-.1-.449.138.2.249.267.349.401l-.369-.74c.111.063-.02-.678.19-.143-.115-.38-.226-.761-.354-1.137l.146-.149c-.112-.265-.148-.262-.073.073-.064-.413-.861-1.615-.456-1.529-.462-.829-.521-1.167-1.059-2.167.508.73-.215-.999.235-.188-.157-.526-.378-.549-.595-.916-.107-.393.131-.315.384.048l-.301-.422.037-.008-.294-.349c-.134-.462.117-.175-.092-.617l-.193-.016-.075-.331c-.006.145-.169-.094-.361-.391l.035-.012-.243-.354c.303.315-.173-.354.025-.246-.189-.316-.188-.327-.577-.867l-.03.159c-.555-.67.122-.123-.266-.71l-.08.108c-.399-.958-1.094-1.323-1.451-1.984.29.316.339.141.305.156-.429-.482-1.091-1.304-1.656-1.689-.03-.302-.023-.388-.446-.939-.356-.352-.428-.386-.617-.426-.293-.394-1.038-.926-.969-1.04-.153.003-.311-.307-.574-.411l-.008-.079-.051.124c-.474-.775-1.215-.796-1.762-1.504l.142.061-.325-.177c-.015-.08.126-.019.183-.067-.454-.342-.92-.667-1.391-.986l.227.266c-.305-.19-.575-.211-.879-.496.678.197-.476-.305-.499-.48l.341.145c-.437-.247-.437-.247-.466-.115-.583-.282-.265-.435-.855-.603l.37.211c.071.127-.242.062-.492-.071-.049-.048-.2-.193-.002-.105-.469-.201-1.125-.6-1.352-.647-.232-.153-.112-.197.038-.164-1.038-.358-.438-.236-1.488-.566l.046-.059-.38-.064-.445-.337.146.157c-.339-.118-.566-.149-.948-.327l.195-.043c-.976-.28-1.06-.552-2.031-.681-.059-.036.096-.03.175-.025-.908-.075-.605-.368-1.534-.385.062-.021-.023-.088.018-.11l-.418-.021.062-.134-.373.136-.218-.196-.172.037c-.38-.358-1.032-.263-1.601-.549l.078.195C35.484.655 33.579-.07 31.722.15l.03-.145-.754.196c-.413-.097.24-.132.109-.201-.811.12-.33.226-1.268.333-.489-.052.159-.126.383-.188-.881.126-2.165.367-2.795.392-.011.021-.045.053-.013.056-.572.155-1.345.239-1.979.392 0-.068.156-.113.311-.161-.229.041-.554.064-.732.181l.209-.18c-.496.088-1.399.45-1.546.341.074.037.079.148-.337.266-.297-.148-1.096.438-1.784.565.061-.078.537-.258.401-.213-.349.059-.609.265-.869.44l.056-.116c-.491.229-.974.471-1.449.728-.315-.115-1.367.673-1.336.484-.52.251.477-.129-.165.22-.218.001-.563.344-.604.201l.061-.051-.445.25.217-.276c-.378.232-.585.522-.553.624-.402.134-.874.496-1.102.485l.112-.111c-.962.658-1.852.735-2.46 1.483-.067.024-.082-.009.036-.093l-.587.431.072-.19c-.288.287-.567.582-.842.878l-.034-.065c-.635.481-1.543 1.339-2.25 2.08l.085-.131c-.71.869-.807.723-1.305 1.378a.184.184 0 0 1 .036-.084l-.486.553.055-.168c-.246.507-1.16 1.071-.846.893-.143.284-.405.753-.387.881-.478.643-.195.098-.539.462-.349.467-.305.622-.799 1.237l-.052-.053-.535.977.051-.148c-.309.789-.729.789-.772 1.518-.227.276-.488.891-.604.795a54.774 54.774 0 0 0-1.026 2.706c-.28.065-.075.208-.42.746l.139.002c-.501 1.362-1.293 2.888-1.585 4.491l-.134.017.068.347C.338 27.299.035 29.552 0 30.945c.047.46.183 1.151.152 1.872l-.019-.077.345 3.937c-.065-.077-.084.062-.139-.085.183.305.118.797.166 1.088l.039-.355c.18.367.16.936.109 1.148l.255.578c-.004.043-.01.108-.028.12l.088.093-.095.356c.069.143.301.928.528 1.13-.039.071.068.639-.077.217.184.728.388 1.452.625 2.166l-.06-.352c.111-.081.4.531.472.875-.257-.394-.184.026-.201.243.172.264.011-.288.134-.162.21.333.556 1.064.584 1.273l-.136-.192c.249.461.137.772.366 1.236.285.379.356.724.509.541.335.578-.019.297.058.501.233.234.616 1.085.583 1.243.448.163.819 1.613 1.131 1.58l.173.544c.069-.025.265-.025.541.323.172.389.015.378.029.525l.382.071c1.167 2.144 3.489 4.372 5.396 6.225.955.713 2.224 1.505 3.373 2.269l-.149-.054c.373.269.752.527 1.136.781-.265-.208-.533-.408-.791-.623.269.136.499.207.744.359 1.23.865 2.992 1.899 4.787 2.429 1.232.124.658.54 1.828.688-.103-.003-.149.027-.244.029 1.219.275 1.889.397 3.135.489-.203.275.791.157.651.29l.124-.104c.255.133.893.259.787.334l.565-.07.028.133c.719.126 2.278.165 2.646.433 1.814-.062 4.652-.083 6.901-.402.299-.153.947-.271 1.449-.386l.571.034c.506-.157.998-.477 1.493-.512 0 .018-.016.035-.045.053.505-.167 1.016-.237 1.445-.523.558-.168 1.117-.291.996-.096-.029-.249 1.176-.399 1.177-.405-.011-.016 1.797-.605 4.366-2.06 2.562-1.441 5.833-3.872 8.55-7.144 2.747-3.238 4.857-7.279 5.908-10.988 1.084-3.71 1.175-6.998.909-8.795-.113-.248-.172-.913-.328-.663-.039-.509.183-.742.06-.842-.092.691-.32-.213-.483.457l-.025-.429c-.088-.089.093.584-.066.476l.231.125c-.039.348-.102.537-.184.657.08.328.386.557.189 1.333l.004-.218c-.046.638-.184.377-.233.506l.015-.139-.167.521c.119-.396-.015-1.077-.031-.727-.131.745.074-.19.053.376-.019.351-.135.24-.204.218l-.062.625c-.104-.035.053-.412-.087-.172l.014.797c-.287.106.002.874-.318 1.186.035-.569-.098.034-.171-.07-.077.454-.164.906-.26 1.357-.064.119-.006-.373-.037-.165-.126.237-.03.43-.064.566-.095.1-.253.999-.42.915-.376.86.12.443-.24 1.246-.138.076.184-.668-.04-.333l-.241.869c-.024-.095-.11-.223.014-.535-.917 2.265-1.982 3.192-2.879 5.163-.264.203.029-.235.059-.467-.61 1.461-1.352 1.758-2.082 2.849l.076.082c-1.326 1.312-2.612 3.117-4.237 4.429l.232-.114c-.134.274-.472.593-.695.856-.077-.009.035-.333-.393.091.119-.051.341-.186.317-.097-.767.482-1.871 1.314-3.16 2.126-1.281.822-2.755 1.606-4.104 2.146-3.55 1.726-7.835 2.428-11.671 2.484.586-.016.343.255-.105.198-1.202-.457-2.114.022-3.321-.422-2.259-.118-4.108-.959-6.174-1.312l.004-.135c-.273-.159-.383-.101-.692-.207l.021-.03c-.703-.314-1.609-.569-1.983-.82l-.087.119c-.422-.186-.168-.2-.626-.337l.045-.059-.551-.129c.163-.193-1.135-.633-1.386-.935-.533-.263-1.546-.788-2.243-1.369-.064-.198-.943-.868-1.434-1.376-1.073-.847-2.511-2.192-3.586-3.569l-.106.129-.299-.347c.032-.018.008-.077.065-.034-.077-.39-.698-.792-.82-1.16.014.275.172.271.326.48.166.346-.179.158-.419-.298l.035-.014-.272-.23c.081-.106-.055-.396.028-.502-.872-1.211-1.591-1.981-2.255-3.392.197.08-.524-.986-.163-.813-.475-.803-.117.226-.455-.088-.108-.237-.281-.463-.214-.544.103.089.054-.254.159-.069l-.261-.564c-.005-.063.079.051.119.107-.617-1.121-.648-2.149-1.103-3.191-.109-.056.104.439-.006.386-.494-1.054-.124-1.015-.497-2.021l.169.188c-.157-.314-.299-.441-.31-1.018.123-.124.208.448.336.698-.083-.377-.297-1.333-.373-1.016-.13-.451-.024-.642-.027-.893-.037-.004-.026.442-.137.184-.019-.64-.141-1.609-.184-2.384.036.004.088-.054.109.013-.231-.605.089-.559.019-1.405z"/><path d="M27.564 3.175l-.318.031c.006.032-.001.071-.139.134l.457-.165zM13.942 9.316c-.023.034-.047.067-.063.103.056-.054.065-.083.063-.103zM11.438 11.999c.16-.208-.032-.071-.146-.001.018.024.047.043.146.001zM36.128 2.598c-.057.007-.094.022-.088.054.078-.017.097-.035.088-.054zM56.141 14.431l-.039-.089c.002.02.016.052.039.089zM55.506 13.244a1.498 1.498 0 0 0-.188-.196c.07.096.133.154.188.196zM30.339 2.504a.703.703 0 0 0-.247.065.64.64 0 0 0 .247-.065zM55.115 12.857l-.205-.266c-.008.005-.016.006-.024.014l.229.252zM56.372 14.782c-.072-.108-.175-.251-.231-.351a.991.991 0 0 0 .231.351zM44.632 4.789l-.034-.012c-.265-.048-.105-.006.034.012zM53.962 11.931l-.026-.037-.095-.044zM57.137 15.998a.581.581 0 0 0-.112-.125l.089.167c.005-.024.013-.036.023-.042zM48.906 7.426c.108.007.159-.003.178-.024-.095-.061-.167-.079-.178.024z"/></g><path fill="#6E7072" d="M22.773 30.233h-3.381l1.69 2.818-2.253-.045 2.471 3.383h-1.951l5.201 4.03-1.653-2.701 1.653-.03-1.691-2.926h2.515z"/><path fill="none" stroke="#6E7072" stroke-width="1.5" stroke-miterlimit="10" d="M36.337 12.858h2.447v38.01h-2.447zM52.378 50.868H10.197M20.552 28.193h9.052v22.675h-9.052M20.552 50.868h-6.036V28.193h6.036"/><path fill="#6E7072" d="M18.757 40.917h6.689v9.951h-6.689z"/><path fill="none" stroke="#6E7072" stroke-miterlimit="10" d="M41.04 15.84l1.273-.075.574-1.143-.704-1.065-1.274.077-.572 1.141zM41.04 19.179l1.273-.076.574-1.142-.704-1.065-1.274.077-.572 1.142zM41.04 22.52l1.273-.077.574-1.141-.704-1.068-1.274.078-.572 1.141zM41.04 25.859l1.273-.075.574-1.142-.704-1.067-1.274.077-.572 1.143z"/><path fill="none" stroke="#6E7072" stroke-width="1.5" stroke-miterlimit="10" d="M40.337 14.775l-1.553-.078M40.337 18.075L38.784 18M40.337 21.415l-1.553-.076M40.337 24.757l-1.553-.076M61.026 21.14s-13.559.275-18.469-5.863M41.611 25.824S40.313 36.759 29.27 37.003"/></svg>