<svg xmlns="http://www.w3.org/2000/svg" width="66" height="66" viewBox="-0.623 -0.231 66 66" overflow="visible"><ellipse fill="#FFF" cx="32.552" cy="32.335" rx="30.678" ry="30.925"/><g fill="#6E7072"><path d="M53.388 8.592a.118.118 0 0 0 .07-.024c-.041-.002-.062.009-.07.024zM39.755 1.04l.187.013c-.119-.025-.167-.025-.187-.013zM59.213 15.854c-.011-.008-.015-.006-.024-.011l.324.568-.3-.557zM8.653 10.372l.144-.159c-.066.071-.114.112-.144.159zM26.059.723a1.01 1.01 0 0 1-.255.103c.128-.023.228-.051.255-.103zM60.132 20.776l-.009-.271c-.035.02-.039.12.009.271zM62.665 29.472c.006-.008.012-.01.02-.026-.01-.012-.016.003-.02.026zM62.506 25.863l-.096-.245c.026.107.056.244.096.245zM62.36 25.503l.05.115c-.017-.066-.033-.12-.05-.115zM64.393 33.843c.014-.277-.047-.516-.102-.766l.102.766zM.882 39.26l-.051-.052c.025.053.04.06.051.052zM63.578 33.469l.026-.19a.854.854 0 0 0-.026.19zM57.748 16.654c-.211-.172-.402-.678-.479-.624.165.22.305.587.479.624zM6.124 44.092l.071.151a1.36 1.36 0 0 0-.071-.151zM63.578 33.469l-.03.22c.018-.018.032-.042.049-.063a.675.675 0 0 1-.019-.157zM21.064 62.913l-.009-.003-.067-.008zM22.642 63.628l-.361-.087c.183.072.286.088.361.087zM64.291 33.078l-.067-.434c.008.156.037.297.067.434zM40.988 63.921l-.161.056a.77.77 0 0 0 .161-.056zM27.338.542l.149-.004c.012-.024 0-.037-.149.004zM16.932 7.109l-.003.002.001.002zM17.401 6.684c-.18.079-.38.287-.469.425.166-.104.309-.22.469-.425zM15.792 7.808l.066-.033a.37.37 0 0 0-.066.033zM27.304 3.208l-.002-.01-.005.01zM24.905 3.768a.751.751 0 0 0-.175.004.583.583 0 0 0 .175-.004zM11.312 12.02l-.002-.004-.008.01z"/><path d="M3.978 33.144c-.142-2.27-.035-5.267.561-7.467-.074-.525.097-1.232.27-1.941h.267l.106-.6c.149-.209-.097.457.128.074l-.079-.267c.096-.02.58-1.438.407-.426.264-.731.556-1.451.875-2.16.227-.463-.072-.367.238-.854.118-.07-.045.208.058.206.934-1.433.47-2.002 1.432-3.319l-.046.134c.092-.268.387-.701.364-.725-.333.027-.045.319-.443.649-.158-.154.24-.582.085-.646.283-.271.303-.529.491-.808.436-.387.863-1.088 1.265-1.314.124-.255.154-.637.548-1.094.412-.209.052.18.491-.211l-.029-.154c.34-.339.314-.26.345-.206.359-.364.167-.432.681-.828l-.167.338c.303-.368.452-.493.942-.934.039.063-.157.24-.312.357.389-.107.389-.48.551-.593-.08-.006-.433.29-.352.045.257-.205.408-.6.685-.642l-.19.329c.452-.526.172-.364.809-.833-.026.034.009.045.012.077.285-.443.891-.734 1.494-1.155l-.093.11c.212-.212.286-.393.422-.479-.388.182-.315.086-.417.009.578-.149.564-.695 1.414-1.086.025.07-.117.259-.369.333-.143.354-.081.518-.476.915.25-.24.576-.481.553-.361l-.02-.225c.17-.121.317-.198.451-.282.01-.154-.469.053-.101-.276.433-.348.354.018.381-.104.61-.451.156-.352.824-.652-.055.05-.162.149-.226.164.49-.191 1.11-.65 1.355-.506-.045.082-.024.152-.207.227l-.01-.036c-.422.419.398-.265.34.012-.093-.096.567-.4.876-.512l-.156-.088c.811-.857.065.281 1.023-.208.59-.358-.253.062.092-.196.438-.153.643-.101 1.252-.399.196-.012.583-.063.666.079.362-.201 1.193-.313 1.369-.528-.708.069-.611.361-1.448.422l.165-.228c.539-.172 1.21-.464 1.605-.509-.084-.009-.13-.04-.091-.085.766-.271.958-.484 1.745-.606.132.123-.327.192-.651.284.522.002.519-.118 1.305-.221.065.118-.523.091-.586.237l.846-.209c-.002.008.003.017.004.026.088-.229.658-.102 1.176-.232 1.251-.161 1.417-.453 2.115-.674.194.045.253.096.176.155-.319-.075-.259-.004-.364.059.43-.053.949.155.715.253.674-.087-.25-.103.163-.186.311-.009.621-.014.932-.01-.111-.108-.443-.127.042-.217.41-.038.607-.007 1.144.008-.08.052.162.168-.237.154.257.043.656.07.817-.032-.58-.13.964-.041.539-.232l.58.142c-.134-.013-.154.054-.35.02.153.176.481-.005.688-.003.204.047.734.129.771.196.188-.026.633.078.704.172.276.006.037-.104.125-.146l.923.171c.032.1.062.365-.082.373.36-.016.174-.243.695-.132-.333.109.658.286.182.397.269.188 1.104.383 1.57.469.322-.058-.474-.212-.408-.345 1.305.301 1.504-.04 2.429.344l-.232-.125c.615.133.544.121.929.137-.223.109.493.689 1.431 1.066.117-.047-.452-.387-.244-.452l.635.251c.039.033-.042.03-.131.016.584.194.922.693 1.171.586l.427.517-.163-.214c.115-.039.73.256.869.3.657.255.835.461 1.099.755-.062-.126-.232-.432.248-.162-.155.237.911.718.812.836.185.124.452.422.543.338l-.135.126c.189-.18.838.306 1.352.654-.321.18.549.404.557.822.239-.105.884.647 1.095.577.358.316.174.444.21.579l.221.088c.099.243.718.88 1.019 1.319l.484.222.052.199c.09.023.384.311.273.069l.167.209c.187-.132.29.244.706.598.049.12-.014.127-.109.056.165.21.004.193.036.353-.071-.189.911.509.546-.123.043-.098.354.2.483.437l-.064.249.358.131c.271.32.264.541.435.831-.206-.278-.748-.403-.248.316-.282-.366-.502-.487-.677-.652.1.151.137.234-.098.057.448.515.232.113.639.652-.17.069-.11.257.154.78l-.128-.438c.029.005.06.021.087.043-.075-.15-.077-.206-.039-.274.068.112.62.534.582.691-.119-.735.811.904.726.446.084.042.339.449.281.539-.399-.43.031.476-.126.456.147.161-.1-.456.099-.239.177.291.197.563.232.758l-.096-.109.17.5c.12.036-.099-.519.167-.113.024.13.278.544.207.561-.213-.15-.287.071-.494-.279.167.292.64 1.258.608.793l.165.37c-.037-.261-.214-.97.152-.237l-.036.008.355.466.013.265c.04-.025.115.041.191.239-.03.072.024.264-.049.276.236.564.296.488.376.543.133.318.143.45-.014.337.14.447.418 1.216.418 1.549.255.577 0-.134.221.182-.138.605.43 2.022.648 3.026.218-.324.086.267.362.41-.121-.202-.053.996-.274.124l.116.535c-.09.389-.257-.87-.371-.283.106.594.459.951.437 1.679-.217-.22.12.544-.113.386-.081-.141-.081-.34-.12-.539l-.023.127c.067 1.327.269.36.459 1.049.077.816-.114.651-.203.703-.034.128.013.535.07.747-.137-.49.089-.921.221-.699-.203.368.016 1.212.104 1.438.219-1.179.006-.811.203-1.929-.084-.148-.269-.109-.246-.775.135.406.108-.039.13-.159-.102.139-.089-.455-.163-.65.072-.195.309.369.279-.311l-.284-.093c.005-.266.212.086.07-.463.18.283.209-.123.349.633.113-.941-.315-1.38-.544-2.053.03.068.067.069.099.136-.1-.136-.143-.407-.202-.608-.037-.471.196.337.241.205l-.164-.743c.006-.017.01-.021.015-.023-.076-.188-.149-.366-.1-.45.138.2.249.267.349.402l-.368-.739c.111.063-.02-.679.19-.143-.115-.381-.227-.763-.355-1.14l.146-.149c-.111-.266-.148-.263-.072.073-.065-.413-.863-1.619-.457-1.532-.463-.831-.522-1.17-1.062-2.171.509.732-.216-1.001.236-.188-.158-.528-.379-.551-.597-.919-.107-.394.131-.315.385.049l-.302-.423.037-.008-.295-.35c-.134-.462.118-.175-.092-.618l-.193-.016-.077-.334c-.006.145-.17-.094-.362-.392l.035-.012-.244-.355c.303.316-.173-.354.025-.246-.19-.317-.188-.328-.579-.869l-.028.159c-.556-.672.121-.123-.267-.711l-.08.108c-.4-.959-1.096-1.326-1.455-1.988.291.316.34.142.306.156-.43-.483-1.093-1.307-1.66-1.693-.03-.303-.023-.389-.447-.941-.357-.352-.429-.387-.619-.428-.293-.394-1.04-.928-.971-1.042-.153.003-.312-.308-.575-.411l-.008-.079-.051.124c-.476-.777-1.218-.799-1.766-1.508l.142.061-.325-.177c-.015-.08.126-.019.183-.067a35.036 35.036 0 0 0-1.394-.988l.228.266c-.306-.19-.576-.212-.881-.497.679.198-.478-.305-.5-.481l.341.146c-.438-.248-.438-.248-.467-.116-.585-.283-.265-.435-.857-.604l.371.211c.071.128-.243.063-.493-.071-.05-.048-.201-.193-.002-.105-.471-.202-1.128-.602-1.354-.649-.233-.153-.113-.197.037-.163-1.04-.359-.438-.237-1.49-.568l.045-.06-.381-.064-.446-.337.146.157c-.34-.118-.567-.15-.949-.328l.195-.043c-.979-.281-1.064-.553-2.037-.682-.059-.036.096-.03.175-.025-.91-.076-.606-.369-1.537-.386.062-.021-.023-.088.018-.11l-.419-.021.062-.134-.375.136-.219-.196-.171.037C38.253.503 37.6.599 37.03.312l.077.195c-1.545.148-3.454-.576-5.315-.357l.03-.145-.756.196c-.414-.097.24-.132.11-.201-.812.12-.33.226-1.27.334-.49-.052.159-.126.383-.188-.883.126-2.169.367-2.802.392-.011.022-.045.053-.013.056-.573.155-1.349.239-1.983.393.001-.068.157-.113.312-.161-.23.041-.555.064-.734.181l.21-.18c-.497.088-1.402.451-1.549.342.074.037.079.148-.338.266-.297-.148-1.099.439-1.788.566.061-.078.538-.259.402-.213-.35.06-.611.265-.871.441l.056-.117c-.492.23-.976.473-1.452.729-.316-.114-1.371.675-1.339.485-.521.252.478-.13-.166.22-.218.003-.564.346-.604.204l.061-.052-.446.251.218-.276c-.379.232-.587.522-.554.625-.403.134-.876.497-1.104.487l.113-.111c-.964.66-1.856.738-2.465 1.487-.067.024-.083-.009.036-.094l-.589.432.072-.19c-.289.288-.569.583-.845.88l-.034-.065c-.637.482-1.547 1.342-2.254 2.084l.085-.131c-.711.869-.807.723-1.307 1.38a.184.184 0 0 1 .036-.084l-.487.555.056-.168c-.247.508-1.162 1.073-.848.895-.143.284-.406.754-.388.883-.479.643-.196.096-.54.462-.35.468-.306.623-.801 1.24l-.052-.053-.536.979.052-.148c-.31.791-.73.791-.774 1.521-.228.276-.489.893-.605.796-.392.976-.69 1.733-1.029 2.712-.28.066-.075.208-.421.748l.135.002c-.502 1.365-1.295 2.894-1.588 4.501l-.134.017.068.348C.338 27.361.035 29.618 0 31.015c.047.461.183 1.154.152 1.876l-.019-.076.345 3.945c-.065-.077-.083.062-.139-.085.183.305.118.799.166 1.091l.039-.356c.18.367.16.937.11 1.15l.255.579c-.003.043-.009.108-.028.121l.089.093-.093.357c.069.143.301.93.528 1.132-.038.071.069.64-.076.217.185.729.389 1.456.626 2.172l-.06-.354c.109-.081.399.531.472.877-.258-.395-.184.025-.201.243.173.265.011-.289.134-.162.211.334.557 1.067.585 1.275l-.137-.191c.25.461.138.773.367 1.238.285.38.357.725.51.543.335.578-.019.297.058.501.234.235.618 1.088.584 1.247.448.163.821 1.616 1.133 1.583l.174.545c.069-.025.265-.025.542.324.172.39.015.379.029.526l.383.071c1.17 2.147 3.497 4.383 5.408 6.238.957.715 2.229 1.509 3.38 2.273l-.149-.053a34.2 34.2 0 0 0 1.139.781c-.266-.208-.535-.407-.792-.623.269.136.5.208.745.36 1.232.866 2.999 1.903 4.797 2.434 1.234.125.66.54 1.832.69-.103-.004-.15.027-.244.028 1.221.276 1.894.399 3.142.491-.204.275.792.157.653.291l.124-.104c.255.133.895.259.789.334l.566-.07.029.133c.72.126 2.283.166 2.651.434 1.818-.062 4.662-.083 6.917-.403.299-.153.949-.271 1.452-.386l.571.034c.508-.158 1.002-.478 1.497-.514.001.018-.016.035-.045.053.507-.168 1.019-.237 1.449-.524.559-.168 1.119-.292.998-.096-.029-.25 1.178-.4 1.179-.406-.011-.017 1.801-.607 4.375-2.064 2.569-1.445 5.846-3.882 8.569-7.16 2.752-3.245 4.868-7.295 5.921-11.013 1.087-3.718 1.178-7.013.913-8.814-.113-.249-.172-.914-.328-.664-.039-.51.183-.743.06-.844-.092.692-.32-.213-.483.458l-.025-.43c-.088-.089.093.586-.066.478l.231.125c-.039.35-.102.539-.184.659.079.329.386.559.189 1.336l.004-.218c-.046.639-.185.378-.233.507l.014-.14-.166.522c.119-.396-.015-1.079-.031-.729-.131.747.074-.19.053.377-.019.352-.135.241-.205.218l-.062.627c-.105-.035.053-.413-.088-.173l.014.8c-.287.106.002.876-.318 1.188.035-.571-.099.034-.171-.071-.077.456-.165.909-.261 1.36-.064.12-.006-.373-.037-.165-.126.237-.031.431-.064.567-.095.101-.254 1.002-.421.917-.377.863.12.444-.24 1.25-.139.076.184-.67-.04-.334l-.243.871c-.023-.095-.109-.223.015-.536-.919 2.271-1.985 3.201-2.885 5.176-.264.204.03-.235.06-.467-.612 1.463-1.354 1.762-2.086 2.855l.075.082c-1.329 1.315-2.618 3.126-4.247 4.44l.232-.114c-.134.274-.472.594-.696.857-.077-.008.036-.333-.394.092.12-.051.341-.187.317-.098-.768.483-1.875 1.318-3.167 2.133-1.284.824-2.761 1.609-4.113 2.15-3.559 1.73-7.854 2.435-11.7 2.491.588-.016.344.255-.105.198-1.205-.457-2.119.022-3.329-.422-2.265-.119-4.119-.962-6.19-1.317l.004-.134c-.273-.16-.383-.101-.693-.208l.021-.03c-.704-.315-1.613-.571-1.988-.822l-.087.119c-.423-.186-.169-.2-.628-.338l.045-.059-.553-.129c.163-.194-1.137-.635-1.39-.938-.534-.264-1.549-.79-2.249-1.372-.064-.199-.945-.871-1.438-1.379-1.076-.85-2.518-2.199-3.596-3.579l-.105.13-.3-.348c.032-.018.008-.078.065-.035-.078-.39-.699-.794-.822-1.162.014.275.172.271.326.48.167.347-.179.158-.419-.299l.035-.013-.273-.231c.081-.106-.056-.396.028-.503-.875-1.214-1.595-1.986-2.26-3.4.197.081-.525-.988-.164-.814-.476-.806-.116.226-.455-.089-.109-.238-.281-.465-.215-.545.104.089.054-.255.159-.069l-.262-.566c-.005-.063.079.051.119.108-.618-1.125-.65-2.155-1.105-3.2-.109-.056.104.44-.006.387-.495-1.057-.125-1.017-.498-2.026l.169.188c-.157-.315-.299-.442-.311-1.021.123-.124.209.449.337.7-.084-.378-.298-1.336-.374-1.019-.131-.452-.024-.643-.027-.895-.037-.004-.026.444-.137.184-.019-.641-.142-1.613-.185-2.39.036.004.087-.054.109.013-.229-.603.091-.556.021-1.405z"/><path d="M27.623 3.176l-.319.032c.006.032-.001.071-.139.134l.458-.166zM13.968 9.333c-.023.034-.047.067-.064.103.057-.055.066-.083.064-.103zM11.458 12.021c.16-.209-.032-.071-.146-.001.017.024.046.043.146.001zM36.209 2.599c-.058.007-.095.022-.089.054.078-.018.097-.035.089-.054zM56.271 14.459l-.04-.089a.215.215 0 0 0 .04.089zM55.633 13.27a1.498 1.498 0 0 0-.188-.196c.07.095.133.154.188.196zM30.405 2.504a.715.715 0 0 0-.248.065.623.623 0 0 0 .248-.065zM55.241 12.882l-.205-.266c-.009.005-.016.006-.024.014l.229.252zM56.502 14.811c-.072-.109-.176-.252-.231-.352a.974.974 0 0 0 .231.352zM44.733 4.795l-.035-.012c-.264-.048-.104-.006.035.012zM54.086 11.953l-.026-.037-.096-.044zM57.269 16.03a.551.551 0 0 0-.112-.124l.089.167c.005-.025.013-.036.023-.043zM49.018 7.438c.108.007.16-.003.178-.024-.095-.06-.168-.08-.178.024z"/></g><path fill="#6E7072" d="M46.61 11.022h4.966l-2.483 4.139 3.31-.065-3.628 4.965h2.865l-7.639 5.92 2.428-3.967-2.428-.043 2.483-4.299h-3.692z"/><path fill="none" stroke="#6E7072" stroke-width="2" stroke-linecap="square" stroke-miterlimit="10" d="M9.362 31.892l6.988-4.311v-4.768l4.328-1.753 1.475 3.474 14.225-5.444 10.9 14.905-1.49 2.328-16.305 9.225-9.693-12.695-9.496 1.982z"/><path fill="none" stroke="#6E7072" stroke-width="2" stroke-linecap="square" stroke-miterlimit="10" d="M12.343 38.325v7.223l15.976 9.595 15.419-9.036v-4.199"/><path fill="#6E7072" d="M21.565 44.525l3.54 2.209v6.48l-3.54-2.128zM15.977 40.434v-4.111l3.26 1.307v4.278zM24.267 31.498l5.683-3.031 5.311 7.856-5.496 2.987zM31.254 27.733l5.591-3.199 5.308 7.786-5.449 3.282z"/></svg>