<svg xmlns="http://www.w3.org/2000/svg" width="65" height="65" viewBox="-0.659 -0.125 65 65" overflow="visible"><ellipse fill="#FFF" cx="32.216" cy="31.998" rx="30.342" ry="30.586"/><g fill="#6E7072"><path d="M52.83 8.508a.12.12 0 0 0 .07-.025c-.041-.001-.062.009-.07.025zM39.343 1.031l.185.013c-.116-.024-.164-.023-.185-.013zM58.591 15.693c-.012-.008-.015-.006-.024-.011l.321.562-.297-.551zM8.566 10.262l.143-.157c-.066.069-.113.111-.143.157zM25.792.717a.965.965 0 0 1-.252.102c.126-.023.225-.051.252-.102zM59.486 20.568l-.008-.268c-.035.02-.039.118.008.268zM61.996 29.166c.006-.008.012-.01.02-.025-.012-.013-.016.002-.02.025zM61.841 25.596l-.095-.242c.026.106.055.241.095.242zM61.698 25.24l.049.114c-.018-.066-.034-.119-.049-.114zM63.722 33.49c.014-.274-.047-.511-.102-.757l.102.757zM.875 38.85l-.051-.051c.025.053.04.059.051.051zM62.907 33.119l.027-.188a.843.843 0 0 0-.027.188zM57.127 16.494c-.21-.17-.398-.67-.476-.616.165.216.303.58.476.616zM6.096 43.617l.071.149a1.478 1.478 0 0 0-.071-.149zM62.907 33.119l-.03.218c.019-.018.033-.041.049-.063a.664.664 0 0 1-.019-.155zM20.847 62.258l-.009-.004-.066-.006zM22.409 62.967l-.357-.085c.181.07.282.086.357.085zM63.621 32.732l-.068-.43c.008.155.036.295.068.43zM40.565 63.256l-.159.056a.783.783 0 0 0 .159-.056zM27.058.538l.147-.004c.012-.024 0-.037-.147.004zM16.775 7.059l-.004.001.002.002zM17.238 6.637c-.178.079-.376.285-.463.422a1.67 1.67 0 0 0 .463-.422zM15.647 7.749l.066-.032a.311.311 0 0 0-.066.032zM27.029 3.203l-.002-.01-.005.01zM24.657 3.757a.684.684 0 0 0-.173.004.57.57 0 0 0 .173-.004zM11.22 11.915l-.001-.004-.008.009z"/><path d="M3.978 32.797c-.142-2.244-.037-5.206.552-7.381-.075-.519.094-1.219.264-1.919l.266.001.104-.593c.148-.206-.095.452.128.074l-.08-.265c.096-.019.573-1.42.405-.42.261-.722.55-1.434.865-2.134.225-.458-.074-.364.234-.845.117-.07-.044.206.059.203.925-1.415.459-1.981 1.412-3.282l-.046.132c.09-.265.382-.693.359-.717-.333.026-.044.316-.438.642-.159-.153.236-.575.082-.64.28-.267.299-.523.485-.799.433-.381.854-1.076 1.253-1.298.122-.253.149-.632.539-1.083.409-.206.053.179.487-.207l-.03-.153c.336-.335.311-.256.343-.203.355-.359.164-.429.672-.819l-.164.336c.299-.364.447-.487.932-.923.039.063-.155.238-.309.353.386-.104.384-.475.544-.587-.079-.006-.428.286-.349.043.254-.202.402-.594.676-.634l-.187.326c.446-.521.169-.361.799-.824-.026.034.009.045.012.076.281-.439.881-.726 1.477-1.142l-.091.109c.209-.209.282-.389.416-.475-.383.18-.312.085-.413.007.573-.146.556-.689 1.397-1.075.025.07-.114.257-.364.33-.142.352-.079.515-.469.909.247-.237.569-.477.547-.357l-.021-.224c.168-.12.314-.195.446-.279.009-.153-.465.051-.102-.275.428-.345.352.019.377-.102.603-.446.153-.349.814-.646-.055.049-.16.148-.223.163.485-.188 1.097-.644 1.341-.499-.044.082-.023.152-.204.225l-.01-.036c-.416.417.394-.262.338.013-.093-.096.561-.396.866-.507l-.156-.088c.8-.853.066.28 1.013-.203.583-.355-.251.061.09-.195.434-.151.636-.098 1.238-.393.194-.012.577-.062.659.081.358-.2 1.18-.309 1.354-.523-.701.066-.604.359-1.432.417l.162-.227c.533-.17 1.196-.46 1.586-.503-.083-.01-.128-.04-.09-.086.756-.269.946-.48 1.724-.601.131.123-.322.191-.643.282.517.003.513-.117 1.29-.218.064.119-.518.09-.579.236l.836-.208c-.002.008.003.017.005.026.087-.229.65-.1 1.162-.23 1.236-.159 1.4-.45 2.091-.672.192.045.25.097.174.155-.316-.075-.256-.004-.36.058.425-.053.939.156.707.253.667-.087-.247-.103.16-.185.308-.009.614-.014.922-.01-.109-.108-.438-.128.042-.217.405-.038.601-.007 1.131.008-.078.052.161.168-.234.154.253.043.649.069.808-.033-.573-.13.954-.041.534-.232l.571.143c-.132-.013-.151.055-.345.021.151.176.476-.005.681-.004.201.047.726.128.761.195.188-.027.626.077.696.171.273.005.037-.104.124-.146l.912.169c.032.1.061.365-.081.373.356-.017.172-.244.688-.133-.329.109.65.284.179.397.266.188 1.091.379 1.553.465.318-.059-.469-.211-.403-.343 1.29.297 1.488-.044 2.402.335l-.23-.125c.608.13.538.119.919.133-.222.11.486.687 1.413 1.059.115-.048-.446-.385-.24-.45l.627.248c.039.032-.041.03-.129.016.578.191.91.688 1.158.58l.42.514-.161-.213c.114-.04.724.252.86.296.651.25.825.456 1.086.748-.062-.125-.229-.43.247-.163-.155.237.9.711.801.83.183.122.446.418.537.334l-.135.126c.189-.18.83.3 1.338.645-.32.181.544.399.549.815.241-.108.878.637 1.088.566.355.312.171.441.206.575l.219.086c.097.242.709.871 1.005 1.306l.48.218.051.198c.09.022.38.307.272.067l.165.207c.186-.132.287.241.699.59.048.119-.015.127-.109.056.163.208.003.191.033.35-.069-.188.905.5.545-.125.044-.097.353.197.479.431l-.064.247.355.128c.268.316.261.536.429.823-.204-.275-.743-.396-.248.314-.279-.361-.498-.48-.671-.644.099.149.134.232-.098.058.443.508.23.11.632.643-.169.07-.11.256.15.773l-.125-.434a.203.203 0 0 1 .086.042c-.074-.148-.075-.203-.037-.271.067.111.614.526.576.683-.115-.728.803.893.722.438.083.041.335.444.277.533-.396-.425.029.471-.128.453.146.159-.097-.451.1-.237.175.287.194.558.229.75l-.095-.108.167.494c.119.035-.097-.514.167-.113.023.129.275.538.204.555-.211-.148-.287.072-.491-.275.164.289.632 1.243.603.783l.163.366c-.035-.258-.209-.96.153-.236l-.036.008.353.46.012.262c.04-.025.115.04.19.236-.03.071.023.262-.05.273.234.558.293.483.373.537.132.314.141.445-.015.334.138.442.414 1.203.412 1.532.253.57.001-.133.221.179-.14.6.423 2 .64 2.993.219-.321.086.264.361.405-.12-.2-.055.985-.274.122l.115.529c-.09.385-.255-.86-.37-.279.104.587.456.939.434 1.66-.217-.217.119.538-.113.382-.082-.14-.081-.336-.12-.533l-.023.126c.066 1.312.269.355.458 1.036.076.807-.114.645-.204.696-.034.127.013.528.07.739-.137-.485.089-.912.221-.691-.203.363.017 1.198.104 1.422.219-1.166.006-.801.203-1.908-.084-.147-.268-.108-.245-.766.135.401.108-.038.131-.158-.102.137-.089-.449-.163-.643.072-.193.309.364.279-.308l-.283-.092c.005-.263.212.085.071-.458.179.279.209-.122.347.626.115-.932-.313-1.365-.54-2.03.03.067.067.068.098.135-.099-.135-.141-.402-.2-.601-.036-.466.195.333.241.202l-.162-.735c.005-.017.009-.021.015-.022-.076-.186-.148-.361-.099-.445.137.198.247.264.348.397l-.367-.731c.111.062-.018-.672.19-.142-.113-.377-.224-.754-.351-1.127l.146-.148c-.111-.263-.147-.259-.073.072-.063-.409-.856-1.6-.451-1.516-.46-.82-.518-1.156-1.052-2.147.505.724-.211-.991.236-.187-.155-.522-.375-.544-.592-.908-.104-.391.133-.313.384.046l-.299-.418.037-.008-.293-.345c-.131-.458.118-.174-.089-.612l-.192-.015-.076-.332c-.006.144-.169-.092-.359-.387l.035-.012-.241-.352c.301.312-.171-.351.026-.244-.188-.313-.187-.324-.573-.859l-.029.157c-.551-.664.122-.123-.262-.705l-.08.107c-.395-.95-1.086-1.311-1.439-1.967.288.313.337.139.303.153-.425-.478-1.081-1.293-1.643-1.674-.029-.301-.021-.386-.44-.934-.354-.349-.425-.383-.613-.422-.29-.391-1.029-.918-.96-1.031-.152.003-.308-.305-.569-.407l-.008-.079-.051.124c-.469-.771-1.205-.789-1.746-1.492l.14.06-.321-.174c-.014-.079.125-.02.182-.068-.45-.339-.912-.662-1.379-.978l.225.264c-.306-.182-.575-.202-.877-.484.674.194-.472-.302-.493-.478l.338.144c-.434-.245-.434-.245-.463-.113-.579-.279-.261-.432-.849-.598l.367.209c.07.127-.24.064-.488-.068-.049-.048-.198-.192-.001-.105-.465-.199-1.116-.596-1.34-.642-.23-.153-.111-.197.038-.164-1.029-.354-.434-.234-1.476-.561l.045-.059-.377-.062-.44-.335.145.156c-.336-.117-.562-.147-.939-.324l.193-.044c-.967-.277-1.051-.548-2.014-.675-.059-.036.095-.03.173-.025-.901-.073-.601-.367-1.521-.381.062-.022-.023-.088.018-.11l-.414-.02.062-.134-.37.137-.216-.196-.17.038C37.86.501 37.213.597 36.65.311l.076.195c-1.529.151-3.417-.572-5.259-.354l.029-.145-.748.196c-.411-.099.236-.134.107-.203-.804.12-.327.226-1.257.333-.485-.052.157-.126.379-.188-.874.126-2.146.365-2.772.389-.011.022-.045.053-.012.056-.567.154-1.334.237-1.962.389.001-.068.155-.113.309-.161-.228.041-.55.063-.727.179l.208-.179c-.492.087-1.387.447-1.533.338.073.037.079.148-.334.265-.295-.148-1.087.436-1.77.56.06-.077.532-.256.397-.211-.346.058-.604.263-.861.437l.055-.116c-.486.228-.965.468-1.436.723-.314-.115-1.356.668-1.326.479-.515.25.473-.127-.163.219-.216 0-.559.341-.599.199l.061-.051-.442.249.215-.275c-.375.23-.58.519-.547.621-.399.132-.867.492-1.093.48l.111-.11c-.954.653-1.839.727-2.44 1.47-.067.024-.082-.009.035-.093l-.582.428.071-.19a31.12 31.12 0 0 0-.835.872l-.034-.065c-.63.478-1.531 1.329-2.231 2.063l.084-.13c-.704.862-.8.716-1.294 1.367a.194.194 0 0 1 .035-.084l-.482.549.055-.167c-.243.503-1.151 1.061-.839.885-.141.282-.401.748-.382.875-.474.638-.195.096-.535.458-.346.463-.302.617-.792 1.228l-.052-.053-.53.969.051-.147c-.305.783-.724.781-.765 1.506-.226.273-.484.883-.601.788a53.89 53.89 0 0 0-1.016 2.685c-.279.064-.075.207-.418.74l.135.002c-.497 1.351-1.285 2.863-1.574 4.454l-.135.015.069.344C.335 27.074.035 29.308 0 30.69c.048.457.184 1.142.153 1.856l-.019-.076.343 3.904c-.065-.076-.084.062-.139-.084.182.302.117.791.164 1.08l.039-.353c.18.363.159.927.108 1.138l.254.573c-.003.043-.01.108-.028.12l.088.092-.095.354c.069.142.299.92.525 1.12-.039.07.067.634-.077.215.183.723.385 1.44.619 2.149l-.059-.35c.109-.081.397.524.468.866-.256-.389-.183.026-.202.243.171.261.012-.287.134-.161.209.329.552 1.055.58 1.262l-.136-.19c.247.457.134.767.362 1.227.283.375.354.718.506.536.332.572-.021.295.056.497.232.232.611 1.076.578 1.234.446.16.812 1.6 1.123 1.565l.17.54c.069-.025.264-.026.538.319.169.387.014.376.026.522l.381.069c1.156 2.127 3.46 4.337 5.349 6.176.948.707 2.207 1.491 3.346 2.249l-.147-.053c.37.267.746.523 1.126.775-.262-.207-.528-.405-.784-.618.267.134.495.204.738.355 1.219.858 2.966 1.886 4.747 2.409 1.222.121.651.538 1.812.684-.102-.003-.148.028-.242.029 1.209.273 1.874.394 3.11.483-.202.275.784.155.646.289l.123-.104c.252.132.885.258.78.332l.561-.07.028.133c.712.124 2.259.163 2.624.431 1.8-.064 4.614-.084 6.845-.4.296-.153.939-.27 1.438-.383l.565.035c.502-.157.99-.475 1.481-.51.001.018-.015.035-.045.053.502-.166 1.009-.234 1.435-.52.552-.167 1.107-.288.988-.093-.03-.25 1.165-.396 1.166-.402-.01-.016 1.783-.6 4.331-2.042 2.543-1.43 5.786-3.841 8.481-7.086 2.725-3.212 4.817-7.221 5.858-10.9 1.074-3.68 1.163-6.941.897-8.724-.114-.246-.173-.905-.329-.657-.039-.505.183-.735.06-.835-.092.685-.32-.211-.483.453l-.025-.425c-.088-.088.093.58-.066.473l.231.124c-.039.345-.102.533-.184.651.08.326.386.554.19 1.322l.004-.216c-.046.633-.184.374-.233.502l.015-.139-.166.517c.118-.393-.017-1.067-.032-.721-.13.739.074-.188.053.373-.018.349-.134.238-.204.216l-.062.62c-.104-.035.053-.408-.087-.171l.015.791c-.287.104.003.866-.317 1.175.035-.564-.098.033-.171-.07-.076.45-.162.898-.257 1.346-.064.118-.007-.37-.037-.164-.126.234-.03.427-.064.562-.095.099-.25.991-.418.906-.373.853.122.44-.236 1.236-.138.075.182-.662-.041-.33l-.239.861c-.023-.094-.11-.221.013-.531-.91 2.245-1.971 3.162-2.858 5.115-.262.201.029-.233.057-.463-.603 1.448-1.341 1.741-2.064 2.822l.075.081c-1.316 1.298-2.589 3.089-4.2 4.388l.23-.113c-.132.272-.466.589-.688.85-.077-.009.034-.331-.39.089.118-.05.337-.184.314-.095-.76.477-1.855 1.301-3.133 2.105-1.27.814-2.729 1.591-4.066 2.124-3.517 1.712-7.763 2.405-11.563 2.462.581-.016.34.255-.104.198-1.191-.457-2.095.022-3.291-.42-2.239-.116-4.07-.953-6.118-1.3l.005-.135c-.27-.158-.379-.1-.686-.205l.021-.03c-.696-.312-1.595-.563-1.965-.812l-.086.118c-.418-.184-.167-.198-.621-.334l.044-.059-.546-.126c.162-.194-1.125-.628-1.374-.928-.527-.26-1.532-.779-2.223-1.355-.062-.198-.933-.861-1.419-1.365-1.063-.838-2.489-2.172-3.554-3.536l-.105.129-.297-.344c.032-.018.009-.077.065-.034-.075-.387-.691-.785-.812-1.149.013.273.17.268.322.476.164.343-.18.158-.417-.295l.035-.014-.271-.227c.081-.106-.053-.394.03-.5-.864-1.199-1.579-1.961-2.235-3.359.196.079-.52-.977-.16-.807-.471-.795-.117.224-.453-.086-.107-.235-.279-.459-.212-.538.103.087.055-.253.159-.07l-.259-.56c-.004-.062.078.051.119.107-.612-1.111-.64-2.131-1.092-3.163-.109-.055.102.436-.007.383-.491-1.044-.122-1.006-.492-2.003l.169.186c-.156-.312-.298-.437-.308-1.008.123-.123.208.443.335.691-.083-.374-.295-1.32-.371-1.006-.13-.447-.023-.636-.025-.886-.037-.003-.026.439-.137.183-.018-.633-.139-1.595-.182-2.362.036.005.087-.053.109.013-.224-.598.096-.552.026-1.39z"/><path d="M27.344 3.171l-.315.031c.006.032-.001.071-.137.134l.452-.165zM13.845 9.257c-.023.034-.046.066-.063.102.056-.054.065-.082.063-.102zM11.366 11.917c.158-.207-.033-.07-.146-.002.018.024.047.043.146.002zM35.832 2.597c-.057.007-.093.022-.087.054.077-.018.095-.035.087-.054zM55.666 14.324l-.039-.088c.001.02.016.052.039.088zM55.038 13.146a1.426 1.426 0 0 0-.187-.194.92.92 0 0 0 .187.194zM30.094 2.504a.72.72 0 0 0-.245.064.631.631 0 0 0 .245-.064zM54.65 12.763l-.202-.263c-.009.005-.017.007-.025.014l.227.249zM55.895 14.672c-.072-.107-.174-.249-.229-.348a.962.962 0 0 0 .229.348zM44.261 4.766l-.035-.011c-.262-.047-.103-.006.035.011zM53.505 11.847l-.026-.037-.094-.043zM56.652 15.877a.591.591 0 0 0-.111-.123l.088.166c.005-.024.013-.036.023-.043zM48.496 7.382c.107.007.158-.004.177-.025-.094-.06-.166-.078-.177.025z"/></g><path fill="none" stroke="#6E7072" stroke-width="2" stroke-miterlimit="10" d="M20.862 17.499h22.419"/><path fill="none" stroke="#6E7072" stroke-width="3" stroke-miterlimit="10" d="M32.216 17.498v43.468"/><path fill="none" stroke="#6E7072" stroke-width="1.5" stroke-miterlimit="10" d="M26.547 17.498v3.666M42.162 17.498v3.666M21.708 17.371v3.666M37.885 17.498v3.666M21.708 20.58s1.732 22.732 19.373 38.789M42.162 21.064s1.701 16.049 12.762 28.844M4.066 28.559c6.049 1.709 12.082-.244 17.642-7.979M7.338 18.441c10.134 9.84 22.234 14.263 34.824 2.723"/></svg>