<svg xmlns="http://www.w3.org/2000/svg" width="66" height="66" viewBox="-0.695 -0.077 66 66" overflow="visible"><ellipse fill="#FFF" cx="32.48" cy="32.263" rx="30.605" ry="30.852"/><g fill="#6E7072"><path d="M53.268 8.574a.113.113 0 0 0 .07-.025c-.041-.001-.061.009-.07.025zM39.667 1.038l.187.013c-.119-.025-.167-.024-.187-.013zM59.08 15.819c-.011-.008-.015-.006-.024-.011l.324.567-.3-.556zM8.634 10.348l.144-.159c-.066.071-.113.112-.144.159zM26.001.722c-.055.04-.156.072-.254.103.128-.024.228-.052.254-.103zM59.994 20.731l-.009-.27c-.036.02-.039.12.009.27zM62.521 29.406c.007-.008.013-.01.02-.026-.01-.011-.015.003-.02.026zM62.363 25.805l-.095-.244c.025.107.055.243.095.244zM62.218 25.446l.05.115c-.018-.066-.034-.12-.05-.115zM64.249 33.768c.014-.276-.047-.516-.102-.764l.102.764zM.881 39.172L.83 39.12c.024.053.04.06.051.052zM63.434 33.394l.026-.189a.83.83 0 0 0-.026.189zM57.616 16.619c-.212-.172-.402-.676-.479-.622.164.219.305.586.479.622zM6.118 43.989l.071.151a1.36 1.36 0 0 0-.071-.151zM63.434 33.394l-.03.22c.018-.018.032-.042.049-.063a.688.688 0 0 1-.019-.157zM21.018 62.771l-.01-.002-.067-.008zM22.592 63.486l-.36-.087a.993.993 0 0 0 .36.087zM64.147 33.004l-.067-.434c.008.156.037.297.067.434zM40.897 63.778l-.161.056a.786.786 0 0 0 .161-.056zM27.278.541l.149-.004c.012-.024 0-.037-.149.004zM16.898 7.098l-.002.002v.002zM17.366 6.673c-.179.08-.379.287-.468.425.166-.103.309-.22.468-.425zM15.761 7.795l.066-.032a.311.311 0 0 0-.066.032zM27.246 3.207l-.002-.011-.006.011zM24.852 3.766a.742.742 0 0 0-.174.004.65.65 0 0 0 .174-.004zM11.292 11.997l-.001-.004-.008.01z"/><path d="M3.978 33.069c-.142-2.265-.035-5.254.559-7.449-.074-.523.096-1.229.269-1.937l.266.001.105-.599c.149-.208-.096.456.128.074l-.08-.266c.096-.02.578-1.434.407-.425.263-.729.555-1.448.874-2.154.226-.462-.073-.367.237-.852.118-.071-.045.207.058.205.932-1.429.467-1.998 1.427-3.311l-.046.134c.092-.267.386-.7.363-.724-.333.027-.045.319-.442.647-.158-.154.239-.58.085-.645.282-.27.302-.528.49-.806.435-.385.861-1.085 1.262-1.311.124-.255.153-.636.546-1.092.412-.208.053.18.49-.21l-.029-.153c.339-.339.313-.259.345-.206.358-.363.167-.432.68-.826l-.167.338c.302-.367.451-.491.94-.931.039.063-.156.239-.312.356.388-.106.388-.479.549-.592-.08-.006-.432.289-.351.044.256-.204.407-.598.683-.64l-.189.328c.451-.525.171-.363.807-.831-.027.034.009.045.012.077.284-.442.889-.733 1.491-1.153l-.092.11c.211-.211.285-.392.42-.478-.387.182-.314.086-.416.009.577-.148.562-.694 1.411-1.083.025.07-.116.258-.368.332-.143.354-.08.518-.474.914.25-.24.575-.481.551-.36l-.02-.225c.169-.121.316-.197.45-.281.009-.154-.469.052-.102-.276.432-.348.354.018.38-.103.608-.45.155-.351.822-.651-.055.05-.162.149-.226.164.489-.191 1.107-.649 1.353-.504-.045.082-.024.152-.206.226l-.01-.035c-.421.418.397-.264.34.012-.093-.095.566-.399.875-.511l-.157-.088c.809-.856.066.28 1.021-.207.588-.357-.253.062.091-.196.438-.152.642-.101 1.25-.397.195-.012.581-.063.664.08.361-.201 1.19-.313 1.366-.528-.707.068-.61.361-1.445.421l.164-.228c.538-.171 1.207-.463 1.601-.508-.084-.009-.13-.039-.091-.085.764-.271.956-.483 1.74-.604.132.123-.325.191-.648.283.521.003.518-.118 1.301-.22.065.118-.521.09-.584.237l.844-.208c-.002.008.003.016.005.025.088-.229.656-.101 1.173-.232 1.248-.16 1.414-.452 2.11-.674.194.045.252.097.176.155-.319-.075-.258-.004-.363.059.429-.053.947.155.713.253.672-.087-.25-.104.162-.186.31-.009.62-.014.93-.01-.11-.108-.442-.128.043-.217.408-.038.606-.007 1.14.008-.079.052.163.168-.236.154.256.043.655.069.815-.032-.578-.13.962-.041.538-.232l.577.143c-.133-.013-.153.055-.348.021.152.175.48-.005.687-.004.203.047.732.129.769.196.188-.026.631.078.702.172.275.005.037-.104.125-.146l.92.17c.032.1.062.365-.082.373.359-.017.174-.243.694-.132-.332.109.656.285.181.397.269.188 1.101.382 1.567.468.32-.058-.473-.212-.408-.344 1.302.3 1.501-.041 2.424.342l-.234-.125c.613.132.542.12.926.135-.223.109.492.689 1.427 1.064.117-.047-.45-.387-.243-.451l.633.25c.039.033-.041.03-.131.016.584.194.92.692 1.17.585l.424.516-.162-.214c.115-.039.729.255.867.299.656.254.833.46 1.096.754-.062-.126-.231-.432.248-.163-.155.237.909.716.81.835.184.124.451.421.542.338l-.137.128c.189-.18.836.304 1.349.652-.32.18.548.403.556.821.242-.108.885.643 1.096.573.358.315.173.443.21.578l.22.088c.099.243.716.878 1.016 1.316l.483.222.052.199c.09.023.383.31.273.069l.166.208c.187-.131.29.244.705.597.049.119-.014.127-.109.056.165.209.004.192.035.353-.071-.189.91.507.546-.124.044-.098.354.2.482.435l-.064.25.357.13c.271.319.264.54.434.829-.206-.277-.747-.401-.248.315-.281-.365-.501-.486-.675-.65.099.15.135.234-.099.058.447.513.232.112.638.65-.17.069-.11.257.153.779l-.128-.438c.03.005.06.021.087.043-.074-.15-.076-.205-.038-.274.068.112.618.532.581.689-.119-.733.808.902.725.444.083.042.338.448.28.538-.399-.429.031.475-.127.456.147.16-.099-.455.099-.239.177.29.197.562.232.756l-.096-.109.169.499c.12.035-.098-.518.167-.113.024.13.278.542.207.56-.213-.15-.287.071-.494-.279.166.292.639 1.255.607.791l.164.37c-.036-.26-.212-.968.153-.237l-.036.008.354.464.013.265c.04-.025.114.041.19.238-.03.072.024.264-.049.275.236.562.295.487.376.542.133.317.142.449-.015.336.14.446.418 1.213.417 1.545.255.575 0-.134.221.181-.138.604.429 2.018.647 3.019.218-.324.085.267.361.409-.12-.202-.053.994-.274.123l.116.534c-.09.388-.257-.868-.371-.282.105.592.458.948.437 1.675-.218-.219.119.543-.114.385-.081-.141-.08-.339-.119-.538l-.024.127c.067 1.324.269.359.459 1.046.077.814-.114.65-.203.702-.034.128.013.533.07.745-.137-.489.089-.919.221-.697-.203.367.016 1.209.104 1.435.219-1.176.006-.809.203-1.924-.084-.148-.269-.109-.246-.773.135.405.108-.039.13-.159-.101.138-.088-.454-.162-.648.071-.195.309.368.278-.31l-.283-.093c.004-.265.212.086.07-.462.18.282.209-.123.348.632.114-.939-.314-1.376-.542-2.048.029.067.066.069.098.136-.1-.136-.143-.405-.202-.606-.037-.47.196.336.241.204l-.163-.741c.006-.017.01-.021.015-.023-.076-.188-.149-.365-.1-.449.138.2.249.267.349.401l-.368-.737c.111.063-.02-.678.19-.143-.115-.38-.226-.761-.354-1.137l.146-.149c-.112-.265-.148-.262-.073.073-.064-.412-.861-1.615-.456-1.529-.462-.828-.521-1.167-1.059-2.166.508.73-.215-1 .235-.188-.157-.526-.378-.549-.595-.917-.107-.393.131-.314.384.048l-.301-.422.037-.007-.294-.349c-.134-.461.117-.175-.092-.616l-.193-.016-.077-.334c-.006.145-.169-.094-.361-.391l.035-.011-.243-.355c.303.315-.173-.354.025-.246-.189-.316-.188-.327-.577-.867l-.029.158c-.555-.669.122-.123-.266-.709l-.08.108c-.399-.958-1.094-1.323-1.451-1.984.29.316.339.141.305.156-.429-.482-1.091-1.304-1.656-1.689-.03-.302-.023-.388-.445-.939-.357-.352-.429-.386-.618-.426-.293-.394-1.038-.926-.969-1.04-.153.003-.311-.307-.574-.411l-.008-.079-.051.124c-.474-.775-1.215-.796-1.762-1.504l.142.061-.324-.176c-.015-.08.126-.019.183-.067-.454-.342-.92-.667-1.391-.986l.227.266c-.305-.19-.575-.211-.879-.496.678.197-.476-.305-.499-.48l.341.145c-.437-.247-.437-.247-.466-.115-.583-.282-.265-.434-.855-.603l.37.211c.071.127-.242.063-.492-.07-.049-.049-.2-.193-.002-.105-.469-.201-1.125-.6-1.352-.647-.232-.153-.112-.197.038-.163-1.038-.358-.438-.236-1.488-.566l.046-.06-.38-.063-.445-.337.146.157c-.339-.118-.566-.149-.948-.327l.195-.044c-.975-.28-1.06-.552-2.031-.68-.059-.036.096-.03.175-.025-.908-.076-.605-.368-1.534-.385.062-.022-.023-.089.018-.11l-.418-.021.062-.134-.373.136-.22-.2-.172.037c-.38-.358-1.032-.263-1.6-.549l.077.196c-1.542.149-3.446-.576-5.303-.356l.03-.145-.754.196c-.413-.098.239-.133.109-.202-.811.12-.329.226-1.267.333-.489-.052.159-.126.383-.188-.881.126-2.165.367-2.795.391-.012.022-.046.053-.013.056-.572.155-1.346.239-1.979.392.001-.068.157-.113.312-.161-.229.041-.554.064-.732.181l.209-.18c-.496.088-1.399.45-1.546.341.074.037.079.148-.337.266-.297-.148-1.097.438-1.785.565.061-.078.537-.258.401-.213-.349.059-.609.265-.868.44l.056-.117c-.491.229-.974.472-1.449.728-.315-.115-1.367.673-1.336.484-.52.251.476-.13-.165.22-.218.001-.563.343-.604.201l.061-.051-.445.25.217-.276c-.378.232-.585.522-.553.624-.402.133-.874.495-1.102.485l.113-.111c-.962.659-1.852.735-2.46 1.483-.067.025-.082-.008.036-.093l-.587.431.072-.19c-.288.287-.567.582-.842.878l-.034-.065c-.635.482-1.543 1.339-2.25 2.081l.085-.132c-.71.869-.807.723-1.305 1.378a.184.184 0 0 1 .036-.084l-.486.553.055-.168c-.246.507-1.16 1.07-.846.893-.143.284-.405.753-.387.881-.478.643-.195.098-.538.462-.349.468-.306.622-.8 1.238l-.052-.053-.535.977.051-.148c-.309.789-.729.789-.772 1.519-.227.276-.488.891-.604.794a55.158 55.158 0 0 0-1.026 2.706c-.28.065-.075.208-.42.746l.136.003c-.501 1.362-1.292 2.887-1.584 4.491l-.134.018.068.347C.339 27.3.036 29.552 0 30.946c.048.46.184 1.151.153 1.872l-.019-.078.345 3.937c-.065-.076-.084.063-.139-.085.183.305.118.798.166 1.089l.039-.355c.18.366.16.935.109 1.147l.255.578c-.004.043-.01.108-.028.121l.088.092-.094.357c.069.142.3.927.527 1.13-.039.07.068.638-.077.216.185.728.388 1.452.625 2.167l-.06-.353c.11-.082.4.53.472.874-.257-.393-.184.026-.201.244.172.263.011-.289.134-.162.21.332.556 1.064.584 1.272l-.137-.191c.249.46.137.772.366 1.235.284.379.356.724.509.542.334.577-.019.297.057.5.234.234.616 1.086.583 1.244.448.162.819 1.612 1.131 1.579l.173.544c.069-.025.265-.025.541.323.172.389.015.378.029.525l.383.071c1.167 2.144 3.489 4.372 5.395 6.225.955.713 2.224 1.505 3.373 2.269l-.149-.054c.373.269.752.527 1.136.781-.265-.208-.533-.408-.791-.623.269.136.499.207.744.359 1.229.865 2.992 1.899 4.787 2.429 1.232.124.658.54 1.828.688-.103-.003-.15.027-.244.029 1.219.275 1.89.397 3.136.489-.203.275.791.157.651.29l.124-.104c.254.133.893.259.787.334l.565-.07.029.133c.718.126 2.277.165 2.645.433 1.814-.062 4.652-.083 6.901-.402.299-.153.947-.271 1.449-.386l.57.034c.507-.157.999-.477 1.493-.512.001.018-.015.035-.045.053.506-.168 1.017-.237 1.446-.523.557-.168 1.116-.291.996-.096-.03-.249 1.175-.399 1.176-.405-.01-.016 1.798-.605 4.366-2.06 2.563-1.441 5.833-3.872 8.55-7.144 2.747-3.238 4.857-7.279 5.908-10.988 1.084-3.71 1.175-6.998.909-8.795-.113-.248-.172-.913-.328-.663-.039-.509.183-.742.06-.842-.092.691-.32-.213-.483.457l-.025-.429c-.088-.089.093.584-.066.476l.231.125c-.039.348-.102.537-.184.657.08.328.386.557.189 1.333l.004-.218c-.046.638-.184.377-.233.506l.015-.139-.167.521c.119-.396-.015-1.077-.031-.727-.131.745.074-.19.053.376-.019.351-.135.24-.204.218l-.062.625c-.104-.035.053-.412-.087-.172l.014.797c-.287.106.002.874-.318 1.186.035-.569-.098.034-.171-.07-.077.454-.164.906-.26 1.357-.064.119-.006-.373-.037-.165-.126.236-.03.43-.064.566-.095.1-.253.999-.42.914-.376.86.12.443-.24 1.247-.138.075.184-.668-.04-.333l-.242.868c-.023-.094-.109-.222.015-.535-.917 2.266-1.982 3.193-2.879 5.163-.264.204.029-.234.059-.466-.61 1.46-1.352 1.758-2.082 2.849l.076.082c-1.326 1.312-2.612 3.117-4.237 4.429l.232-.114c-.134.274-.472.593-.695.855-.077-.008.036-.332-.393.092.12-.051.341-.187.317-.097-.767.481-1.871 1.313-3.16 2.126-1.281.822-2.754 1.606-4.104 2.145-3.549 1.727-7.835 2.429-11.67 2.485.587-.016.343.255-.104.198-1.202-.457-2.114.022-3.321-.422-2.259-.118-4.108-.959-6.175-1.312l.004-.135c-.272-.159-.382-.101-.692-.207l.021-.031c-.703-.313-1.61-.568-1.983-.818l-.087.118c-.422-.186-.168-.2-.626-.337l.045-.059-.551-.129c.163-.193-1.135-.633-1.386-.935-.533-.263-1.546-.788-2.243-1.369-.064-.198-.943-.868-1.434-1.376-1.073-.847-2.511-2.192-3.586-3.569l-.105.13-.3-.348c.032-.018.008-.077.065-.034-.077-.39-.697-.792-.82-1.16.014.275.172.271.326.48.166.346-.179.158-.419-.298l.035-.014-.272-.23c.081-.105-.055-.395.028-.502-.872-1.211-1.591-1.981-2.255-3.392.197.08-.524-.985-.163-.813-.474-.803-.117.226-.455-.088-.108-.237-.28-.463-.214-.543.103.088.054-.255.159-.07l-.262-.564c-.005-.062.079.051.119.107-.617-1.121-.648-2.149-1.102-3.191-.109-.056.104.439-.006.386-.494-1.054-.124-1.015-.497-2.021l.169.188c-.157-.315-.299-.441-.31-1.018.123-.124.208.447.336.698-.083-.378-.297-1.333-.373-1.017-.13-.45-.024-.642-.027-.893-.037-.004-.026.443-.137.184-.019-.639-.141-1.609-.184-2.384.036.004.088-.054.109.013-.231-.604.089-.558.019-1.404z"/><path d="M27.563 3.175l-.318.032c.006.032-.002.071-.139.134l.457-.166zM13.942 9.316c-.023.034-.047.067-.063.103.056-.054.065-.083.063-.103zM11.438 11.998c.16-.208-.032-.07-.146-.001.018.024.047.044.146.001zM36.128 2.598c-.058.007-.095.022-.089.054.079-.017.097-.035.089-.054zM56.14 14.43l-.039-.088c.002.02.017.051.039.088zM55.505 13.243a1.498 1.498 0 0 0-.188-.196c.07.096.134.154.188.196zM30.339 2.504a.725.725 0 0 0-.247.064.632.632 0 0 0 .247-.064zM55.115 12.856l-.205-.266c-.008.005-.016.007-.024.015l.229.251zM56.373 14.781c-.073-.108-.176-.251-.232-.351a.98.98 0 0 0 .232.351zM44.631 4.789l-.034-.012c-.264-.048-.104-.006.034.012zM53.961 11.93l-.026-.037-.095-.043zM57.136 15.997a.574.574 0 0 0-.112-.124l.089.167c.006-.025.013-.037.023-.043zM48.906 7.426c.108.007.159-.003.178-.024-.095-.061-.167-.079-.178.024z"/></g><path fill="#6E7072" d="M13.92 40.981l3.025-4.939 8.432.41-2.144 5.086zM17.241 35.484l2.455-4.145 7.768.31-1.776 4.251zM19.944 30.852l2.031-3.46 7.135.205-1.563 3.538zM22.216 26.951l1.812-2.94 6.562.115-1.238 3.033zM24.353 41.514l2.151-5.076 8.301.148-1.264 5.191zM26.707 35.866l1.719-4.247 7.636.06-1.048 4.343zM28.589 31.119l1.422-3.554 6.998-.017-.949 3.609zM30.179 27.114l1.289-3.017 6.427-.095-.72 3.094zM34.919 41.854l1.118-5.188 8.227-.159-.204 5.334zM36.147 36.081l.942-4.387 7.424-.226-.155 4.455zM37.149 31.178l.68-3.666 6.789-.289-.211 3.712zM37.901 27.045l.641-3.066 6.231-.248-.085 3.029zM45.104 41.736l.217-5.324 7.562-.281.957 5.237zM9.861 47.488l3.426-5.595 9.557.467-2.429 5.759zM21.685 48.089l2.439-5.75 9.169.161-1.2 5.89zM33.549 48.479l1.16-5.886 9.354.071-.374 5.803zM44.888 48.336l.184-5.639 8.993-.432 1.035 5.662zM45.302 35.821l.105-4.456 6.635-.321.711 4.499zM45.383 30.845l.071-3.716 6.006-.361.498 3.711zM45.452 26.658l-.015-2.927 5.493-.335.441 2.906zM41.422 11.714l-1.814-4.143-3.007 3.38-3.259-3.137-1.48 4.274-4.211-1.647.266 4.517-4.523.086 1.976 4.069-4.145 1.814 2.301 2.044 2.335-.066c.022-.407.06-.813.123-1.227.962-6.083 6.501-10.262 12.37-9.333 4.961.785 8.56 4.979 8.973 9.936l2.982-.089 2.413-2.507-4.277-1.477 1.648-4.213-4.517.265-.088-4.522-4.066 1.976z"/><path fill="#FFF" d="M27.381 22.328c.848-5.364 5.828-9.036 11.126-8.196 4.264.676 7.429 4.072 8.055 8.17l.764-.021c-.413-4.956-4.012-9.15-8.973-9.936-5.869-.929-11.408 3.25-12.37 9.333-.063.413-.101.819-.123 1.227l1.462-.044c.018-.175.028-.352.059-.533z"/><path fill="#6E7072" d="M38.507 14.132c-5.298-.84-10.278 2.832-11.126 8.196-.031.181-.041.357-.06.533l19.24-.56c-.625-4.097-3.79-7.493-8.054-8.169z"/></svg>