<svg xmlns="http://www.w3.org/2000/svg" width="66" height="69" viewBox="-0.408 -0.441 66 69" overflow="visible"><ellipse fill="#FFF" cx="32.986" cy="33.595" rx="31.111" ry="32.187"/><g fill="#6E7072"><path d="M54.27 9.055a.126.126 0 0 0 .072-.022c-.042-.004-.063.006-.072.022zM40.385 1.095l.191.016c-.12-.027-.17-.027-.191-.016zM60.116 16.619c-.012-.009-.015-.007-.024-.013l.323.589-.299-.576zM8.611 10.96l.143-.167c-.067.072-.113.118-.143.167zM26.314.768a1.066 1.066 0 0 1-.262.106c.132-.025.235-.055.262-.106zM61.015 21.676l-.007-.278c-.036.02-.042.123.007.278zM63.534 30.649c.007-.008.013-.01.02-.026-.011-.012-.016.003-.02.026zM63.38 26.939l-.096-.252c.027.11.056.251.096.252zM63.236 26.568l.049.119c-.018-.068-.034-.125-.049-.119zM65.261 35.141c.013-.284-.047-.529-.103-.785l.103.785zM.873 40.691l-.051-.054c.024.055.039.063.051.054zM64.446 34.759l.027-.195a.901.901 0 0 0-.027.195zM58.636 17.392c-.217-.18-.402-.704-.48-.651.163.23.304.609.48.651zM6.113 45.745l.072.156a1.637 1.637 0 0 0-.072-.156z"/><path d="M64.446 34.759l-.03.227c.019-.019.033-.044.049-.066a.716.716 0 0 1-.019-.161zM21.196 65.294l-.009-.004-.069-.009zM22.811 66.045l-.37-.093c.187.074.292.093.37.093zM65.159 34.356l-.067-.445c.008.16.036.305.067.445zM41.652 66.366l-.165.059a.837.837 0 0 0 .165-.059zM27.627.57l.153-.005c.013-.025.001-.038-.153.005zM16.999 7.388l-.003.002.001.002zM17.475 6.945c-.181.088-.385.302-.476.443.169-.109.316-.229.476-.443zM15.841 8.129l.067-.034a.324.324 0 0 0-.067.034zM27.599 3.238l-.002-.009-.006.009zM25.139 3.834a.817.817 0 0 0-.18.007.633.633 0 0 0 .18-.007zM11.312 12.544l-.001-.004-.008.01z"/><path d="M3.978 34.43c-.142-2.344-.035-5.434.554-7.709-.071-.539.093-1.271.269-2.002l.267-.005.104-.619c.15-.218-.098.472.129.074l-.081-.273c.098-.022.577-1.491.408-.446.263-.757.552-1.505.872-2.24.226-.481-.069-.373.236-.882.12-.075-.046.214.059.209.936-1.495.469-2.062 1.43-3.439l-.045.139c.09-.277.391-.727.362-.753-.331.042-.044.327-.443.677-.163-.154.242-.6.085-.661.277-.29.309-.546.489-.841.446-.403.863-1.14 1.274-1.378.12-.268.155-.652.547-1.132.417-.226.056.184.495-.231l-.031-.156c.345-.354.319-.272.351-.219.356-.387.171-.441.685-.865l-.166.351c.302-.386.455-.515.951-.979.041.063-.162.245-.315.372.391-.125.396-.496.554-.622-.078 0-.436.31-.355.06.255-.22.414-.618.691-.674l-.191.34c.454-.55.174-.373.816-.872-.027.036.009.045.013.078.291-.454.9-.774 1.516-1.215l-.095.113c.217-.218.286-.41.427-.498-.396.193-.319.1-.424.024.587-.171.571-.719 1.435-1.141.025.069-.118.263-.374.348-.146.358-.079.525-.48.937.255-.248.583-.507.561-.382l-.021-.226c.175-.124.32-.212.458-.299.009-.155-.48.065-.104-.274.442-.365.362.005.389-.119.618-.476.159-.355.837-.683-.056.052-.166.153-.229.172.499-.208 1.13-.687 1.382-.548-.044.085-.023.155-.21.234l-.012-.035c-.43.432.407-.275.348.001-.096-.094.579-.416.894-.537l-.161-.085c.827-.878.066.276 1.046-.233.599-.379-.258.072.092-.199.448-.164.657-.12 1.28-.429.2-.021.596-.078.682.064.369-.212 1.221-.338 1.401-.557-.726.081-.625.373-1.482.452l.168-.231c.55-.188 1.238-.489 1.642-.543-.086-.008-.133-.038-.093-.084.785-.281.98-.501 1.788-.633.137.123-.335.193-.667.293.535-.009.533-.124 1.338-.24.066.116-.537.099-.601.246l.868-.22c-.002.008.003.017.005.026.089-.234.675-.108 1.206-.246 1.284-.172 1.455-.463 2.171-.689.199.044.26.095.181.154-.328-.074-.266-.003-.374.06.442-.054.975.152.734.25.692-.088-.257-.103.167-.186.319-.009.638-.016.957-.012-.113-.108-.455-.127.044-.217.421-.038.624-.007 1.175.009-.081.052.167.169-.243.154.263.043.674.071.839-.031-.596-.132.991-.037.555-.229l.594.146c-.138-.014-.158.055-.358.018.157.178.494-.002.707 0 .209.05.753.134.79.202.194-.022.65.083.723.179.284.01.039-.104.129-.145l.947.183c.032.1.062.366-.085.372.369-.012.179-.244.714-.123-.343.105.674.293.186.4.276.188 1.129.403 1.609.494.33-.054-.486-.219-.419-.351 1.337.323 1.543-.016 2.488.39l-.237-.129c.631.144.558.132.95.157-.229.104.504.7 1.461 1.103.119-.045-.462-.397-.249-.458l.648.268c.039.035-.043.028-.134.01.597.212.938.724 1.195.621l.433.529-.166-.219c.119-.04.744.279.886.326.669.279.852.486 1.117.794-.063-.129-.236-.441.255-.157-.16.235.926.75.821.87.188.131.462.436.553.358l-.139.122c.192-.172.852.335 1.372.706-.331.174.559.424.561.851.247-.102.898.682 1.112.618.362.333.176.455.212.593l.222.099c.098.25.726.914 1.025 1.373l.488.242.052.204c.092.026.39.327.278.079l.167.218c.185-.124.297.254.71.632.05.123-.014.129-.11.053.167.218.003.196.035.359-.07-.196.914.551.552-.107.043-.097.357.216.487.459l-.068.254.362.144c.272.333.26.562.436.86-.21-.288-.755-.433-.253.315-.284-.381-.505-.513-.679-.687.1.156.136.243-.1.055.445.542.234.122.641.685-.172.066-.114.261.152.802l-.128-.451a.2.2 0 0 1 .088.047c-.076-.155-.078-.211-.039-.28.072.115.622.564.585.723-.118-.755.813.946.729.476.087.043.338.469.28.559-.399-.452.029.487-.128.462.149.168-.101-.467.1-.241.18.301.192.583.231.782l-.097-.114.168.516c.122.039-.093-.536.169-.111.022.135.28.562.208.579-.214-.159-.289.065-.498-.299.169.302.639 1.305.609.828l.163.384c-.031-.271-.214-.998.156-.241l-.036.008.354.486.012.271c.04-.024.112.045.19.25-.03.073.024.271-.049.281.232.585.296.507.375.565.136.328.137.466-.016.345.138.462.418 1.256.414 1.599.256.596 0-.138.222.19-.141.619.426 2.085.643 3.12.218-.331.088.275.361.426-.121-.209-.053 1.022-.274.124l.116.551c-.092.399-.256-.897-.371-.295.104.613.457.983.435 1.732-.217-.228.118.561-.114.397-.082-.146-.079-.351-.119-.556l-.024.131c.066 1.367.27.373.459 1.082.077.84-.115.67-.204.724-.034.132.013.55.069.77-.135-.506.09-.949.222-.719-.202.378.016 1.248.104 1.48.219-1.213.006-.834.203-1.984-.083-.153-.269-.114-.245-.798.135.418.108-.039.13-.163-.102.142-.087-.468-.162-.669.072-.201.31.381.279-.318l-.283-.098c.005-.273.212.09.07-.476.18.292.211-.125.348.654.116-.966-.314-1.42-.54-2.115.03.07.067.072.098.141-.098-.141-.145-.418-.2-.626-.035-.484.194.349.24.213l-.162-.765c.005-.017.009-.022.015-.023-.077-.195-.146-.378-.098-.464.139.207.245.278.347.418l-.367-.764c.11.067-.014-.699.19-.144-.113-.393-.223-.787-.351-1.174l.146-.15c-.112-.274-.148-.271-.073.073-.062-.425-.86-1.675-.452-1.579-.459-.861-.521-1.208-1.057-2.246.507.761-.21-1.031.236-.186-.15-.545-.379-.571-.593-.955-.107-.405.134-.319.387.06l-.302-.44.036-.007-.293-.366c-.133-.476.117-.174-.089-.633l-.193-.021-.078-.343c-.007.147-.171-.101-.361-.411l.035-.011-.245-.369c.302.332-.17-.368.029-.252-.192-.327-.189-.338-.58-.901l-.029.16c-.56-.699.122-.121-.264-.732l-.081.107c-.396-.991-1.103-1.381-1.458-2.068.294.329.343.154.309.167-.437-.501-1.097-1.363-1.668-1.774-.031-.306-.021-.395-.448-.968-.36-.369-.43-.409-.624-.454-.294-.41-1.049-.975-.978-1.087-.158.001-.313-.322-.581-.436l-.009-.079-.052.124c-.476-.803-1.234-.844-1.785-1.581l.144.065-.33-.187c-.015-.08.128-.015.187-.062A30.55 30.55 0 0 0 50.43 5.86l.231.273c-.312-.198-.584-.235-.896-.527.691.22-.483-.324-.508-.5l.349.155c-.446-.26-.446-.26-.477-.128-.592-.308-.271-.441-.871-.634l.377.225c.073.129-.25.06-.502-.087-.051-.05-.205-.199-.002-.105-.479-.214-1.15-.633-1.38-.689-.238-.159-.115-.2.038-.163-1.062-.387-.446-.248-1.521-.607l.047-.059-.391-.074-.455-.35.15.16c-.35-.123-.58-.165-.973-.349l.201-.041c-1-.303-1.087-.574-2.084-.725-.061-.038.098-.028.179-.02-.934-.092-.621-.382-1.576-.412.064-.021-.024-.089.019-.11l-.43-.029.064-.133-.384.131-.225-.2-.177.036C38.842.535 38.171.623 37.587.33l.079.196c-1.587.135-3.549-.602-5.462-.378l.031-.145-.777.198c-.425-.096.247-.132.113-.201-.835.124-.339.226-1.305.34-.504-.05.163-.126.394-.19-.908.13-2.229.382-2.879.415-.012.021-.047.053-.013.056-.589.158-1.384.258-2.036.418.001-.068.161-.115.32-.165-.237.042-.57.074-.753.192l.215-.183c-.51.096-1.438.473-1.588.369.076.036.081.147-.346.271-.306-.144-1.125.464-1.831.605.061-.082.551-.27.411-.223-.359.065-.624.283-.89.461l.057-.118c-.502.242-.996.499-1.483.767-.323-.105-1.397.715-1.366.525-.532.265.488-.141-.168.225-.222.01-.574.363-.616.22l.062-.053-.454.267.22-.287c-.383.25-.597.541-.562.645-.408.15-.892.524-1.122.524l.114-.115c-.978.695-1.887.798-2.502 1.574-.068.026-.084-.006.037-.095l-.595.456.073-.194c-.293.298-.573.608-.853.916l-.035-.065c-.645.507-1.562 1.407-2.273 2.184l.086-.136c-.713.908-.814.76-1.312 1.444a.195.195 0 0 1 .035-.087l-.49.578.054-.174c-.243.525-1.166 1.126-.849.937-.145.291-.402.781-.386.909-.479.67-.194.108-.541.489-.351.486-.306.642-.8 1.286l-.052-.053c-.194.325-.273.554-.535 1.011l.052-.152c-.307.814-.728.827-.77 1.571-.223.29-.489.922-.604.828a56.544 56.544 0 0 0-1.018 2.793c-.284.072-.072.215-.419.773l.136-.001c-.497 1.406-1.286 2.982-1.573 4.63l-.135.02.068.354C.334 28.501.036 30.813 0 32.243c.047.472.184 1.182.153 1.921l-.019-.079.341 4.042c-.065-.079-.083.064-.139-.088.184.313.116.818.164 1.118l.039-.364c.182.377.158.961.108 1.178l.254.597c-.004.044-.01.111-.028.123l.089.096-.095.365c.067.146.297.955.524 1.166-.039.071.068.654-.077.22.179.75.385 1.495.618 2.231l-.059-.362c.106-.08.402.55.468.905-.255-.408-.186.023-.202.245.173.272.011-.295.134-.163.211.345.555 1.102.581 1.316l-.134-.2c.244.479.136.792.36 1.273.287.393.352.749.509.566.336.598-.02.302.057.512.231.246.614 1.126.58 1.286.445.182.82 1.667 1.128 1.646l.173.558c.073-.025.263-.015.543.347.173.399.013.386.025.537l.386.084c1.168 2.217 3.501 4.562 5.432 6.499.965.757 2.258 1.591 3.424 2.401l-.151-.058c.381.279.765.556 1.157.819a26.564 26.564 0 0 1-.805-.65c.275.143.505.229.758.385 1.25.913 3.053 1.997 4.891 2.573 1.264.152.672.56 1.874.73-.105-.005-.154.024-.25.024 1.251.301 1.94.437 3.222.547-.21.272.812.17.669.3l.127-.103c.262.136.918.271.81.344l.582-.063.029.133c.74.134 2.346.185 2.725.452 1.87-.054 4.794-.078 7.111-.427.308-.154.975-.282 1.491-.401l.587.025c.521-.166 1.026-.495 1.534-.539.001.019-.015.036-.046.054.52-.177 1.045-.254 1.484-.553.572-.179 1.146-.316 1.022-.116-.03-.248 1.204-.429 1.205-.437-.01-.014 1.845-.645 4.46-2.191 2.613-1.529 5.927-4.096 8.652-7.512 2.759-3.382 4.854-7.562 5.893-11.38 1.074-3.818 1.156-7.19.893-9.037-.114-.255-.173-.937-.329-.68-.04-.523.184-.763.06-.866-.092.71-.32-.219-.483.47l-.025-.441c-.088-.092.093.601-.066.49l.231.128c-.039.358-.102.553-.184.676.08.338.386.572.19 1.37l.004-.223c-.045.656-.184.389-.233.521l.015-.144-.165.537c.116-.408-.016-1.108-.032-.748-.132.768.073-.195.052.387-.019.361-.134.249-.204.226l-.062.645c-.105-.036.053-.425-.087-.177.011.273.015.547.015.82-.287.112.002.899-.316 1.224.031-.587-.098.036-.171-.07-.079.468-.162.935-.26 1.399-.064.124-.005-.383-.036-.169-.127.245-.027.443-.063.584-.096.104-.25 1.032-.42.947-.371.893.119.453-.236 1.286-.137.081.181-.69-.042-.341l-.238.897c-.023-.096-.115-.228.012-.551-.916 2.346-1.98 3.328-2.879 5.374-.268.214.034-.239.057-.48-.605 1.517-1.355 1.842-2.09 2.981l.076.08c-1.335 1.385-2.627 3.274-4.276 4.659l.237-.123c-.138.279-.476.62-.705.891-.077-.004.032-.34-.397.108.123-.053.342-.204.32-.111-.774.519-1.899 1.396-3.21 2.262-1.308.868-2.809 1.707-4.19 2.282-3.629 1.836-8.041 2.6-11.989 2.657.604-.017.354.254-.108.198-1.237-.457-2.176.019-3.418-.435-2.325-.135-4.224-1.012-6.344-1.41l.005-.134c-.281-.163-.392-.112-.71-.225l.022-.03c-.719-.334-1.649-.61-2.031-.873l-.089.117c-.432-.197-.169-.21-.641-.356l.046-.058-.563-.146c.165-.187-1.156-.676-1.416-.982-.542-.283-1.576-.845-2.284-1.456-.064-.203-.958-.91-1.455-1.443-1.088-.896-2.548-2.311-3.63-3.754l-.107.128-.301-.365c.032-.017.008-.079.066-.033-.079-.397-.704-.832-.825-1.212.017.279.169.285.327.502.17.355-.186.158-.421-.319l.035-.013-.276-.243c.08-.104-.05-.408.032-.513-.88-1.267-1.6-2.08-2.264-3.546.195.089-.526-1.027-.162-.84-.48-.837-.117.228-.458-.103-.11-.246-.277-.485-.214-.564.104.093.054-.261.16-.067l-.262-.588c-.004-.064.079.054.121.113-.619-1.168-.648-2.229-1.103-3.312-.11-.061.104.454-.005.397-.494-1.097-.125-1.049-.495-2.095l.168.196c-.153-.328-.301-.459-.308-1.055.124-.128.208.465.336.726-.084-.391-.296-1.382-.373-1.055-.127-.468-.025-.663-.025-.924-.04-.003-.026.458-.138.189-.018-.661-.139-1.665-.182-2.467.036.005.088-.055.109.015-.234-.623.088-.574.017-1.45z"/><path d="M27.926 3.202l-.327.037c.006.032-.001.071-.143.135l.47-.172zM13.993 9.729c-.023.036-.047.07-.063.107.056-.058.065-.087.063-.107zM11.46 12.541c.157-.222-.032-.07-.148.003.018.024.049.043.148-.003zM36.741 2.611c-.059.007-.097.022-.091.054.081-.017.1-.035.091-.054zM57.153 15.108l-.038-.093a.242.242 0 0 0 .038.093zM56.516 13.876a2.108 2.108 0 0 0-.188-.208.863.863 0 0 0 .188.208zM30.781 2.507a.744.744 0 0 0-.254.067.685.685 0 0 0 .254-.067zM56.123 13.468l-.206-.277c-.009.005-.017.006-.025.014l.231.263zM57.388 15.473c-.074-.113-.179-.261-.235-.364.066.162.143.273.235.364zM45.472 4.961l-.035-.013c-.271-.054-.107-.009.035.013zM54.958 12.485l-.027-.038-.097-.047zM58.156 16.74a.626.626 0 0 0-.114-.13l.09.173c.005-.025.013-.036.024-.043zM49.833 7.746c.109.012.161.003.18-.017-.095-.066-.168-.088-.18.017z"/></g><path fill="#6E7072" d="M28.053 13.318L9.942 47.598l32.026 4.459 10.676-36.262z"/><path fill="#FFF" d="M31.336 16.472l16.098 1.659-2.812 7.833-17.372-2.159z"/><path fill="none" stroke="#FFF" stroke-width=".5" stroke-miterlimit="10" d="M25.75 26.649l18.345 2.474M24.892 29.123l18.345 2.474M24.055 31.452L42.4 33.923M22.594 33.923l18.345 2.473M21.551 37.012l18.345 2.474M20.163 40.348l11.602 1.564"/><path fill="none" stroke="#FFF" stroke-miterlimit="10" d="M37.667 49.275s-5.272-6.11-2.261-6.27c3.013-.159 3.83 2.985-3.156 4.081"/><path fill="none" stroke="#6E7072" stroke-miterlimit="10" d="M10.414 47.12l31.554 7.913M54.272 17.822L41.968 52.057M55.621 21.217L41.254 55.033"/></svg>