<svg xmlns="http://www.w3.org/2000/svg" width="66" height="67" viewBox="-0.173 -0.769 66 67" overflow="visible"><ellipse fill="#FFF" cx="33.002" cy="32.789" rx="31.128" ry="31.378"/><g fill="#6E7072"><path d="M54.136 8.706a.117.117 0 0 0 .071-.024c-.041-.002-.062.008-.071.024zM40.307 1.051l.189.014c-.12-.025-.169-.025-.189-.014zM60.047 16.069c-.012-.008-.015-.006-.025-.011l.33.576-.305-.565zM8.771 10.52l.146-.162c-.067.071-.116.114-.146.162zM26.418.732c-.057.04-.159.072-.259.104.13-.024.231-.052.259-.104zM60.998 21.055l-.011-.274c-.035.02-.038.121.011.274zM63.563 29.883c.006-.008.012-.011.02-.026-.01-.013-.016.002-.02.026zM63.396 26.221l-.096-.248c.026.108.055.247.096.248zM63.25 25.855l.05.117c-.018-.067-.034-.122-.05-.117zM65.293 34.318c.014-.281-.047-.523-.102-.776l.102.776zM.893 39.809l-.051-.053c.024.055.039.062.051.053zM64.479 33.939l.026-.193a.724.724 0 0 0-.026.193zM58.582 16.869c-.214-.176-.409-.688-.486-.634.167.223.311.596.486.634zM6.162 44.728l.072.153a1.308 1.308 0 0 0-.072-.153zM64.479 33.939l-.031.223c.019-.018.033-.042.05-.064a.647.647 0 0 1-.019-.159zM21.354 63.791l-.009-.004-.068-.008zM22.955 64.513l-.365-.088c.185.072.289.089.365.088zM65.191 33.542l-.067-.44c.009.157.036.301.067.44zM41.555 64.812l-.163.057a.827.827 0 0 0 .163-.057zM27.715.548l.151-.004c.012-.025 0-.038-.151.004zM17.144 7.177l-.003.002.001.002zM17.621 6.747c-.183.081-.387.291-.478.43.169-.105.315-.223.478-.43zM15.986 7.887l.067-.033a.418.418 0 0 0-.067.033zM27.674 3.214l-.002-.01-.005.01zM25.237 3.783a.775.775 0 0 0-.177.005.601.601 0 0 0 .177-.005zM11.435 12.16l-.001-.004-.008.011z"/><path d="M3.978 33.61c-.144-2.306-.031-5.349.572-7.584-.072-.532.102-1.251.278-1.971h.267l.109-.609c.15-.213-.099.464.128.075l-.078-.27c.096-.021.588-1.46.41-.434.268-.742.564-1.474.889-2.193.23-.471-.07-.371.244-.866.119-.072-.047.21.057.208.946-1.457.484-2.03 1.459-3.368l-.048.135c.095-.271.395-.711.371-.735-.335.03-.048.323-.45.659-.158-.155.246-.589.09-.654.286-.275.309-.537.5-.819.441-.394.876-1.105 1.282-1.336.127-.259.16-.644.56-1.108.417-.214.051.182.495-.216l-.028-.155c.345-.345.319-.264.35-.21.365-.369.172-.437.693-.839l-.171.342c.308-.373.459-.5.957-.948.039.063-.16.243-.318.362.393-.111.396-.487.56-.602-.081-.006-.439.295-.355.048.261-.208.416-.607.695-.651l-.194.332c.459-.533.176-.367.822-.844-.027.035.009.045.012.077.291-.448.904-.746 1.517-1.173l-.095.111c.216-.214.292-.397.43-.485-.393.186-.319.089-.42.013.585-.154.575-.703 1.436-1.101.025.07-.119.26-.375.336-.147.357-.085.521-.487.923.255-.243.586-.488.562-.367l-.019-.226c.173-.123.322-.2.458-.286.011-.154-.475.057-.1-.276.44-.353.357.015.385-.107.62-.457.16-.354.838-.66-.056.05-.165.151-.229.166.498-.195 1.127-.66 1.375-.517-.046.083-.026.153-.211.229l-.01-.036c-.429.423.405-.268.345.01-.094-.095.577-.405.891-.519l-.158-.088c.826-.864.065.281 1.038-.214.6-.362-.257.064.094-.197.445-.155.652-.105 1.271-.406.199-.013.591-.066.674.076.368-.204 1.211-.32 1.391-.536-.719.072-.622.364-1.47.429l.168-.229c.547-.175 1.229-.471 1.629-.517-.085-.009-.132-.039-.092-.085.778-.274.973-.488 1.772-.612.134.123-.332.193-.661.286.53 0 .527-.12 1.324-.226.065.119-.531.093-.595.239l.859-.211c-.002.008.003.016.005.025.09-.23.667-.103 1.193-.235 1.27-.163 1.439-.455 2.148-.678.197.045.257.096.178.155-.324-.075-.263-.004-.369.059.437-.053.963.154.725.252.685-.088-.253-.103.165-.186.315-.009.631-.015.946-.011-.112-.108-.45-.127.043-.217.416-.038.617-.007 1.161.009-.081.052.165.168-.241.154.26.043.667.07.83-.032-.591-.131.977-.04.545-.232l.588.144c-.136-.013-.156.054-.354.02.156.176.489-.005.698-.003.207.048.745.131.782.198.192-.026.643.08.715.173.281.007.038-.104.127-.146l.937.173c.033.1.063.366-.082.372.366-.015.176-.243.706-.129-.338.107.668.288.186.398.273.189 1.12.387 1.595.476.326-.057-.481-.214-.416-.347 1.324.307 1.524-.034 2.464.354l-.235-.126c.624.136.552.124.94.141-.225.108.504.693 1.455 1.076.118-.047-.459-.391-.25-.454l.645.255c.04.033-.042.029-.133.015.594.198.938.701 1.189.595l.433.522-.166-.216c.116-.038.741.262.881.307.667.26.848.468 1.116.766-.064-.127-.238-.436.25-.162-.155.237.926.728.825.846.188.126.46.428.552.345l-.136.125c.19-.179.848.313 1.369.667-.323.179.558.411.568.832.244-.107.899.656 1.111.586.364.321.179.449.217.585l.224.09c.101.246.729.892 1.035 1.337l.489.228.054.201c.092.024.389.316.276.072l.17.211c.187-.131.294.249.715.609.05.122-.013.129-.109.056.167.213.005.195.038.356-.073-.191.92.521.549-.121.043-.098.358.205.488.444l-.062.251.36.135c.274.325.269.548.442.842-.209-.282-.754-.412-.246.317-.286-.372-.509-.496-.686-.664.102.153.139.238-.098.058.454.523.234.115.646.663-.17.069-.109.259.16.79l-.131-.444a.19.19 0 0 1 .087.044c-.076-.152-.078-.208-.041-.277.07.114.627.543.59.703-.125-.744.819.92.731.456.084.043.343.457.286.546-.404-.438.034.481-.125.461.15.163-.102-.462.099-.241.179.295.201.571.238.768l-.097-.111.173.506c.121.037-.102-.525.167-.113.025.132.282.552.211.569-.214-.154-.287.07-.497-.286.169.296.649 1.277.615.807l.167.375c-.038-.264-.22-.983.151-.24l-.036.008.359.474.014.268c.04-.025.115.042.192.244-.029.072.026.268-.047.279.24.573.299.497.38.552.135.323.145.457-.013.341.143.454.425 1.235.427 1.572.257.585-.001-.136.222.185-.136.613.438 2.052.659 3.071.217-.329.087.271.363.417-.121-.206-.051 1.01-.274.125l.118.542c-.089.395-.26-.883-.372-.288.107.603.461.966.44 1.705-.218-.224.12.552-.113.392-.081-.144-.081-.346-.121-.548l-.023.129c.07 1.347.27.366.461 1.065.077.828-.113.662-.203.714-.034.13.014.543.07.759-.136-.499.089-.936.221-.71-.202.373.018 1.23.104 1.46.219-1.197.006-.822.202-1.958-.085-.151-.269-.112-.247-.787.136.412.108-.039.13-.162-.102.141-.09-.461-.164-.66.071-.198.31.375.278-.315l-.284-.095c.004-.27.213.088.07-.47.18.287.208-.125.349.644.112-.955-.317-1.401-.548-2.084.03.069.067.07.099.138-.1-.138-.144-.413-.204-.617-.039-.478.197.342.242.208l-.166-.754c.005-.017.009-.021.015-.023-.077-.191-.151-.371-.102-.457.139.204.25.272.351.41l-.372-.751c.112.065-.021-.689.19-.144-.116-.387-.229-.774-.359-1.156l.146-.15c-.113-.27-.15-.267-.073.074-.066-.419-.87-1.644-.464-1.555-.468-.843-.529-1.188-1.074-2.204.514.744-.222-1.015.235-.188-.161-.535-.383-.559-.604-.933-.109-.399.13-.318.387.052l-.305-.43.036-.007-.297-.355c-.138-.469.117-.177-.097-.625l-.193-.017-.08-.339c-.005.146-.171-.096-.366-.398l.035-.011-.247-.361c.307.321-.176-.359.023-.249-.192-.321-.19-.333-.586-.882l-.028.16c-.562-.682.121-.124-.272-.72l-.079.108c-.409-.972-1.11-1.346-1.477-2.017.295.321.343.145.308.16-.435-.491-1.108-1.326-1.682-1.719-.033-.305-.026-.392-.457-.951-.362-.358-.435-.393-.626-.436-.299-.399-1.055-.942-.986-1.056-.154.002-.315-.312-.583-.418l-.009-.079-.05.125c-.484-.785-1.233-.812-1.792-1.528l.144.062-.329-.18c-.015-.08.127-.018.184-.066a34.322 34.322 0 0 0-1.414-1.002l.231.269c-.309-.193-.583-.217-.893-.505.688.204-.483-.309-.509-.486l.346.148c-.443-.251-.443-.251-.472-.119-.593-.288-.271-.438-.871-.611l.376.214c.073.128-.244.061-.498-.074-.051-.049-.204-.195-.003-.105-.477-.205-1.144-.61-1.374-.658-.236-.156-.115-.199.037-.164-1.054-.366-.444-.24-1.512-.577l.046-.06-.386-.066-.453-.34.149.158c-.345-.12-.575-.153-.964-.333l.198-.043c-.991-.285-1.078-.558-2.065-.691-.06-.037.098-.03.178-.024-.923-.079-.616-.371-1.56-.391.063-.021-.024-.089.018-.11l-.425-.022.063-.134-.379.135-.222-.197-.167.039c-.388-.359-1.05-.266-1.628-.554l.079.196c-1.566.145-3.503-.582-5.39-.362l.03-.145-.766.196c-.42-.097.243-.132.111-.201-.824.12-.335.226-1.289.335-.497-.052.161-.126.389-.188-.896.127-2.201.371-2.841.397-.012.021-.046.053-.013.056-.581.157-1.367.243-2.011.399.001-.068.16-.114.317-.163-.233.042-.563.066-.745.184l.213-.181c-.504.09-1.422.457-1.571.348.075.037.08.148-.343.268-.301-.147-1.115.444-1.813.575.062-.078.546-.262.408-.215-.354.061-.62.269-.883.445l.057-.117c-.499.232-.99.478-1.473.738-.319-.113-1.39.684-1.357.494-.528.255.483-.133-.169.222-.221.002-.573.349-.612.206l.062-.052-.453.252.222-.279c-.384.235-.596.528-.563.63-.409.138-.889.505-1.119.496l.114-.112c-.979.668-1.878.752-2.498 1.509-.068.025-.083-.008.037-.094l-.596.438.074-.192c-.293.291-.578.589-.858.89l-.033-.065c-.646.49-1.568 1.36-2.286 2.113l.087-.133c-.724.882-.819.735-1.327 1.4a.206.206 0 0 1 .037-.085l-.494.562.057-.17c-.251.514-1.176 1.09-.858.908-.146.288-.414.764-.396.893-.485.654-.197.1-.545.472-.354.475-.312.63-.813 1.257l-.051-.053-.544.992.053-.15c-.316.8-.737.803-.786 1.542-.23.281-.496.905-.612.809a55.183 55.183 0 0 0-1.045 2.749c-.281.068-.077.211-.426.759l.135.001c-.509 1.384-1.309 2.936-1.606 4.565l-.134.018.067.352c-.427 1.722-.734 4.01-.77 5.426.047.468.183 1.17.152 1.902l-.019-.077.35 4c-.065-.078-.084.064-.139-.086.183.31.12.81.168 1.105l.038-.36c.181.372.163.95.113 1.165l.257.589c-.003.043-.009.109-.027.122l.089.094-.093.362c.07.145.304.942.532 1.149-.038.071.071.647-.076.219.188.739.395 1.476.636 2.201l-.062-.357c.109-.082.402.539.477.889-.26-.399-.184.026-.201.246.174.269.01-.292.133-.163.212.339.563 1.082.593 1.294l-.138-.195c.252.468.142.783.374 1.255.287.385.362.734.514.552.339.587-.017.301.061.507.236.239.625 1.104.593 1.264.451.168.834 1.638 1.147 1.606l.178.551c.069-.024.266-.023.546.331.175.395.018.383.033.531l.385.075c1.19 2.175 3.547 4.442 5.486 6.321.97.726 2.258 1.531 3.426 2.307l-.15-.054c.378.271.765.534 1.155.792-.27-.211-.542-.413-.805-.631.273.138.506.211.755.365 1.25.878 3.042 1.927 4.865 2.467 1.25.131.669.545 1.857.699-.104-.004-.151.026-.247.027 1.238.282 1.919.407 3.185.503-.206.274.803.159.662.292l.125-.103c.259.134.908.262.8.336l.573-.069.029.134c.73.127 2.314.169 2.688.437 1.843-.061 4.727-.082 7.012-.407.304-.154.963-.274 1.474-.39l.579.032c.514-.159 1.016-.48 1.518-.519.001.018-.016.035-.046.053.514-.169 1.032-.241 1.47-.53.566-.171 1.134-.297 1.011-.101-.028-.249 1.193-.406 1.194-.412-.01-.017 1.826-.615 4.436-2.094 2.604-1.466 5.926-3.936 8.687-7.259 2.791-3.29 4.936-7.395 6.006-11.162 1.104-3.77 1.199-7.11.936-8.937-.114-.252-.172-.928-.329-.674-.038-.517.184-.753.061-.855-.092.702-.32-.216-.483.465l-.025-.436c-.088-.091.093.594-.066.484l.231.128c-.039.354-.103.546-.184.668.079.334.385.566.188 1.354l.005-.221c-.048.648-.185.384-.234.515l.015-.142-.168.53c.12-.402-.014-1.095-.029-.739-.133.758.073-.193.052.382-.02.357-.136.245-.205.223l-.063.636c-.104-.036.054-.419-.087-.175l.012.811c-.287.108 0 .888-.321 1.206.037-.579-.098.034-.171-.071-.078.462-.167.922-.265 1.38-.064.122-.004-.378-.036-.167-.127.241-.032.437-.066.575-.096.103-.258 1.017-.425.932-.381.876.119.45-.246 1.268-.139.077.188-.68-.038-.338l-.247.883c-.023-.096-.108-.225.017-.543-.93 2.305-2.005 3.253-2.92 5.257-.266.208.032-.238.062-.473-.623 1.484-1.371 1.791-2.114 2.901l.075.082c-1.346 1.339-2.657 3.176-4.31 4.512l.235-.117c-.137.278-.48.603-.709.869-.078-.008.039-.335-.397.096.121-.053.346-.19.321-.101-.778.492-1.903 1.341-3.215 2.168-1.304.837-2.804 1.636-4.177 2.186-3.613 1.756-7.976 2.475-11.882 2.531.598-.016.35.255-.106.198-1.224-.457-2.152.021-3.382-.425-2.299-.123-4.184-.973-6.286-1.339l.004-.135c-.278-.161-.39-.103-.705-.212l.021-.03c-.716-.319-1.638-.581-2.02-.835l-.087.119c-.429-.189-.172-.202-.638-.343l.045-.059-.56-.133c.164-.194-1.155-.645-1.413-.95-.542-.269-1.572-.805-2.282-1.396-.066-.2-.961-.882-1.462-1.397-1.092-.863-2.556-2.234-3.651-3.636l-.105.13-.305-.353c.032-.018.007-.079.065-.034-.081-.395-.709-.808-.835-1.181.017.278.176.274.332.488.17.351-.179.158-.424-.305l.035-.014-.276-.235c.08-.106-.059-.4.024-.508-.888-1.233-1.616-2.02-2.292-3.455.198.083-.533-1.004-.169-.826-.481-.818-.115.228-.457-.093-.11-.241-.285-.472-.219-.553.104.09.052-.259.159-.069l-.266-.575c-.005-.064.079.052.12.11-.625-1.143-.662-2.188-1.123-3.25-.118-.057.098.447-.013.393-.5-1.074-.129-1.032-.506-2.059l.17.192c-.158-.321-.301-.45-.314-1.036.122-.126.21.456.339.711-.085-.384-.302-1.357-.377-1.035-.132-.459-.026-.652-.03-.908-.037-.004-.024.451-.136.187-.021-.65-.145-1.639-.189-2.427.036.004.087-.055.109.013-.227-.62.094-.573.023-1.434z"/><path d="M27.998 3.182l-.324.033c.006.032-.002.071-.142.134l.466-.167zM14.134 9.434c-.024.034-.048.068-.065.104.057-.055.067-.084.065-.104zM11.583 12.161c.163-.212-.032-.071-.147 0 .017.024.046.043.147 0zM36.714 2.602c-.058.007-.096.022-.09.054.08-.018.099-.035.09-.054zM57.081 14.641l-.041-.09c.002.02.018.053.041.09zM56.432 13.436a1.61 1.61 0 0 0-.191-.2.952.952 0 0 0 .191.2zM30.823 2.505a.72.72 0 0 0-.251.065.661.661 0 0 0 .251-.065zM56.034 13.042l-.208-.271c-.009.005-.017.007-.025.015l.233.256zM57.316 14.998c-.073-.11-.179-.256-.235-.356.067.159.145.268.235.356zM45.366 4.834l-.035-.012c-.269-.05-.105-.007.035.012zM54.864 12.096l-.027-.037-.096-.045zM58.096 16.235a.595.595 0 0 0-.114-.126l.091.17c.005-.026.013-.038.023-.044zM49.718 7.514c.109.008.161-.002.179-.023-.096-.062-.169-.081-.179.023z"/></g><circle fill="#6E7072" cx="32.689" cy="13.137" r="5.63"/><circle fill="#6E7072" cx="15.334" cy="24.398" r="5.63"/><circle fill="#6E7072" cx="50.229" cy="24.398" r="5.631"/><path fill="#6E7072" d="M13.544 31.575S1.215 48.807 32.245 58.509c0 0-19.994-16.367-.522-28.482 0 0-3.161-4.396-9.119-3.721 0 .001-2.111 5.809-9.06 5.269zM52.104 31.575s12.329 17.232-18.702 26.934c0 0 19.994-16.367.522-28.482 0 0 3.162-4.396 9.12-3.721.001.001 2.111 5.809 9.06 5.269zM27.06 19.021s-2.679 1.833-3.746 5.377c0 0 4.486-1.266 9.417 4.189 0 0 3.945-5.267 9.238-3.754 0 0-.757-3.083-3.649-5.812 0 0-3.47 1.946-5.589 1.946s-5.671-1.946-5.671-1.946z"/><path fill="#6E7072" d="M37.765 40.995c-.187.215-.463.196-.896.473a.25.25 0 0 0 .04-.038c.133-.149-.513-.056-.831.261-.256.272-.624.373-1.017.422-.396.053-.812.059-1.188.163-.187.05-.395.056-.622.085a6.487 6.487 0 0 1-1.783.117 13.245 13.245 0 0 1-1.867-.252c-.35-.077-.622-.279-.875-.442-.103-.046-.205-.097-.31-.134-.052-.021-.104-.039-.152-.06-.047-.023-.09-.048-.13-.071a1.545 1.545 0 0 1-.322-.258c-.09-.096-.177-.184-.238-.294.083.11.171.183.256.271.042.043.084.088.136.129l.164.124c.035.022.054.027.059.021.024-.028-.116-.232-.18-.311-.024-.053-.17-.009-.198-.066a.528.528 0 0 1-.115-.133 3.863 3.863 0 0 1-.087-.17c-.021-.055-.1.023-.109-.004a.482.482 0 0 1-.059-.115.78.78 0 0 1-.023-.123c-.011-.076-.022-.141-.066-.176-.03-.03-.062-.056-.09-.084-.024-.028-.051-.056-.076-.083-.026-.036-.055-.073-.074-.117-.006-.03-.01-.063-.015-.096a4.563 4.563 0 0 1-.044-.317l.035-.006a.157.157 0 0 0-.042-.118l-.001-.036.001-.004c.005-.004.007-.01.007-.018l-.011-.005a2.444 2.444 0 0 1 .004-.227l.009.001a.529.529 0 0 0 .148.354c-.018-.014-.029-.014-.036-.007-.008.011-.011.029-.002.06l.068.027c-.006-.061-.008-.119-.024-.173a.266.266 0 0 0-.09-.149s.012-.054.021-.081c-.019-.033-.054-.026-.086-.03v-.08c.032.026.07.077.101.122l.063.079c.067.309.211.581.382.816-.005.031-.017.059.012.074.03.01.053.02.073.033l.079.1c.007.014.016.025.024.039l-.006-.021c.07.064.14.131.209.199a.372.372 0 0 0 .04.045c.043.055.089.113.156.097.014.012.029.021.041.03l-.012.003.02.003c.058.045.125.074.189.11.025.042.054.092.088.13-.034-.038-.062-.088-.088-.13.062.032.123.069.188.101.066.026.133.055.202.083.441.17.888.271 1.345.34.459.064.93.093 1.43.069a9.126 9.126 0 0 0 1.563-.218c.502-.112.984-.174 1.463-.271.479-.096.957-.224 1.427-.473.365-.182 1.084-.311 1.447-.406.53.034.425.561.407.596a.804.804 0 0 1-.132.22m-9.312.175c.007.006.017.008.029.006.04 0 .095-.019.146-.029a.28.28 0 0 0 .231.057c-.06-.084-.143-.076-.231-.057-.025-.023-.044-.051-.045-.084.001.033.02.061.045.084-.051.011-.105.029-.146.029-.012.002-.022 0-.029-.006m-.114-.092c.029-.017.048-.015.062-.003-.014-.012-.033-.014-.062.003m-.482-.484c.029.043.065.077.114.07a9.031 9.031 0 0 0-.179-.166c-.004-.004-.005-.008-.007-.012v.001c.003.01.002.018-.003.022-.006.008-.019.008-.032.008-.02-.006-.041-.006-.061-.006.01 0 .039.006.061.006a.37.37 0 0 1 .073.029.498.498 0 0 0 .034.048m-.772-.885l-.004.037h.004l.012-.037h-.012zm9.783 1.758a.332.332 0 0 1-.055.033c.019-.01.036-.022.055-.033m-9.037-.915c-.002 0-.003-.001-.007-.005a.4.4 0 0 1-.03-.049.647.647 0 0 0 .037.054m-.615-.881l-.016-.015c.005.007.01.011.016.015M30.087 36.987a.2.2 0 0 1-.052.042c-.049.026-.049-.035-.119.052-.002.003-.095-.055-.097-.052.026-.045.05.011-.006.062-.041-.007-.109.014-.158.075-.021.026-.092-.067-.104-.027-.018.062-.094-.021-.122.015a.326.326 0 0 1-.201.108c-.118.026-.252.032-.347.112-.045.041-.108.052-.168.085-.143.12-.338.236-.493.306-.151.069-.241.211-.368.328-.033.029-.099.059-.099.059-.048.008.01.273-.035.285-.01.006-.069-.114-.078-.105-.013.016-.153.087-.16.107-.009.02.035.166.024.18 0 .002-.002.002-.004.003-.003.002-.003.005-.005.007-.04.049.083.15.028.18.042-.047-.089-.146-.038-.191l.001-.004c.026-.031-.104-.037-.144-.023-.002 0-.003.001-.003.002-.005.005.003.02.011.035.008.014.015.027.01.033-.001.002-.002.002-.003.002h-.002c-.019.023.122.102.083.117-.003 0-.004 0-.004.002-.004.004.008.014.021.021l.022.02-.002.001c-.035.022-.121.014-.139.034-.002.002-.004.006-.003.012a.519.519 0 0 0 .007.07c0 .012 0 .025-.008.033-.009.007-.018.012-.028.018-.021-.018-.049-.028-.08-.043 0 .015.014.037.014.051 0-.014-.014-.036-.014-.051.031.015.059.025.08.043a.377.377 0 0 0-.111.082l-.011-.01.006.012a4.431 4.431 0 0 0-.066.068l-.006-.002c.018-.037.021-.074-.012-.126.012.017.028.019.037.007l.004-.004-.034-.027c-.009.008-.02.016-.026.024-.02.022-.025.051.009.082l-.032.019c.008.014.034.02.055.025-.003.008-.008.014-.012.023a.273.273 0 0 1-.074-.091c.015-.054.029-.104.048-.155.016-.049.033-.098.055-.144.014 0 .028.003.032-.003.002-.002.002-.004.002-.008a.089.089 0 0 1-.017-.034l.017-.04.016-.012-.012.002.046-.094.018-.016c.01-.006.019-.01.025-.019.009-.01.01-.021-.003-.042l.009-.017.003.009-.001-.011.039-.069c.026-.045.058-.088.087-.13.023-.034.048-.064.072-.095.191-.234.33-.655.582-.837.156-.114.302-.293.45-.408.157-.124.218-.225.426-.313.162-.067.313-.105.521-.167.119-.11.389-.136.535-.156.717.226.31.551.31.569-.017.101-.178.071-.204.104m-2.925 2.036c.005.009.013.026.021.038-.004-.014-.012-.025-.021-.038m.085-.139a.031.031 0 0 0-.005.017.147.147 0 0 1 .011.056l.015-.046.019-.041c-.017.004-.031.006-.04.014m.402-.592l.06-.014c.013-.025-.006-.045-.016-.066a.524.524 0 0 0-.098.09c-.003.002-.006.004-.007.008a.37.37 0 0 0-.065.119c.006-.029-.014-.035-.046-.009l.005.056c.037-.023.021-.172.053-.2.008-.009.016-.017.022-.026.02-.023.084.076.092.042m.042-.086l.002.006.047-.032v-.003l-.049.029m-.508.47c.014-.002.022.006.029.017a.248.248 0 0 0 .019.026c-.006-.005-.01-.017-.019-.026-.004-.011-.008-.022-.007-.032-.008.005-.017.009-.022.015m.224-.301c.011.028.022.055.027.074.004.006.004.009.001.012.003-.003.003-.006-.001-.012-.004-.019-.016-.045-.027-.074m-.014.11l.001.005-.001-.005m.018-.024h0m-.02.022c0 .002 0 .002.002.002-.002 0-.002 0-.002-.002m-.008-.022c.005-.004.014-.003.026 0h.002-.002c-.013-.003-.021-.003-.026 0m-.162.184c.002-.002.004-.002.007-.006.009-.012.011-.023-.005-.044l-.036.077c.007-.005.011-.012.018-.014l.001-.002v.004c.005-.005.01-.007.015-.015m.186-.27c.008 0 .014-.004.019-.012.013-.015.015-.04.007-.073-.015 0-.023.001-.03.007-.012.018-.007.047.004.078M24.512 46.382a.24.24 0 0 0-.079.014c-.034 0-.039-.028-.052-.058.043.016.087.033.131.044M24.673 46.445a.236.236 0 0 0-.038-.022l.022.007.016.015zM24.851 46.532a.308.308 0 0 1-.113-.047.276.276 0 0 1 .113.047M24.737 46.485a.217.217 0 0 0-.077.007c.007-.005.013-.009.018-.015.008-.009.008-.02-.002-.031l-.003-.001.064.04M24.66 46.492c-.018.009-.043.015-.056.02a.288.288 0 0 1 .056-.02m-.056.019c0 .001 0 .001 0 0 0 .001 0 .001 0 0M25.366 47.247c-.007.007-.024.007-.057-.007a8.553 8.553 0 0 1-.62-.273l-.486-.333a.61.61 0 0 0-.149-.051c.07.01.141.02.218.035.104.011.164.182.303.262.007.007.014.001.021-.01.004-.004.009-.008.011-.012.005-.005.007-.01.011-.016.015-.015.032-.026.05-.008.098.067.172.153.277.183.038.04.154-.054.192-.015.08.051.253.213.229.245M23.78 46.176c-.023.009-.045.02-.068.027-.034-.02-.045-.039-.034-.049.003-.008.014-.012.028-.012a.68.68 0 0 1-.359-.108h.003a.032.032 0 0 1 .012-.014c.003-.005.006-.011.01-.014a.064.064 0 0 1 .053-.026l.048.064c.133-.022.218.054.307.132M23.347 46.035l-.006.007-.061-.046.004-.001.063.04M36.827 47.159c-.205.23-.481.18-.951.436l.051-.039c.115-.133-.519-.084-.85.205-.275.253-.646.325-1.04.348-.392.025-.805.002-1.183.082-.188.037-.389.035-.619.053-.588.101-1.162.094-1.741.062-.579-.033-1.161-.104-1.786-.15-.331-.029-.604-.174-.871-.264-.197-.049-.419-.031-.581-.059a2.79 2.79 0 0 1-.665-.219c.229.066.393.131.651.195.032.006.047.006.056 0 .025-.032-.171-.17-.256-.215-.046-.035-.147.07-.19.037-.108-.024-.195-.086-.303-.145-.015-.014-.026-.008-.038.006l-.018.022c-.004.01-.01.017-.015.023s-.007.007-.013.003c-.151-.061-.234-.225-.339-.22a7.241 7.241 0 0 1-.22-.005.463.463 0 0 1-.129-.027c-.023-.018-.051-.033-.076-.05-.182-.112-.393-.243-.589-.356l.006-.008c-.021-.012-.045-.021-.068-.033.068-.035.253-.051.253-.051l.228.072.224.062c.151.035.296.076.442.104.016.027.026.057.06.05a.185.185 0 0 1 .078-.022l.128.025c.013.004.027.012.042.017v.002c.015.013.015.024.004.033-.001.005-.006.008-.012.011a.577.577 0 0 0-.055.029c.012-.008.036-.016.055-.029a.224.224 0 0 1 .076-.014.863.863 0 0 1-.068-.032l-.019-.013c.098.016.193.035.292.048l.06.021c.068.029.134.059.188.012a.45.45 0 0 0 .053.008l-.012.008.021-.006.223.029.443.043c.968.079 1.86.154 2.867.124a12.017 12.017 0 0 0 1.574-.169c.508-.088.991-.117 1.477-.18.482-.062.966-.158 1.451-.371.374-.154 1.094-.229 1.458-.302.262.036.353.182.382.323a.53.53 0 0 1-.018.297.843.843 0 0 1-.118.189m-9.249.154c.066.029.16.026.243-.018-.083-.059-.166-.027-.243.018m-.128.074c.04-.02.083-.048.128-.074-.045.026-.088.055-.128.074M27.436 47.394l.011-.005-.011.005m-.153-.046l-.001.004.001-.004m0 0zm-.517-.203a3.26 3.26 0 0 1-.247-.039l.057.022.006.003h-.008a.572.572 0 0 0 .053.02c.048.019.096.029.139-.006m-1.044.078v-.002.002zM25.702 47.24l.002-.002-.002.002m.069-.098c0 .001 0 .001 0 0 0 .001 0 .001 0 0m-.144-.008c.041.005.104-.003.146.003-.042-.006-.105.002-.146-.003m-.16-.19c-.011.014.002.033.042.048l.064-.038c-.102-.061-.2-.127-.329-.086l-.057-.059a.074.074 0 0 0-.039.022c-.012.011-.019.03-.029.044a.72.72 0 0 0 .375.056c-.014.003-.021.009-.027.013m10.409.65c-.016.008-.033.02-.055.03.018-.01.036-.022.055-.03m-10.364-.665c-.007 0-.013 0-.018.002.005-.002.011-.002.018-.002"/><path fill="#6E7072" d="M26.692 47.163a.276.276 0 0 1-.066-.012c-.016-.008-.03-.012-.045-.02a.27.27 0 0 1 .111.032"/><path fill="#6E7072" d="M26.766 47.145c-.043.035-.091.025-.14.006a.285.285 0 0 0 .066.012.271.271 0 0 0-.111-.031l-.006-.003a.491.491 0 0 0-.057-.022c.082.015.164.028.248.038M31.553 45.485a.161.161 0 0 0-.029.025l-.013.016c-.018.016-.027-.011-.044-.03l.086-.011zM31.63 45.475l.029.008-.013-.011-.016.003zM31.782 45.498a.134.134 0 0 1-.077-.001c.021-.011.044-.011.077.001M31.705 45.497a.103.103 0 0 0-.036.027c-.004.002-.004.004-.006.007.011-.018.013-.035-.004-.047v-.001a.31.31 0 0 0 .046.014M31.639 45.571v-.002.002m0-.002c.008-.014.015-.027.024-.038-.007.014-.02.028-.024.038M32.246 45.989c-.004.005-.016.01-.028.01-.162-.006-.27-.027-.417-.043-.12-.038-.233-.086-.354-.121-.033-.003-.063.008-.098.016l.13-.057c.061-.035.139.104.238.125 0 .002.002.002.003 0a.112.112 0 0 0 .008-.035c.004-.016.007-.033.013-.039.005-.004.008-.004.014 0 .072.027.136.074.202.072.011.007.021 0 .031-.013l.022-.028.021-.029c.011-.012.021-.019.031-.012.061.022.21.124.184.154M31.059 45.643c-.034-.006-.041-.027-.022-.049a.287.287 0 0 1-.224.055c.006-.025.006-.058.021-.074l.006-.006.044.037c.001 0 .002 0 .002-.004.069-.076.136-.045.206-.014l-.033.055zM30.809 45.659a.574.574 0 0 0-.044-.017l.001-.003c.017.004.031.008.047.01l-.004.01zM39.116 44.743c-.11.125-.273.096-.507.294.001-.004.005-.007.007-.011.062-.069.004-.107-.095-.102a.537.537 0 0 0-.39.244c-.023.041-.051.074-.076.105-.305.346-.832.162-1.227.335-.109.046-.231.05-.368.08-.681.263-1.361.193-2.103.327-.197.025-.383-.052-.556-.089-.125-.003-.248.066-.349.079a1.14 1.14 0 0 1-.428-.042c.147.003.256.024.416.021.016-.002.024-.005.029-.01.025-.029-.129-.126-.191-.146-.01-.005-.019-.001-.027.011-.008.009-.016.02-.023.031l-.021.032c-.01.012-.02.015-.028.012-.065.005-.131-.039-.204-.062-.008-.003-.011-.003-.015 0-.006.009-.008.024-.011.042-.001.016-.003.031-.007.035 0 .002-.001.002-.003.002-.1-.016-.185-.149-.243-.113l-.126.063a.262.262 0 0 1-.079.013 3.376 3.376 0 0 0-.474-.164l.002-.01c-.017 0-.033-.004-.047-.006.006-.015.019-.029.034-.047a1.02 1.02 0 0 1 .093-.091 5.19 5.19 0 0 0 .566-.056c.016.02.029.044.045.029a.072.072 0 0 1 .019-.025l.021-.02.079-.014.028.006-.014-.008.18-.035.038.005c.038.009.075.018.099-.011.005-.006.012-.014.015-.024l.031-.007-.004.01.01-.012.137-.029.268-.062c.584-.141 1.128-.211 1.733-.356.326-.085.637-.183.938-.302.596-.233 1.188-.193 1.76-.592.22-.141.673-.18.903-.215.342.113.282.613.272.643a.543.543 0 0 1-.107.242m-5.587.685c.038.013.083-.005.117-.045.008-.007.014-.018.021-.026-.043-.026-.075-.013-.103.02a.27.27 0 0 0-.035.051m-.106.09c.015.018.031.031.043.02-.012.011-.028-.002-.043-.02m.048.013l-.004.005.004-.005m.058-.103c-.021.035-.04.076-.058.1l-.001.003.001-.003c.018-.024.037-.065.058-.1m-.057-.049c.008.014.017.023.025.031a.09.09 0 0 1-.025-.031m-.095.125c-.003.005-.009.014-.011.027.002-.013.008-.022.011-.027m.002-.001zm-.438.01c.024.002.048.001.065-.018.005-.005.009-.015.013-.024l-.149.029c.012.004.027.005.037.006l.004.001-.008.004c.014-.001.028.002.038.002m-.082-.014c.017.012.017.027.007.047-.008.012-.018.025-.024.043.005-.012.017-.027.024-.043.004-.004.006-.008.01-.01a.087.087 0 0 1 .027-.025c-.012-.005-.027-.008-.044-.012m-.491.295c.026-.007.059-.036.085-.044-.026.008-.058.038-.085.044m-.126-.147c-.02.024-.013.047.024.051l.027-.059c-.066-.023-.136-.049-.193.02l-.013.015-.047-.034c-.003.001-.003.003-.005.004-.016.021-.014.051-.016.078a.293.293 0 0 0 .225-.076c.001.001-.001.001-.002.001m6.367-.61a.365.365 0 0 0-.032.026c.012-.011.02-.019.032-.026m-6.356.6c-.002.002-.007.005-.008.008a.013.013 0 0 1 .008-.008M31.617 43.373a.153.153 0 0 0-.053.042c-.023.012-.037-.012-.054-.033l.107-.009zM31.752 43.37a.571.571 0 0 0-.035-.008l.02-.001.015.009zM31.903 43.381a.203.203 0 0 1-.095 0 .16.16 0 0 1 .095 0"/><path fill="#6E7072" d="M31.809 43.381a.193.193 0 0 0-.052.033c.01-.016.016-.033-.005-.045.019.005.037.01.057.012M31.722 43.458s0-.001 0 0c0-.001 0 0 0 0m.001-.001a.1.1 0 0 1 .022-.027c.003-.006.007-.009.012-.015a.092.092 0 0 1-.017.021.006.006 0 0 0-.004.005.018.018 0 0 1-.005.004c-.003.005-.008.009-.008.012M32.475 43.875c-.004.005-.015.009-.037.009-.202-.003-.335-.029-.518-.041-.149-.039-.291-.084-.442-.121-.041-.004-.081.004-.121.012l.163-.052c.077-.034.173.104.294.124.004.002.005.002.006-.002.005-.002.007-.02.011-.035.002-.014.007-.029.014-.035.006-.006.012-.008.021-.004.09.029.168.074.251.072.038.022.094-.104.131-.081.074.026.256.121.227.154M30.996 43.526c-.04-.006-.052-.025-.034-.044.004-.006.006-.007.011-.009a.435.435 0 0 1-.285.057c.003-.023.006-.054.021-.07a.488.488 0 0 1 .013-.01l.057.039c.084-.081.171-.051.258-.02l-.041.057z"/><path fill="#6E7072" d="M30.685 43.54l-.057-.018.001-.002c.019.002.037.008.059.01l-.003.01zM41.081 42.147c-.139.156-.343.137-.643.37a.102.102 0 0 0 .018-.018c.066-.075-.018-.104-.147-.081a.805.805 0 0 0-.428.24l-.037.046c-.02.028-.038.054-.059.077-.377.426-1.057.278-1.568.49-.137.057-.291.068-.458.112-.854.317-1.708.29-2.639.464-.249.031-.479-.041-.697-.068-.153.004-.309.076-.435.09-.196.019-.368 0-.534-.033.182 0 .315.018.519.013.021-.001.032-.006.038-.013.027-.029-.158-.122-.236-.141-.017-.008-.031.006-.048.023a.387.387 0 0 1-.017.021c-.006.006-.012.012-.017.02-.018.02-.033.031-.048.023-.081.01-.162-.032-.255-.053-.008-.004-.014-.004-.017.002-.008.008-.012.025-.014.041-.003.016-.003.029-.008.035-.002.001-.005.003-.007.001-.124-.013-.229-.148-.302-.111-.059.021-.109.042-.16.062-.032.008-.064.018-.098.014l-.069-.021c-.162-.054-.349-.094-.521-.138l.003-.009a6.087 6.087 0 0 0-.06-.006c.003-.006.008-.01.014-.016a.668.668 0 0 1 .151-.117c.25-.012.484-.038.711-.068.02.022.035.045.057.031l.007-.009a.171.171 0 0 1 .043-.036l.101-.013.035.007-.016-.01.226-.041c.018 0 .034.002.048.005.05.007.098.014.128-.021a.086.086 0 0 0 .013-.02l.04-.008-.006.012.013-.014c.057-.01.114-.021.17-.033.111-.021.225-.041.338-.066.732-.169 1.418-.256 2.174-.447.407-.102.793-.23 1.168-.369.747-.285 1.483-.299 2.189-.758.272-.168.83-.257 1.114-.322.423.076.357.584.347.617a.614.614 0 0 1-.121.244m-6.984 1.143c.054.015.118-.012.167-.068l.006-.008c-.062-.031-.108 0-.148.045a.212.212 0 0 0-.025.031m-.071.095zm.02-.023c-.008.008-.014.018-.02.022.006-.005.012-.014.02-.022m-.025.029l.002-.002-.002.002m.045-.06l-.019.028.019-.028m.03-.041l-.022.031c.006-.011.015-.022.022-.031m-.193.08c.016-.021.037-.003.058.012-.021-.015-.042-.033-.058-.012m.123-.129a.15.15 0 0 1 0 0m-.136.154l-.002.004.002-.004m.008-.02c-.004.006-.006.013-.009.02l.009-.02m.001-.001v.002-.002m.002-.001l-.002.001.002-.001m0-.003zm-.544.019c.033.002.065 0 .086-.025a.05.05 0 0 0 .015-.02l-.189.037-.012-.002h.002c.019.01.015.026.005.046l-.005.004a.28.28 0 0 0-.026.038c.006-.01.021-.026.031-.042a.113.113 0 0 1 .05-.037.224.224 0 0 0-.044-.007.34.34 0 0 1 .047.002l.005.001c-.003 0-.005.001-.008.004a.632.632 0 0 0 .043.001m-.723.289c.031-.009.075-.035.104-.045-.029.01-.073.036-.104.045m-.159-.141c-.021.022-.008.044.033.046l.035-.057c-.089-.025-.178-.047-.257.033l-.059-.033c-.005.002-.009.004-.011.008-.018.019-.016.047-.019.072a.389.389 0 0 0 .281-.075c.001.003-.003.005-.003.006m7.963-1.02l-.039.032c.012-.011.028-.021.039-.032m-7.946 1.005c-.003.004-.007.006-.013.009.005-.003.009-.005.013-.009"/></svg>